<svg version="1.1" id="Artwork" xmlns="http://www.w3.org/2000/svg" xmlns:xlink="http://www.w3.org/1999/xlink" x="0px" y="0px"
	 viewBox="0 0 868.5 375" style="enable-background:new 0 0 868.5 375;" xml:space="preserve">
<style type="text/css">
	.st0{fill:#FFFFFF;}
</style>
<g>
	<path class="st0" d="M280.7,245.8c-0.9,2.9-2.5,7.6-3.6,9.6c-1.8,0.4-7.1,1.7-11.6,1.7c-15.7,0-22.6-10.8-22.6-20.9
		c0-13.2,10.2-22,24.3-22c5.1,0,9.4,1.4,11.2,1.7c0.5,3.6,0.9,6.1,1.3,9.5l-1.9,0.4c-1.6-6.7-5.4-9.4-12.2-9.4
		c-10.5,0-16.1,8.9-16.1,18.5c0,11.8,6.9,19.8,16.5,19.8c6.4,0,9.8-3.5,13-9.8L280.7,245.8z"/>
	<path class="st0" d="M307.9,250.8c-4,5-8.3,6.1-10.3,6.1c-7.7,0-12.3-6.3-12.3-13.4c0-4.3,1.6-8.2,4.2-11c2.6-2.9,6-4.6,9.3-4.6
		c5.2,0,9.5,4.7,9.5,9.6c0,1.3-0.3,1.8-1.4,2c-1.1,0.2-8.9,0.8-16.4,1.1c0.1,8.6,5,12.1,9.4,12.1c2.5,0,4.9-1,7.2-3.2L307.9,250.8z
		 M290.7,238c3.5,0,7-0.1,10.6-0.2c1.1,0,1.5-0.4,1.5-1.3c0.1-3.3-2.1-6.3-5.5-6.3C294.4,230.2,291.6,232.9,290.7,238z"/>
	<path class="st0" d="M329.7,256.2v-1.6c3.7-0.4,4.2-0.9,4.2-5.2v-10.5c0-4.3-1.5-7.2-5.7-7.2c-2.5,0-5,1.6-6.9,3.2v14.8
		c0,4.3,0.4,4.5,4.1,4.9v1.6h-13.7v-1.6c4.3-0.4,4.6-0.8,4.6-4.9v-13c0-4-0.4-4.2-3.8-4.9v-1.4c3-0.6,6-1.3,8.8-2.6v5
		c1.3-0.9,2.6-1.9,4.2-3c1.8-1.1,3.4-1.9,5.2-1.9c5,0,8.1,3.5,8.1,9.6v12.2c0,4.3,0.3,4.5,4,4.9v1.6H329.7z"/>
	<path class="st0" d="M357.6,256.1c-1.1,0.6-2.1,0.8-2.6,0.8c-4,0-6.2-2.5-6.2-7.5v-18.3h-4.3l-0.3-0.6l1.7-1.8h2.9v-4.6l4.1-4.2
		l0.9,0.1v8.6h7.1c0.6,0.6,0.4,2-0.4,2.5h-6.7v16.2c0,5.1,2.1,6,3.7,6s3-0.6,3.9-1.1l0.6,1.6L357.6,256.1z"/>
	<path class="st0" d="M386.8,250.8c-4,5-8.3,6.1-10.3,6.1c-7.8,0-12.3-6.3-12.3-13.4c0-4.3,1.6-8.2,4.2-11c2.6-2.9,6-4.6,9.3-4.6
		c5.2,0,9.5,4.7,9.5,9.6c0,1.3-0.3,1.8-1.4,2c-1.1,0.2-8.9,0.8-16.4,1.1c0.1,8.6,5,12.1,9.4,12.1c2.5,0,4.9-1,7.2-3.2L386.8,250.8z
		 M369.5,238c3.5,0,7-0.1,10.6-0.2c1.1,0,1.5-0.4,1.5-1.3c0.1-3.3-2.1-6.3-5.5-6.3C373.3,230.2,370.5,232.9,369.5,238z"/>
	<path class="st0" d="M400.2,234.6c1.9-3.2,4.6-6.7,7.6-6.7c2.1,0,3.7,1.6,3.7,3.2c0,1.3-0.8,2.5-2,3.1c-0.8,0.3-1.3,0.3-1.7-0.1
		c-0.9-0.9-1.6-1.3-2.6-1.3c-1.6,0-3.7,1.9-5,5.4v11.5c0,4.2,0.3,4.5,5.2,4.9v1.6h-14.5v-1.6c3.9-0.4,4.3-0.8,4.3-4.9v-13
		c0-4.2-0.3-4.4-3.9-4.9v-1.4c3.1-0.5,5.9-1.3,8.9-2.6v6.9H400.2z"/>
	<path class="st0" d="M432.7,228.7v-1.4c0-2,0.3-3.8,0.7-5.2c0.4-1.4,1.4-4.5,4.9-7.4c2.2-2,4.5-3.1,6.9-3.4c2.1,0.1,4,0.9,5,2.1
		c0.6,0.7,0.6,1.5,0.3,2.2c-0.2,0.5-0.6,1-1.2,1.5c-0.6,0.4-1.1,0.4-1.7-0.2c-1.3-1.1-3-2.3-5.1-2.3c-1.6,0-2.6,0.8-3.3,1.9
		c-0.8,1.2-1.5,4.2-1.4,9.6v2.5h7.4c0.4,0.6,0.1,2.1-0.6,2.5h-6.8v18.1c0,4.7,0.4,4.9,5.4,5.4v1.6h-14.9v-1.6c4-0.4,4.5-0.7,4.5-4.9
		v-18.6h-4.4l-0.3-0.6l1.7-1.8H432.7z"/>
	<path class="st0" d="M474.2,242c0,10.1-7.4,15-13.7,15c-8.6,0-13.8-6.9-13.8-13.9c0-10.4,8.1-15.1,13.8-15.1
		C468.4,227.9,474.2,234.1,474.2,242z M452.6,241c0,7.9,3.5,13.9,8.6,13.9c3.9,0,7.1-2.9,7.1-11.5c0-7.4-3-13.4-8.4-13.4
		C456,230,452.6,233.9,452.6,241z"/>
	<path class="st0" d="M487.4,234.6c1.9-3.2,4.6-6.7,7.6-6.7c2.1,0,3.7,1.6,3.7,3.2c0,1.3-0.8,2.5-2,3.1c-0.8,0.3-1.3,0.3-1.7-0.1
		c-0.9-0.9-1.6-1.3-2.6-1.3c-1.6,0-3.7,1.9-5,5.4v11.5c0,4.2,0.3,4.5,5.2,4.9v1.6h-14.5v-1.6c3.9-0.4,4.3-0.8,4.3-4.9v-13
		c0-4.2-0.3-4.4-3.9-4.9v-1.4c3.1-0.5,5.9-1.3,8.9-2.6v6.9H487.4z"/>
	<path class="st0" d="M263.9,299.1c6.2,0.9,11.2,3.7,11.2,10c0,4.2-2.3,7.4-6,9.5c-3.2,1.8-7.4,2.5-12.3,2.5h-13.9v-1.8
		c5.4-0.4,5.8-0.8,5.8-6V288c0-5.2-0.3-5.6-5.3-6v-1.8h16.2c4.7,0,7.5,0.8,9.5,2.1c2.3,1.5,3.5,4.3,3.5,7.2c0,6-5,8.4-8.5,9.4V299.1
		z M256.7,298.4c6.9,0,9.8-2.8,9.8-8.1c0-4.3-2.4-8.1-8.4-8.1c-1.6,0-3,0.3-3.6,0.6c-0.6,0.4-0.8,1.1-0.8,3.1v12.3H256.7z
		 M253.8,313.3c0,4.5,1.2,5.7,5.2,5.7c5.2-0.1,9.8-2.7,9.8-9.3c0-6.5-4.4-9.3-12.1-9.3h-2.9V313.3z"/>
	<path class="st0" d="M279,321.2v-1.6c4-0.4,4.4-0.8,4.4-5v-13c0-3.9-0.2-4.2-4-4.8v-1.5c3.2-0.5,6.2-1.3,8.9-2.5v21.7
		c0,4.3,0.4,4.7,4.5,5v1.6H279z M282.3,284.2c0-1.9,1.5-3.3,3.2-3.3c1.8,0,3.2,1.4,3.2,3.3c0,1.7-1.4,3.2-3.2,3.2
		C283.8,287.4,282.3,285.9,282.3,284.2z"/>
	<path class="st0" d="M323.7,307c0,10.1-7.4,15-13.7,15c-8.6,0-13.8-6.9-13.8-13.9c0-10.4,8.1-15.1,13.8-15.1
		C317.8,292.9,323.7,299.1,323.7,307z M302,306c0,7.9,3.5,13.9,8.6,13.9c3.9,0,7.1-2.9,7.1-11.5c0-7.4-3-13.4-8.4-13.4
		C305.4,295,302,298.9,302,306z"/>
	<path class="st0" d="M362,321.2v-1.6c3.7-0.4,4.4-0.6,4.4-5.1v-10.5c0-4.5-1.6-7.3-5.5-7.3c-2.3,0-4.7,1.3-7.1,3.3
		c0.1,0.8,0.2,1.4,0.2,2.6v12.3c0,4,0.6,4.3,4,4.7v1.6h-13.5v-1.6c3.9-0.4,4.5-0.7,4.5-4.9v-10.8c0-4.7-1.6-7.2-5.5-7.2
		c-2.5,0-5,1.7-6.9,3.3v14.8c0,4.1,0.5,4.5,3.6,4.9v1.6h-13.3v-1.6c4.2-0.4,4.7-0.8,4.7-4.9v-13c0-4-0.2-4.3-3.8-4.9v-1.4
		c2.8-0.5,6-1.3,8.8-2.6v5.1c1.3-0.9,2.7-2,4.6-3.2c1.6-1,3.2-1.7,5.2-1.7c3,0,5.7,1.9,7,5.2c1.8-1.4,3.7-2.6,5.2-3.5
		c1.3-0.9,3-1.6,4.7-1.6c4.9,0,8,3.5,8,9.6v12.2c0,4.2,0.5,4.5,4.1,4.9v1.6H362z"/>
	<path class="st0" d="M401.5,315.8c-4,5-8.3,6.1-10.3,6.1c-7.8,0-12.3-6.3-12.3-13.4c0-4.3,1.6-8.2,4.2-11c2.6-2.9,6-4.6,9.3-4.6
		c5.2,0,9.5,4.7,9.5,9.6c0,1.3-0.3,1.8-1.4,2c-1.1,0.2-8.9,0.8-16.4,1.1c0.1,8.6,5,12.1,9.4,12.1c2.5,0,4.9-1,7.2-3.2L401.5,315.8z
		 M384.2,303c3.5,0,7-0.1,10.6-0.2c1.1,0,1.5-0.4,1.5-1.3c0.1-3.3-2.1-6.3-5.5-6.3C387.9,295.2,385.1,297.9,384.2,303z"/>
	<path class="st0" d="M436.2,319.6c-1.4,0.3-6.1,1.1-9.8,2.4v-4.1l-3.8,2.3c-2.5,1.4-4.2,1.8-4.9,1.8c-5,0-11.7-4.6-11.7-13.4
		c0-8.8,7.7-15.6,16.3-15.6c0.9,0,2.7,0.2,4.2,0.7v-8.9c0-4.2-0.3-4.3-4.9-4.7v-1.5c3.3-0.4,7.5-1.4,9.8-2.2v37.6
		c0,3.3,0.4,3.6,2.8,3.8l2,0.2V319.6z M426.5,298.4c-1.5-2.2-4.1-3.2-6.5-3.2c-2.9,0-8.2,2.5-8.2,11.6c0,7.5,4.6,11.2,8.6,11.2
		c2.3,0,4.5-1,6-2.1V298.4z"/>
	<path class="st0" d="M438.9,321.2v-1.6c4-0.4,4.4-0.8,4.4-5v-13c0-3.9-0.2-4.2-4-4.8v-1.5c3.2-0.5,6.2-1.3,8.9-2.5v21.7
		c0,4.3,0.4,4.7,4.5,5v1.6H438.9z M442.3,284.2c0-1.9,1.5-3.3,3.2-3.3c1.8,0,3.2,1.4,3.2,3.3c0,1.7-1.4,3.2-3.2,3.2
		C443.8,287.4,442.3,285.9,442.3,284.2z"/>
	<path class="st0" d="M479.5,315.5c-2.8,3.7-7,6.4-10.7,6.4c-7.9,0-12.6-6.4-12.6-13.2c0-4.9,2.1-9.1,6.3-12.3
		c3.3-2.5,7.1-3.5,9.5-3.5c2.5,0,4.6,0.8,5.6,1.6c0.8,0.7,1,1.3,1,2c0,1.3-1.4,2.7-2.1,2.7c-0.3,0-0.6-0.2-1.2-0.7
		c-1.9-1.8-4.1-2.6-6.3-2.6c-4.2,0-7.8,3.5-7.8,10.1c0,8.8,6,11.7,9.5,11.7c2.7,0,4.8-0.8,7.7-3.5L479.5,315.5z"/>
	<path class="st0" d="M502.6,321.9c-0.9,0-2.3-0.6-3-1.2c-0.8-0.9-1.2-1.8-1.5-2.8c-2.5,1.7-5.5,4-7.4,4c-4.5,0-7.6-3.7-7.6-7.7
		c0-3.1,1.6-5,5.1-6.2c3.8-1.3,8.4-3,9.8-4.1v-1.1c0-4.5-2.1-7.1-5.3-7.1c-1.3,0-2.2,0.5-2.8,1.3c-0.8,0.8-1.4,2.2-1.9,4.2
		c-0.3,1-0.9,1.4-1.8,1.4c-1.1,0-2.8-1.3-2.8-2.7c0-0.9,0.8-1.6,2-2.5c1.8-1.3,5.9-3.7,9.5-4.4c1.9,0,3.8,0.6,5.2,1.7
		c2.2,1.8,2.8,4.4,2.8,7.7V314c0,2.8,1.1,3.8,2.2,3.8c0.8,0,1.6-0.3,2.3-0.7l0.6,1.6L502.6,321.9z M498,306.1
		c-1.3,0.7-4.3,2-5.7,2.6c-2.5,1.1-3.8,2.3-3.8,4.6c0,3.3,2.5,4.9,4.5,4.9c1.6-0.1,3.8-1.1,5-2.3V306.1z"/>
	<path class="st0" d="M509.6,321.2v-1.6c4-0.4,4.5-0.8,4.5-4.9v-29.8c0-4.3-0.4-4.5-4.3-4.8v-1.5c3.3-0.4,7.2-1.4,9.3-2.2v38.3
		c0,4.2,0.5,4.5,4.5,4.9v1.6H509.6z"/>
	<path class="st0" d="M541.2,321.2v-1.8c5.2-0.4,5.7-0.8,5.7-6.1v-25.2c0-5.4-0.5-5.7-5.7-6.1v-1.8h16.7v1.8
		c-5.2,0.4-5.7,0.8-5.7,6.1v25.2c0,5.4,0.5,5.7,5.7,6.1v1.8H541.2z"/>
	<path class="st0" d="M579.2,321.2v-1.6c3.7-0.4,4.2-0.9,4.2-5.2v-10.5c0-4.3-1.5-7.2-5.7-7.2c-2.5,0-5,1.6-6.9,3.2v14.8
		c0,4.3,0.4,4.5,4.1,4.9v1.6h-13.7v-1.6c4.3-0.4,4.6-0.8,4.6-4.9v-13c0-4-0.4-4.2-3.8-4.9v-1.4c3-0.6,6-1.3,8.8-2.6v5
		c1.3-0.9,2.6-1.9,4.2-3c1.8-1.1,3.4-1.9,5.2-1.9c5,0,8.1,3.5,8.1,9.6v12.2c0,4.3,0.3,4.5,4,4.9v1.6H579.2z"/>
	<path class="st0" d="M600.2,293.7v-1.4c0-2,0.3-3.8,0.7-5.2c0.4-1.4,1.4-4.5,4.9-7.4c2.2-2,4.5-3.1,6.9-3.4c2.1,0.1,4,0.9,5,2.1
		c0.6,0.7,0.6,1.5,0.3,2.2c-0.2,0.5-0.6,1-1.2,1.5c-0.6,0.4-1.1,0.4-1.7-0.2c-1.3-1.1-3-2.3-5.1-2.3c-1.6,0-2.6,0.8-3.3,1.9
		c-0.8,1.2-1.5,4.2-1.4,9.6v2.5h7.4c0.4,0.6,0.1,2.1-0.6,2.5h-6.8v18.1c0,4.7,0.4,4.9,5.4,5.4v1.6h-14.9v-1.6c4-0.4,4.5-0.7,4.5-4.9
		v-18.6h-4.4l-0.3-0.6l1.7-1.8H600.2z"/>
	<path class="st0" d="M641.7,307c0,10.1-7.4,15-13.7,15c-8.6,0-13.8-6.9-13.8-13.9c0-10.4,8.1-15.1,13.8-15.1
		C635.8,292.9,641.7,299.1,641.7,307z M620.1,306c0,7.9,3.5,13.9,8.6,13.9c3.9,0,7.1-2.9,7.1-11.5c0-7.4-3-13.4-8.4-13.4
		C623.5,295,620.1,298.9,620.1,306z"/>
	<path class="st0" d="M654.8,299.6c1.9-3.2,4.6-6.7,7.6-6.7c2.1,0,3.7,1.6,3.7,3.2c0,1.3-0.8,2.5-2,3.1c-0.8,0.3-1.3,0.3-1.7-0.1
		c-0.9-0.9-1.6-1.3-2.6-1.3c-1.6,0-3.7,1.9-5,5.4v11.5c0,4.2,0.3,4.5,5.2,4.9v1.6h-14.5v-1.6c3.9-0.4,4.3-0.8,4.3-4.9v-13
		c0-4.2-0.3-4.4-3.9-4.9v-1.4c3.1-0.5,5.9-1.3,8.9-2.6v6.9H654.8z"/>
	<path class="st0" d="M703.7,321.2v-1.6c3.7-0.4,4.4-0.6,4.4-5.1v-10.5c0-4.5-1.6-7.3-5.5-7.3c-2.3,0-4.7,1.3-7.1,3.3
		c0.1,0.8,0.2,1.4,0.2,2.6v12.3c0,4,0.6,4.3,4,4.7v1.6h-13.5v-1.6c3.9-0.4,4.5-0.7,4.5-4.9v-10.8c0-4.7-1.6-7.2-5.5-7.2
		c-2.5,0-5,1.7-6.9,3.3v14.8c0,4.1,0.5,4.5,3.6,4.9v1.6h-13.3v-1.6c4.2-0.4,4.7-0.8,4.7-4.9v-13c0-4-0.2-4.3-3.8-4.9v-1.4
		c2.8-0.5,6-1.3,8.8-2.6v5.1c1.3-0.9,2.7-2,4.6-3.2c1.6-1,3.2-1.7,5.2-1.7c3,0,5.7,1.9,7,5.2c1.8-1.4,3.7-2.6,5.2-3.5
		c1.3-0.9,3-1.6,4.7-1.6c4.9,0,8,3.5,8,9.6v12.2c0,4.2,0.5,4.5,4.1,4.9v1.6H703.7z"/>
	<path class="st0" d="M740.3,321.9c-0.9,0-2.3-0.6-3-1.2c-0.8-0.9-1.2-1.8-1.5-2.8c-2.5,1.7-5.5,4-7.4,4c-4.5,0-7.6-3.7-7.6-7.7
		c0-3.1,1.6-5,5.1-6.2c3.8-1.3,8.4-3,9.8-4.1v-1.1c0-4.5-2.1-7.1-5.3-7.1c-1.3,0-2.2,0.5-2.8,1.3c-0.8,0.8-1.4,2.2-1.9,4.2
		c-0.3,1-0.9,1.4-1.8,1.4c-1.1,0-2.8-1.3-2.8-2.7c0-0.9,0.8-1.6,2-2.5c1.8-1.3,5.9-3.7,9.5-4.4c1.9,0,3.8,0.6,5.2,1.7
		c2.2,1.8,2.8,4.4,2.8,7.7V314c0,2.8,1.1,3.8,2.2,3.8c0.8,0,1.6-0.3,2.3-0.7l0.6,1.6L740.3,321.9z M735.7,306.1
		c-1.3,0.7-4.3,2-5.7,2.6c-2.5,1.1-3.8,2.3-3.8,4.6c0,3.3,2.5,4.9,4.5,4.9c1.6-0.1,3.8-1.1,5-2.3V306.1z"/>
	<path class="st0" d="M759.4,321.1c-1.1,0.6-2.1,0.8-2.6,0.8c-4,0-6.2-2.5-6.2-7.5v-18.3h-4.3l-0.3-0.6l1.7-1.8h2.9v-4.6l4.1-4.2
		l0.9,0.1v8.6h7.1c0.6,0.6,0.4,2-0.4,2.5h-6.7v16.2c0,5.1,2.1,6,3.7,6s3-0.6,3.9-1.1l0.6,1.6L759.4,321.1z"/>
	<path class="st0" d="M766.4,321.2v-1.6c4-0.4,4.4-0.8,4.4-5v-13c0-3.9-0.2-4.2-4-4.8v-1.5c3.2-0.5,6.2-1.3,8.9-2.5v21.7
		c0,4.3,0.4,4.7,4.5,5v1.6H766.4z M769.7,284.2c0-1.9,1.5-3.3,3.2-3.3c1.8,0,3.2,1.4,3.2,3.3c0,1.7-1.4,3.2-3.2,3.2
		C771.3,287.4,769.7,285.9,769.7,284.2z"/>
	<path class="st0" d="M807,315.5c-2.8,3.7-7,6.4-10.7,6.4c-7.9,0-12.6-6.4-12.6-13.2c0-4.9,2.1-9.1,6.3-12.3
		c3.3-2.5,7.1-3.5,9.5-3.5c2.5,0,4.6,0.8,5.6,1.6c0.8,0.7,1,1.3,1,2c0,1.3-1.4,2.7-2.1,2.7c-0.3,0-0.6-0.2-1.2-0.7
		c-1.9-1.8-4.1-2.6-6.3-2.6c-4.2,0-7.8,3.5-7.8,10.1c0,8.8,6,11.7,9.5,11.7c2.7,0,4.8-0.8,7.7-3.5L807,315.5z"/>
	<path class="st0" d="M826.4,301.1c-1.2-3.7-3.4-6.2-6.5-6.2c-2.4,0-4.1,1.9-4.1,4.3c0,2.8,2.5,4.3,5.4,5.5c4.7,2,7.9,4.2,7.9,8.6
		c0,5.7-5.4,8.7-10.4,8.7c-3.2,0-6.1-1.2-7.2-2.1c-0.4-0.9-1-5.2-1-7.4l1.6-0.3c1.1,4.2,4,7.8,7.7,7.8c2.3,0,4.5-1.8,4.5-4.4
		c0-2.8-1.8-4.3-5-5.7c-3.8-1.8-7.9-3.8-7.9-8.7c0-4.4,3.8-8.1,9.6-8.1c2.6,0,4.3,0.6,5.6,1.1c0.5,1.4,1.2,5.2,1.4,6.7L826.4,301.1z
		"/>
</g>
<g>
	<path class="st0" d="M257.8,148.4v21.3c0,6.5,1.3,8.8,8.4,8.7c8.2,0,15.1-4.1,15.1-14.4c0-10.6-7.8-15.5-17.9-15.5H257.8z
		 M257.8,145.5h6.1c9.4,0,14-4.4,14-12.4c0-5.9-2.4-12.4-14-12.4c-3.2,0-4.6,0.3-5.4,0.6c-0.6,0.2-0.9,0.6-0.9,2.5V145.5z
		 M267.4,117.9c7,0,11,1.2,14.2,3.4c3.3,2.3,5.1,5.8,5.1,10.7c0,8.6-8.1,12.8-12.8,13.9v0.2c8.9,1.3,16.9,6.5,16.9,16.4
		c0,6.9-3.4,11.8-9.1,15c-5,2.7-11.2,3.7-18.6,3.7h-22.4v-2.3c8.2-0.6,9-1.3,9-11.9v-35.1c-0.1-10.6-0.7-11.3-8.4-11.9v-2.3H267.4z"
		/>
	<path class="st0" d="M324.7,150.6h5.7c4,0,7.1-0.5,9.8-2.6c4.2-3.3,5.6-8.1,5.6-12.9c0-10.2-7.4-14.3-14.7-14.3
		c-3.3,0-4.7,0.2-5.5,0.5c-0.6,0.2-0.9,0.7-0.9,2.6V150.6z M324.7,167.2c0,10.6,0.8,11.3,8.8,11.9v2.3h-26v-2.3
		c8.2-0.6,9-1.3,9-11.9v-35.1c0-10.6-0.8-11.3-8.6-11.9v-2.3h24.8c6.2,0,11.8,0.9,15.4,3.3c3.9,2.4,6.4,6.8,6.4,12.5
		c0,8.1-5,13.9-12.9,17.1c1.8,2.9,5.8,9.7,8.7,14c3.5,5.2,5.6,7.8,8.2,10.7c2,2.4,3.8,4,7.3,4.9l-0.2,1.9h-1.4
		c-11.2-0.3-14.6-3.7-18.3-9.1c-3-4.4-7.1-11.6-9.9-16.2c-1.5-2.5-3.1-3.5-6.1-3.5h-5.3V167.2z"/>
	<path class="st0" d="M407.2,119.7c-11.5,0-21.3,9.5-21.3,27.8c0,18.8,9.8,32.1,24.1,32.1c11.7,0,21.3-9.1,21.3-27.2
		C431.3,131.3,421.2,119.7,407.2,119.7 M440.8,148.7c0,20.3-14.1,34-32.8,34c-18.4,0-31.5-14.1-31.5-32.5
		c0-16.4,11.5-33.8,33.2-33.8C426.6,116.5,440.8,129.5,440.8,148.7"/>
	<path class="st0" d="M475.1,120.2l-3,0.4c-4.4,0.6-5,1.5-3.6,5.8l13.2,41.5h0.2l15.6-48.9h2.4l17.6,48.9h0.2
		c4-12.3,9.6-32.9,11.3-39.9c1.4-5.7,0.9-6.8-3.5-7.3l-2.8-0.4v-2.3h20.7v2.3c-6.4,0.8-7.1,1.2-10.3,10c-0.9,2.4-8,24.9-16.2,51.7
		h-2.6l-17.5-47.7l-0.2,0.2l-15.9,47.5h-2.7l-16.9-52.4c-2.6-8.1-4.1-8.8-9.7-9.4v-2.3h23.9V120.2z"/>
	<path class="st0" d="M614.3,182h-2.5l-42.3-51.4h-0.2v24.9c0,10.2,0.4,15.5,0.8,18.5c0.5,3.4,3.1,4.8,9.6,5.1v2.3h-23.4v-2.3
		c5.4-0.2,7.9-1.7,8.4-5.1c0.4-3,0.8-8.3,0.8-18.5v-21.2c0-7-0.1-8.6-1.9-10.8c-1.9-2.3-4.5-3-8.6-3.3v-2.3h14.2l41.1,49.2h0.2
		v-23.3c0-10.2-0.4-15.5-0.8-18.5c-0.5-3.4-3.1-4.8-9.6-5.1v-2.3h23.4v2.3c-5.4,0.2-7.9,1.7-8.4,5.1c-0.4,3-0.8,8.3-0.8,18.5V182z"
		/>
</g>
<g id="Shield_Reverse">
	<g>
		<path class="st0" d="M74,253.5c0,0,0.6-1.3,2.9-1.3c2.9,0.1,5.8,0.9,8,1.3c1,0.2,2,0.2,2.7,0.1v28.2c0,0-0.4,0.3-1.4,0.4
			c-0.5,0.1-1.4,0.1-2.3,0c-0.6-0.1-1.3-0.2-2.1-0.4c-5.4-1.6-7.9,0.2-7.9,0.2l2.5-2.6L74,282V253.5z M56,281.9v-28.2v0.1
			c2.4,0.4,6.5-1.4,10.8-1.5c2.3-0.1,2.9,1.3,2.9,1.3l0,0V282l-0.5-0.2c0,0-2-1.4-7.4,0.1c-0.2,0-0.3,0.1-0.5,0.1
			C58.2,282.7,56.1,281.9,56,281.9 M37.6,151.1v86.8c0,28.6,7.2,48.5,22.5,62.5c15.3,13.9,38.1,20.9,60.3,26.1
			c22.9-5.4,45-12.1,60.3-26.1s22.5-33.9,22.5-62.5v-86.8C203.2,151.1,37.6,151.1,37.6,151.1z M146,167.2h4.1v-6
			c4.2,1,11.1-1.3,14.1-1.3c3.5,0,5.1,1.5,5.1,1.5s1.8-1.5,5.1-1.5c3,0,9.9,2.3,14.1,1.3v6h4.1v32.7h-19.3v2.4h-8.1v-2.4h-19.3
			v-32.7H146z M48.3,167h4.1v-5.9c4.2,1,11.3-1.2,14.3-1.2c3.3,0,5.1,1.5,5.1,1.5s1.8-1.5,5.1-1.5c3,0,9.8,2.3,14,1.3v5.9h4.4v32.8
			H75.9v2.4H68v-2.4l-19.5-0.1V167H48.3z M95.2,288.6H75.8v2.5l-8-0.1v-2.4H49.9l-1.5-2.4v-30.3h4.2v-6c4.2,1,11.1-1.3,14.1-1.3
			c3.5,0,5.1,1.5,5.1,1.5s1.8-1.5,5.1-1.5c3,0,9.9,2.3,14.1,1.3v6.1l4.2-0.1v32.7H95.2z M190.7,288.5h-17.4v2.4h-8.1v-2.4h-19.4
			v-32.7h4.2v-6c4.2,1,11.1-1.3,14.1-1.3c3.5,0,5.1,1.5,5.1,1.5s1.8-1.5,5.1-1.5c3,0,9.9,2.3,14.1,1.3v6h4.2v29.4L190.7,288.5z
			 M201.2,239.5h-66.5v81.1l-14.4,3.8l-14.4-3.8v-81H39.5v-26.4h66.5v-60.1h28.9v60.1h66.4V239.5z M166.7,193.3c0,0-2.4-1.7-7.8-0.1
			c-4.2,1.3-5.8,0-5.8,0V165c2.4,0.4,6.6-1.3,10.8-1.4c2.3-0.1,2.9,1.3,2.9,1.3v28.4H166.7z M171,193.3v-28.4c0,0,0.6-1.3,2.9-1.3
			c4.2,0.1,8.4,1.8,10.8,1.4v28.2c0,0-1.6,1.2-5.8,0C173.4,191.6,171,193.3,171,193.3z M69.7,193.3c0,0-2.4-1.7-7.9-0.1
			c-4.3,1.3-5.8,0-5.8,0V165c2.4,0.4,6.6-1.3,10.9-1.4c2.3-0.1,2.9,1.3,2.9,1.3v28.4H69.7z M74,193.5v-28.6c0,0,0.6-1.3,2.8-1.3
			c4.2,0.1,8.5,1.6,10.9,1.1v28.4c0,0-1.8,1-6-0.1C76.3,191.5,74,193.5,74,193.5z M171.5,253.4c0,0,0.6-1.3,2.9-1.3
			c2.9,0.1,5.8,0.9,8,1.3c1,0.2,2,0.2,2.7,0.1v28.2c0,0-0.4,0.3-1.4,0.4c-0.5,0.1-1.4,0.1-2.3,0c-0.6-0.1-1.4-0.2-2.1-0.4
			c-5.4-1.6-7.9,0.1-7.9,0.1V253.4z M167.3,281.9L167.3,281.9c-0.1-0.1-2.4-1.7-7.9-0.1c-0.2,0-0.3,0.1-0.5,0.1
			c-3.1,0.7-4.6,0.2-5.1,0l-0.2-0.1v-28.2h0.1c2.4,0.4,6.5-1.3,10.7-1.4c2.3-0.1,2.9,1.3,2.9,1.3v28.4H167.3z"/>
		<g>
			<path class="st0" d="M94.8,66.6c0.3,0.5,0.7,1.3,1.4,2.3c1.6,2.7,4.1,12.8,7.3,16.1c1.7-1.2,4.7-2.7,6.4-3.2
				c-0.4-0.6-2.2-3.8-4.2-6.4c-3.9-5.1-6.7-7.9-6.9-8.4C97.7,67,95.9,67,94.8,66.6"/>
			<path class="st0" d="M123.8,80.1c0.7-5.3-0.9-14-2-16.2c-1.4-0.3-2.6-0.8-3.8-1.4c-0.1,0.6-1.2,4.3-1.5,9.5
				c-0.2,2.8-0.1,7.1,0.4,8.1C118.6,79.9,121.4,79.9,123.8,80.1"/>
			<path class="st0" d="M148.8,111.3c0-15.9-12.3-28.3-28.2-28.3c-15.6,0-28.2,12.7-28.2,28.3c0,0.7,0.2,2.2,0.4,3.8
				c8.2-1.9,18.8-1.6,23.6,2.3c7.5-4.3,18.9-4.4,27.1,0c3.2-1.7,4.6-2,5-2.1C148.7,114,148.8,112,148.8,111.3 M114.4,101.5
				c-0.1,1.8-1.7,3.2-3.5,3.1s-3.2-1.7-3.1-3.5v-0.3c-0.3-0.4-1.8-0.9-4,0.4c-1.2,0.7-2.3,0.2-0.4-1.5c2-1.8,4-2.8,5.6-3h0.1
				c2.8-0.2,6.6,0.4,8.4,1.2c0.7,0.3,0,3.9-0.2,3.9c-0.6-0.1-1.9-0.6-2.9-0.4V101.5z M123.8,111.5c-0.6,1.7-6.5,2.2-7.6,0
				c-0.4-0.8-1-3.1-0.2-2.6c1.4,0.7,6.1,0.2,7,0c0.8-0.2,0.3-1.4,0.7-1.1C124.3,107.8,124.3,109.8,123.8,111.5 M137.7,102.1
				c-1.5-1.3-3.5-1.8-4.2-1.3v0.2c0.1,1.8-1.2,3.4-3,3.6c-1.8,0.2-3.4-1.1-3.6-3v-0.1c-1.2-0.4-3,0.3-3.3,0.2
				c-0.1-0.1-0.9-3.4,0.1-3.9c2.8-1.1,11.9-1.8,14.6,3.5C138.8,101.9,138.6,102.8,137.7,102.1"/>
			<path class="st0" d="M139.5,66.3c-3.3,2.8-8.4,9.6-9,15.2c1.6,0.6,5.6,2.6,6.3,3c4.1-4.1,3.2-8.5,4.8-11.9
				c0.7-1.5,1.4-2.6,1.8-3.3C141.9,68.5,140.6,67.6,139.5,66.3"/>
			<path class="st0" d="M159.3,77.2c-0.7,0.4-2.4,1.5-3,1.9c-3.9,2.9-12.4,6.9-14.3,9.1c1.6,1.4,3.9,3.9,4.9,6
				c0.9,0,3.7-2.2,9.1-8.7c1.8-2.1,3.6-3.1,6.9-5C161.5,79.6,160.3,78.4,159.3,77.2"/>
			<path class="st0" d="M90.9,100.9c-1.9-1.8-5.4-3.3-10.2-3c-9.7,0.7-16.1,0.1-19.8-0.4c-6.3-0.9-10.1,0-13.3,0
				c-9.5,0,0.3,0.8,1.4,1.3c4.5,1.8,13.6,4.1,20.7,3.6c3.5-0.2,9.3,1.9,10.4,2.2c2.6,0.9,7.2,2.4,9.7,2.4
				C89.8,105.7,90.4,102.4,90.9,100.9"/>
			<path class="st0" d="M98.7,88.9c-4.9-4-9.4-4.8-16.5-8.2c-1.7-0.7-4.4-2.6-4.5-2.7c-0.2-0.1-0.5-0.3-0.9-0.6
				c-0.4,1.4-1.3,3.1-2.1,4.2C75.8,83,83.8,92.2,94,95C95.2,93.2,97,90.9,98.7,88.9"/>
			<path class="st0" d="M201.3,96c-0.5-0.1-2.3-0.3-3.5-0.3c-1.6,0-11.7,0.1-14.4,0.5c-5.6,0.9-16.6,0.4-22.6,0.2
				c-4.5-0.2-9.6,1.6-11.2,2.4c0,0,1.8,4.4,1.9,7.3c1.9,0.3,3.8-2.1,9.2-2c5.6,0.1,19.7-0.6,26.7-3.5c5.2-2.1,9.7-3.1,13.3-3.9
				C201.8,96.6,203.7,96.4,201.3,96"/>
			<path class="st0" d="M66.3,57.4c-4.2,0.9-8.6,2-9.9,8.7"/>
			<path class="st0" d="M54.9,60.1c-0.5-0.3-0.8-0.5-0.9-0.6c-8.2-5.4-4.4,1.6-1.3,4.6C52.7,64.1,52.8,61.7,54.9,60.1"/>
			<path class="st0" d="M85.7,41.1c-1-1.4-2.5-3-4.6-4.9c-1.5-1.3-2.6-0.6-1.8,1.9c0.3,0.9,0.6,1.8,0.8,2.6
				C80.2,40.7,82.6,40.4,85.7,41.1"/>
			<path class="st0" d="M122.6,33.2c-0.3-2.4-0.6-4.5-0.9-5.6c-0.9-2.9-2-0.6-2.2,0.3c-0.2,1.3-0.5,2.9-0.8,4.9
				C118.7,32.7,121.3,34.2,122.6,33.2"/>
			<path class="st0" d="M156.8,43.2c0.2-0.5,0.4-1,0.6-1.5c1.8-3.7,0.8-4.6-1-2.9c-2.1,1.9-3.3,3.1-4.4,4.2c0,0,0.3,1.4,1.5,1.8
				c1,0.4,2.6,0,2.6,0S156.4,44.1,156.8,43.2"/>
			<path class="st0" d="M191.4,57.8c0.6-0.8,1.6-1.9,2-2.3c0.5-0.6,2.2-3.4-2.4-1.2c-0.2,0.1-0.9,0.5-1.6,0.8
				C189.5,55.3,191.2,56.5,191.4,57.8"/>
			<path class="st0" d="M74.8,67.6c0.4-0.4,1-0.3,1.7-0.1c4.8,1.6,11.6,0.5,14.8-4.6c0.4-0.7,1.4-0.9,2.1-0.6c3.3,1.4,10,2,18.3-6.5
				c0.6-0.6,1.7-0.5,2.3,0c7.2,5.9,14.8,6.2,22.5,1c0.5-0.3,1-0.7,1.6-0.5c0.5,0.2,0.9,0.7,1,1.3c2.4,11.4,14.2,10.4,17.8,9.8
				c0.4-0.1,0.9,0,1.3,0.3c0.4,0.3,0.6,0.7,0.7,1.1c0.4,2.6,3.3,7.8,8.4,10.5c4.4,2.2,9.1,2.1,14.1-0.5c0.5-0.2,1.2-0.2,1.6,0
				c6.4,3.4,12.2,3.7,15.8,0.5c2.6-2.2,3.7-5.8,2.6-8.8c-1.2-3.4-4.6-5.6-9.4-5.9c-0.8,0-1.5-0.6-1.6-1.5c-0.4-2.7-2-5-4.4-6.6
				c-3.8-2.3-9.3-2.6-14.8-0.7c-0.5,0.2-1,0.1-1.5-0.2c-0.4-0.3-0.7-0.7-0.8-1.3c-0.3-2.1-1.3-5-3.9-6.7c-2.8-1.7-7-1.7-12.2,0.1
				c-0.8,0.3-1.7-0.1-2.1-0.8c-3.3-6.5-8-10.7-13.6-12.1c-4.9-1.4-10.5-0.3-15.2,2.6c-0.6,0.4-1.4,0.4-2-0.1
				c-4.7-3.6-10.2-4.7-15.4-3.1c-4.9,1.6-8.8,5.4-10.7,11c-0.1,0.4-0.5,0.8-0.9,1c-0.4,0.2-0.9,0.2-1.4,0c-7.6-3-13.8-3-18,0.2
				c-3.6,2.7-4.7,7.1-4.5,8.4c0.1,0.8-0.4,1.7-1.3,1.9L66,57.1c-4.2,0.9-8.6,2-9.9,8.7c-0.1,0.7-0.7,1.4-1.6,1.4
				c-7,1.2-11.7,3.9-12.8,7.8c-0.7,2.8,0.6,6.1,3.1,7.8c2.6,1.8,5.8,1.6,8.6-0.5c0.5-0.3,1-0.4,1.7-0.2c4.3,1.7,11.3,1.4,15.5-2.1
				c3-2.5,4.3-6.2,3.6-10.9C74.2,68.6,74.4,68,74.8,67.6 M190.8,68.1c4.4-1,9.5,2.2,8.1,8c-0.2,1-2.7,1-2.6,0
				c0.4-4.9-2.1-5.3-5.2-5.2C189.8,70.9,189.9,68.3,190.8,68.1 M172.2,59.4c4.2-2.4,12.9-2,15.6,5.8c0.4,1.4-1.3,3.6-2.4,1.6
				c-3.2-6-8.5-6-12.9-4.3C171.5,62.7,170.7,60.2,172.2,59.4 M154,50.4c3.9-1.4,10.6-2,12.3,4.6c0.5,1.9-1.8,2.7-2.2,1.5
				c-1.8-4.8-5.2-4.6-9.3-3.2C153,53.8,153.4,50.6,154,50.4 M122,43c2.8-4.6,17.6-8.9,25.2,4.2c0.8,1.5-0.3,2.3-1.2,2.8
				c-0.6,0.4-0.9-0.5-1.4-1.2c-6.5-10.2-18.1-7.5-21.2-2.8C122.9,47,121.2,44.3,122,43 M98.2,43.7c2.6-4.2,11.5-10.5,19.3-3.4
				c0.8,0.7-0.2,3.7-1.2,3c-7.2-5-12.9-0.9-15.9,2.6C99.2,47.6,97.6,44.8,98.2,43.7 M55.7,72.7c-3,0-5.4,0.1-7.5,2.4
				c-2.3,2.5-1.7,3.9-2.1,4.3c-0.6,0.6-2.2-0.4-2.2-1.7c0.1-5.9,7.1-8.1,11.3-7.6C56.6,70.2,57,72.7,55.7,72.7 M67.9,62.8
				c-4.4,0.5-5.8,2.6-6.5,5.1c-0.3,0.9-2.8,0.3-2.4-1.6c1.1-5.4,7.1-6.8,9.2-6.4C68.9,60.2,68.7,62.8,67.9,62.8 M71.7,57
				c0.9-4.8,5.6-11.8,16.3-9.1c1.4,0.3,0.5,3.7-0.8,3.1c-7.8-3.1-11.8,2.9-13.1,7.6C74,59.2,71.3,59,71.7,57"/>
		</g>
		<path class="st0" d="M161.8,135.2c-2.1-2.5-3.5-5.9-5.9-7.3c-1.2-0.6-2-2-0.4-2.8c1.6-0.4,2.9,0.9,4.8,3.5c0.5,0.6,1,1.3,1.6,2
			c2.7,3,3,6.3,5.5,6.3c3.2,0.2,6.4-0.6,8.6-1.9c6.8,3,19.4,1.7,22.6-0.4c6-4.1,2.3-12.8-3.7-15.9c-12.2-5.9-23.1-1-26.1,0.3
			c-2.7-1.9-7.3-2.7-13.1-2.6c-6.4,0.4-9.3,1.4-13.5,3.5c-7.6-4.5-18.2-4.3-25.8,0c-3-2.4-8.9-3.3-14.6-3.1c-4.8,0.2-9.3,0.9-12,2.7
			c-3.3-2.4-14.5-6.7-27.7-1.3c-2.8-0.9-8.7-4.2-16.7-1.6c-9.7,3.2-8.4,12.1-5.2,16.3c4.4,5.8,12.5,4.8,15.2,1.9
			c-0.6-1.6-1.9-2.8-3.1-4.4c-1-1.4-2.2-2.5-2.8-2.7c-2.2,0-1.5-2.4-0.6-2.6c2.5-0.9,5.6,3.4,8.7,7c1.6,1.9,2.4,4.9,4.5,4.9
			c4.6-0.1,6.6-1.5,8.3-2.3c2.7,1.6,15.4,4.1,25.1,0.1c1.4,0.9,6.7,3.8,13.5,0.3c-2.6-2.8-4-5.8-6.5-7.6c-1.7-0.8-1.4-2.4-0.5-2.7
			c1.8-0.5,3.6,1.4,5.2,3.6c0.9,1.3,2,2.7,2.9,3.8c1.9,2.2,3.5,4.8,5.2,4.8c3.9,0.1,5.9-0.9,7.5-2.2c1.2,0.8,2.5,1.5,5,1.9
			c1.8,0.3,4,0.5,7.5,0.5c4.5-0.1,7.8-0.4,10-1c1.4-0.4,2.4-1.2,3-1.6C148.2,134.3,154.6,138.2,161.8,135.2z M72.5,132.2
			c-3.7-1.6-6.4-9.8-7.5-11c-0.4-0.4,6.2-2.8,13.2-2.3c11.9,0.8,12.1,8.5,15,12C94.1,132.2,83.5,135.2,72.5,132.2z M125.9,132.7
			c-3.7-1.6-6.4-9.9-7.4-11c-0.4-0.4,6.4-2.8,13.4-2.3c11.8,1,11.9,8.4,14.7,12C147.7,132.8,136.8,135.7,125.9,132.7z M198.6,130.3
			c-1,2.2-8.4,5-19.3,2c-3.7-1.6-6.4-9.9-7.5-11c-0.4-0.4,6.3-2.8,13.2-2.3C196.8,119.8,199.7,127.8,198.6,130.3z"/>
	</g>
</g>
</svg>
