<svg version="1.1" id="Artwork" xmlns="http://www.w3.org/2000/svg" xmlns:xlink="http://www.w3.org/1999/xlink" x="0px" y="0px"
	 viewBox="0 0 549.4 528.1" style="enable-background:new 0 0 549.4 528.1;" xml:space="preserve">
<style type="text/css">
	.st0{fill:#FFFFFF;}
	.st1{fill:#ED1C24;}
</style>
<g>
	<path d="M195.4,444.9c-0.7,2.4-2.1,6.4-3,8.1c-1.5,0.4-5.9,1.4-9.8,1.4c-13.2,0-19-9.1-19-17.5c0-11.1,8.6-18.5,20.4-18.5
		c4.3,0,7.9,1.2,9.4,1.4c0.4,3,0.7,5.1,1.1,8l-1.6,0.4c-1.4-5.6-4.6-7.9-10.3-7.9c-8.9,0-13.6,7.5-13.6,15.5
		c0,9.9,5.8,16.7,13.9,16.7c5.4,0,8.3-2.9,10.9-8.2L195.4,444.9z"/>
	<path d="M218.3,449.1c-3.3,4.2-7,5.1-8.6,5.1c-6.5,0-10.3-5.3-10.3-11.3c0-3.7,1.3-6.9,3.5-9.3c2.2-2.4,5-3.9,7.8-3.9
		c4.4,0,7.9,3.9,7.9,8.1c0,1.1-0.3,1.5-1.2,1.7c-0.9,0.2-7.5,0.7-13.8,0.9c0.1,7.2,4.2,10.2,7.9,10.2c2.1,0,4.1-0.8,6-2.6
		L218.3,449.1z M203.8,438.3c3,0,5.9-0.1,9-0.2c1,0,1.3-0.3,1.3-1.1c0.1-2.8-1.7-5.3-4.7-5.3C206.9,431.8,204.6,434,203.8,438.3z"/>
	<path d="M236.6,453.6v-1.4c3.1-0.3,3.5-0.7,3.5-4.4V439c0-3.7-1.3-6-4.8-6c-2.1,0-4.2,1.3-5.8,2.7v12.5c0,3.6,0.3,3.8,3.4,4.1v1.4
		h-11.5v-1.4c3.6-0.4,3.9-0.6,3.9-4.1v-11c0-3.4-0.3-3.5-3.2-4.1v-1.2c2.5-0.5,5-1.1,7.4-2.2v4.2c1.1-0.8,2.2-1.6,3.6-2.5
		c1.5-1,2.9-1.6,4.4-1.6c4.2,0,6.8,2.9,6.8,8.1v10.2c0,3.6,0.3,3.8,3.3,4.1v1.4H236.6z"/>
	<path d="M260.1,453.6c-0.9,0.5-1.7,0.7-2.2,0.7c-3.3,0-5.2-2.1-5.2-6.3v-15.4H249l-0.2-0.5l1.4-1.5h2.4v-3.9l3.4-3.5l0.7,0.1v7.3h6
		c0.5,0.5,0.3,1.7-0.3,2.1h-5.7v13.6c0,4.3,1.7,5.1,3.1,5.1c1.3,0,2.5-0.5,3.3-0.9l0.5,1.4L260.1,453.6z"/>
	<path d="M284.7,449.1c-3.3,4.2-7,5.1-8.6,5.1c-6.5,0-10.3-5.3-10.3-11.3c0-3.7,1.3-6.9,3.5-9.3c2.2-2.4,5-3.9,7.8-3.9
		c4.4,0,7.9,3.9,7.9,8.1c0,1.1-0.3,1.5-1.2,1.7c-0.9,0.2-7.5,0.7-13.8,0.9c0.1,7.2,4.2,10.2,7.9,10.2c2.1,0,4.1-0.8,6-2.6
		L284.7,449.1z M270.2,438.3c3,0,5.9-0.1,9-0.2c1,0,1.3-0.3,1.3-1.1c0.1-2.8-1.7-5.3-4.7-5.3C273.3,431.8,270.9,434,270.2,438.3z"/>
	<path d="M296,435.5c1.6-2.6,3.9-5.6,6.4-5.6c1.8,0,3.1,1.4,3.1,2.6c0,1.1-0.7,2.1-1.7,2.6c-0.6,0.3-1.1,0.2-1.4-0.1
		c-0.7-0.8-1.4-1.1-2.2-1.1c-1.4,0-3.1,1.6-4.2,4.6v9.7c0,3.5,0.3,3.8,4.3,4.1v1.4H288v-1.4c3.3-0.3,3.7-0.6,3.7-4.1v-11
		c0-3.5-0.3-3.7-3.3-4.1v-1.2c2.6-0.4,4.9-1.1,7.5-2.2v5.8H296z"/>
	<path d="M323.3,430.5v-1.2c0-1.6,0.2-3.2,0.6-4.3s1.2-3.8,4.1-6.2c1.9-1.6,3.8-2.6,5.8-2.9c1.8,0.1,3.3,0.8,4.2,1.8
		c0.5,0.6,0.5,1.3,0.3,1.9c-0.2,0.4-0.5,0.8-1,1.3c-0.5,0.4-1,0.4-1.4-0.2c-1.1-1-2.5-2-4.3-2c-1.4,0-2.2,0.6-2.8,1.6
		c-0.7,1-1.3,3.6-1.2,8.1v2.1h6.3c0.3,0.5,0.1,1.7-0.5,2.1h-5.7v15.3c0,3.9,0.4,4.1,4.6,4.5v1.3h-12.5v-1.4c3.4-0.3,3.8-0.6,3.8-4.1
		v-15.6h-3.7l-0.2-0.5l1.4-1.5H323.3z"/>
	<path d="M358.2,441.7c0,8.5-6.3,12.6-11.5,12.6c-7.3,0-11.6-5.8-11.6-11.7c0-8.7,6.8-12.7,11.6-12.7
		C353.3,429.8,358.2,435.1,358.2,441.7z M340.1,440.9c0,6.7,2.9,11.7,7.3,11.7c3.3,0,6-2.4,6-9.7c0-6.2-2.5-11.2-7.1-11.2
		C342.9,431.6,340.1,434.9,340.1,440.9z"/>
	<path d="M369.3,435.5c1.6-2.6,3.9-5.6,6.4-5.6c1.8,0,3.1,1.4,3.1,2.6c0,1.1-0.7,2.1-1.7,2.6c-0.6,0.3-1.1,0.2-1.4-0.1
		c-0.7-0.8-1.4-1.1-2.2-1.1c-1.4,0-3.1,1.6-4.2,4.6v9.7c0,3.5,0.3,3.8,4.3,4.1v1.4h-12.2v-1.4c3.3-0.3,3.7-0.6,3.7-4.1v-11
		c0-3.5-0.3-3.7-3.3-4.1v-1.2c2.6-0.4,4.9-1.1,7.5-2.2v5.8H369.3z"/>
	<path d="M41.7,493.1c5.2,0.8,9.4,3.1,9.4,8.4c0,3.6-2,6.3-5.1,8c-2.7,1.5-6.2,2.1-10.4,2.1H23.9v-1.5c4.6-0.3,4.9-0.6,4.9-5.1
		v-21.4c0-4.4-0.2-4.7-4.5-5v-1.5h13.6c4,0,6.3,0.6,7.9,1.8c1.9,1.3,3,3.6,3,6c0,5-4.2,7.1-7.2,7.9V493.1z M35.7,492.4
		c5.8,0,8.3-2.3,8.3-6.8c0-3.6-2-6.8-7-6.8c-1.3,0-2.5,0.2-3,0.5c-0.5,0.3-0.7,0.9-0.7,2.7v10.4H35.7z M33.2,505
		c0,3.8,1,4.8,4.4,4.8c4.3-0.1,8.2-2.3,8.2-7.8c0-5.5-3.7-7.8-10.2-7.8h-2.4V505z"/>
	<path d="M54.4,511.6v-1.4c3.3-0.3,3.7-0.6,3.7-4.2v-10.9c0-3.3-0.2-3.5-3.3-4v-1.3c2.7-0.4,5.2-1.1,7.5-2.1V506
		c0,3.6,0.4,3.9,3.8,4.2v1.4H54.4z M57.2,480.5c0-1.6,1.3-2.8,2.7-2.8c1.5,0,2.6,1.2,2.6,2.8c0,1.4-1.2,2.7-2.7,2.7
		C58.5,483.2,57.2,482,57.2,480.5z"/>
	<path d="M92,499.7c0,8.5-6.3,12.6-11.5,12.6c-7.3,0-11.6-5.8-11.6-11.7c0-8.7,6.8-12.7,11.6-12.7C87,487.8,92,493.1,92,499.7z
		 M73.8,498.9c0,6.7,2.9,11.7,7.3,11.7c3.3,0,6-2.4,6-9.7c0-6.2-2.5-11.2-7.1-11.2C76.6,489.6,73.8,492.9,73.8,498.9z"/>
	<path d="M124.2,511.6v-1.4c3.1-0.3,3.7-0.5,3.7-4.3v-8.9c0-3.8-1.3-6.1-4.7-6.1c-1.9,0-3.9,1.1-5.9,2.8c0.1,0.6,0.2,1.2,0.2,2.2
		v10.3c0,3.3,0.5,3.7,3.4,4v1.4h-11.3v-1.4c3.3-0.3,3.8-0.6,3.8-4.1v-9.1c0-3.9-1.4-6.1-4.6-6.1c-2.1,0-4.2,1.4-5.8,2.8v12.5
		c0,3.4,0.4,3.8,3,4.1v1.4H94.7v-1.4c3.5-0.3,4-0.6,4-4.1v-11c0-3.4-0.2-3.7-3.2-4.1v-1.2c2.3-0.4,5-1.1,7.4-2.2v4.3
		c1.1-0.7,2.3-1.7,3.9-2.7c1.4-0.8,2.6-1.4,4.3-1.4c2.5,0,4.8,1.6,5.9,4.3c1.5-1.2,3.1-2.2,4.4-3c1.1-0.7,2.5-1.4,4-1.4
		c4.1,0,6.7,2.9,6.7,8.1v10.2c0,3.5,0.4,3.8,3.4,4.1v1.4H124.2z"/>
	<path d="M157.4,507.1c-3.3,4.2-7,5.1-8.6,5.1c-6.5,0-10.3-5.3-10.3-11.3c0-3.7,1.3-6.9,3.5-9.3c2.2-2.4,5-3.9,7.8-3.9
		c4.4,0,7.9,3.9,7.9,8.1c0,1.1-0.3,1.5-1.2,1.7c-0.9,0.2-7.5,0.7-13.8,0.9c0.1,7.2,4.2,10.2,7.9,10.2c2.1,0,4.1-0.8,6-2.6
		L157.4,507.1z M142.9,496.3c3,0,5.9-0.1,9-0.2c1,0,1.3-0.3,1.3-1.1c0.1-2.8-1.7-5.3-4.7-5.3C146,489.8,143.7,492,142.9,496.3z"/>
	<path d="M186.7,510.3c-1.2,0.2-5.1,0.9-8.2,2v-3.4l-3.2,1.9c-2.1,1.2-3.5,1.5-4.1,1.5c-4.2,0-9.8-3.9-9.8-11.3
		c0-7.4,6.5-13.1,13.7-13.1c0.7,0,2.3,0.2,3.5,0.6v-7.5c0-3.5-0.3-3.7-4.1-3.9v-1.3c2.8-0.4,6.3-1.2,8.3-1.9v31.6
		c0,2.8,0.4,3,2.3,3.2l1.7,0.2V510.3z M178.4,492.5c-1.3-1.9-3.4-2.7-5.5-2.7c-2.4,0-6.9,2.1-6.9,9.8c0,6.3,3.9,9.4,7.3,9.4
		c1.9,0,3.8-0.8,5.1-1.8V492.5z"/>
	<path d="M188.9,511.6v-1.4c3.3-0.3,3.7-0.6,3.7-4.2v-10.9c0-3.3-0.2-3.5-3.3-4v-1.3c2.7-0.4,5.2-1.1,7.5-2.1V506
		c0,3.6,0.4,3.9,3.8,4.2v1.4H188.9z M191.8,480.5c0-1.6,1.3-2.8,2.7-2.8c1.5,0,2.6,1.2,2.6,2.8c0,1.4-1.2,2.7-2.7,2.7
		C193,483.2,191.8,482,191.8,480.5z"/>
	<path d="M223.1,506.9c-2.3,3.1-5.9,5.4-9,5.4c-6.7,0-10.6-5.4-10.6-11.1c0-4.1,1.7-7.6,5.3-10.4c2.8-2.1,5.9-3,8-3
		c2.1,0,3.9,0.7,4.7,1.4c0.7,0.6,0.8,1.1,0.8,1.6c0,1.1-1.2,2.3-1.7,2.3c-0.3,0-0.5-0.2-1-0.6c-1.6-1.5-3.4-2.2-5.3-2.2
		c-3.5,0-6.6,2.9-6.6,8.5c0,7.4,5,9.8,8,9.8c2.3,0,4-0.6,6.5-2.9L223.1,506.9z"/>
	<path d="M242.5,512.3c-0.8,0-1.9-0.5-2.5-1c-0.7-0.7-1-1.5-1.3-2.4c-2.1,1.4-4.7,3.4-6.3,3.4c-3.8,0-6.4-3.1-6.4-6.5
		c0-2.6,1.4-4.2,4.3-5.2c3.2-1.1,7-2.5,8.2-3.4v-1c0-3.8-1.8-6-4.5-6c-1.1,0-1.9,0.4-2.4,1.1c-0.7,0.7-1.2,1.9-1.6,3.5
		c-0.2,0.8-0.8,1.2-1.5,1.2c-1,0-2.3-1.1-2.3-2.3c0-0.8,0.7-1.4,1.7-2.1c1.5-1.1,4.9-3.1,7.9-3.7c1.6,0,3.2,0.5,4.3,1.4
		c1.9,1.5,2.4,3.7,2.4,6.5v9.9c0,2.4,1,3.2,1.9,3.2c0.6,0,1.4-0.3,1.9-0.6l0.5,1.4L242.5,512.3z M238.6,498.9
		c-1.1,0.6-3.7,1.7-4.8,2.2c-2.1,1-3.2,2-3.2,3.9c0,2.8,2.1,4.1,3.8,4.1c1.4-0.1,3.2-1,4.2-1.9V498.9z"/>
	<path d="M248.4,511.6v-1.4c3.3-0.3,3.8-0.6,3.8-4.1v-25.1c0-3.6-0.3-3.8-3.7-4v-1.3c2.8-0.3,6-1.2,7.8-1.9v32.2
		c0,3.5,0.4,3.8,3.8,4.1v1.4H248.4z"/>
	<path d="M275,511.6v-1.5c4.3-0.3,4.8-0.6,4.8-5.1v-21.2c0-4.5-0.4-4.8-4.8-5.1v-1.5h14v1.5c-4.3,0.3-4.8,0.6-4.8,5.1V505
		c0,4.6,0.4,4.8,4.8,5.1v1.5H275z"/>
	<path d="M306.9,511.6v-1.4c3.1-0.3,3.5-0.7,3.5-4.4V497c0-3.7-1.3-6-4.8-6c-2.1,0-4.2,1.3-5.8,2.7v12.5c0,3.6,0.3,3.8,3.4,4.1v1.4
		h-11.5v-1.4c3.6-0.4,3.9-0.6,3.9-4.1v-11c0-3.4-0.3-3.5-3.2-4.1v-1.2c2.5-0.5,5-1.1,7.4-2.2v4.2c1.1-0.8,2.2-1.6,3.6-2.5
		c1.5-1,2.9-1.6,4.4-1.6c4.2,0,6.8,2.9,6.8,8.1v10.2c0,3.6,0.3,3.8,3.3,4.1v1.4H306.9z"/>
	<path d="M324.6,488.5v-1.2c0-1.6,0.2-3.2,0.6-4.3s1.2-3.8,4.1-6.2c1.9-1.6,3.8-2.6,5.8-2.9c1.8,0.1,3.3,0.8,4.2,1.8
		c0.5,0.6,0.5,1.3,0.3,1.9c-0.2,0.4-0.5,0.8-1,1.3c-0.5,0.4-1,0.4-1.4-0.2c-1.1-1-2.5-2-4.3-2c-1.4,0-2.2,0.6-2.8,1.6
		c-0.7,1-1.3,3.6-1.2,8.1v2.1h6.3c0.3,0.5,0.1,1.7-0.5,2.1h-5.7v15.3c0,3.9,0.4,4.1,4.6,4.5v1.3h-12.5v-1.4c3.4-0.3,3.8-0.6,3.8-4.1
		v-15.6h-3.7l-0.2-0.5l1.4-1.5H324.6z"/>
	<path d="M359.5,499.7c0,8.5-6.3,12.6-11.5,12.6c-7.3,0-11.6-5.8-11.6-11.7c0-8.7,6.8-12.7,11.6-12.7
		C354.6,487.8,359.5,493.1,359.5,499.7z M341.3,498.9c0,6.7,2.9,11.7,7.3,11.7c3.3,0,6-2.4,6-9.7c0-6.2-2.5-11.2-7.1-11.2
		C344.2,489.6,341.3,492.9,341.3,498.9z"/>
	<path d="M370.5,493.5c1.6-2.6,3.9-5.6,6.4-5.6c1.8,0,3.1,1.4,3.1,2.6c0,1.1-0.7,2.1-1.7,2.6c-0.6,0.3-1.1,0.2-1.4-0.1
		c-0.7-0.8-1.4-1.1-2.2-1.1c-1.4,0-3.1,1.6-4.2,4.6v9.7c0,3.5,0.3,3.8,4.3,4.1v1.4h-12.2v-1.4c3.3-0.3,3.7-0.6,3.7-4.1v-11
		c0-3.5-0.3-3.7-3.3-4.1v-1.2c2.6-0.4,4.9-1.1,7.5-2.2v5.8H370.5z"/>
	<path d="M411.7,511.6v-1.4c3.1-0.3,3.7-0.5,3.7-4.3v-8.9c0-3.8-1.3-6.1-4.7-6.1c-1.9,0-3.9,1.1-5.9,2.8c0.1,0.6,0.2,1.2,0.2,2.2
		v10.3c0,3.3,0.5,3.7,3.4,4v1.4H397v-1.4c3.3-0.3,3.8-0.6,3.8-4.1v-9.1c0-3.9-1.4-6.1-4.6-6.1c-2.1,0-4.2,1.4-5.8,2.8v12.5
		c0,3.4,0.4,3.8,3,4.1v1.4h-11.2v-1.4c3.5-0.3,4-0.6,4-4.1v-11c0-3.4-0.2-3.7-3.2-4.1v-1.2c2.3-0.4,5-1.1,7.4-2.2v4.3
		c1.1-0.7,2.3-1.7,3.9-2.7c1.4-0.8,2.6-1.4,4.3-1.4c2.5,0,4.8,1.6,5.9,4.3c1.5-1.2,3.1-2.2,4.4-3c1.1-0.7,2.5-1.4,4-1.4
		c4.1,0,6.7,2.9,6.7,8.1v10.2c0,3.5,0.4,3.8,3.4,4.1v1.4H411.7z"/>
	<path d="M442.5,512.3c-0.8,0-1.9-0.5-2.5-1c-0.7-0.7-1-1.5-1.3-2.4c-2.1,1.4-4.7,3.4-6.3,3.4c-3.8,0-6.4-3.1-6.4-6.5
		c0-2.6,1.4-4.2,4.3-5.2c3.2-1.1,7-2.5,8.2-3.4v-1c0-3.8-1.8-6-4.5-6c-1.1,0-1.9,0.4-2.4,1.1c-0.7,0.7-1.2,1.9-1.6,3.5
		c-0.2,0.8-0.8,1.2-1.5,1.2c-1,0-2.3-1.1-2.3-2.3c0-0.8,0.7-1.4,1.7-2.1c1.5-1.1,4.9-3.1,7.9-3.7c1.6,0,3.2,0.5,4.3,1.4
		c1.9,1.5,2.4,3.7,2.4,6.5v9.9c0,2.4,1,3.2,1.9,3.2c0.6,0,1.4-0.3,1.9-0.6l0.5,1.4L442.5,512.3z M438.6,498.9
		c-1.1,0.6-3.7,1.7-4.8,2.2c-2.1,1-3.2,2-3.2,3.9c0,2.8,2.1,4.1,3.8,4.1c1.4-0.1,3.2-1,4.2-1.9V498.9z"/>
	<path d="M458.5,511.6c-0.9,0.5-1.7,0.7-2.2,0.7c-3.3,0-5.2-2.1-5.2-6.3v-15.4h-3.7l-0.2-0.5l1.4-1.5h2.4v-3.9l3.4-3.5l0.7,0.1v7.3
		h6c0.5,0.5,0.3,1.7-0.3,2.1h-5.7v13.6c0,4.3,1.7,5.1,3.1,5.1c1.3,0,2.5-0.5,3.3-0.9l0.5,1.4L458.5,511.6z"/>
	<path d="M464.4,511.6v-1.4c3.3-0.3,3.7-0.6,3.7-4.2v-10.9c0-3.3-0.2-3.5-3.3-4v-1.3c2.7-0.4,5.2-1.1,7.5-2.1V506
		c0,3.6,0.4,3.9,3.8,4.2v1.4H464.4z M467.2,480.5c0-1.6,1.3-2.8,2.7-2.8c1.5,0,2.6,1.2,2.6,2.8c0,1.4-1.2,2.7-2.7,2.7
		C468.5,483.2,467.2,482,467.2,480.5z"/>
	<path d="M498.6,506.9c-2.3,3.1-5.9,5.4-9,5.4c-6.7,0-10.6-5.4-10.6-11.1c0-4.1,1.7-7.6,5.3-10.4c2.8-2.1,5.9-3,8-3
		c2.1,0,3.9,0.7,4.7,1.4c0.7,0.6,0.8,1.1,0.8,1.6c0,1.1-1.2,2.3-1.7,2.3c-0.3,0-0.5-0.2-1-0.6c-1.6-1.5-3.4-2.2-5.3-2.2
		c-3.5,0-6.6,2.9-6.6,8.5c0,7.4,5,9.8,8,9.8c2.3,0,4-0.6,6.5-2.9L498.6,506.9z"/>
	<path d="M514.9,494.7c-1-3.1-2.9-5.2-5.5-5.2c-2,0-3.4,1.6-3.4,3.7c0,2.4,2.1,3.6,4.5,4.6c4,1.6,6.7,3.6,6.7,7.2
		c0,4.8-4.5,7.3-8.7,7.3c-2.7,0-5.1-1-6.1-1.8c-0.4-0.7-0.8-4.3-0.8-6.3l1.4-0.3c1,3.5,3.3,6.6,6.5,6.6c2,0,3.8-1.5,3.8-3.7
		c0-2.3-1.5-3.6-4.2-4.8c-3.2-1.5-6.6-3.2-6.6-7.3c0-3.7,3.2-6.8,8.1-6.8c2.2,0,3.6,0.5,4.7,0.9c0.4,1.2,1,4.3,1.2,5.7L514.9,494.7z
		"/>
</g>
<g>
	<path d="M128.7,360.1v17.4c0,5.4,1,7.2,6.9,7.1c6.7,0,12.4-3.4,12.4-11.8c0-8.7-6.4-12.7-14.6-12.7H128.7z M128.7,357.8h5
		c7.7,0,11.5-3.6,11.5-10.1c0-4.8-2-10.1-11.4-10.1c-2.6,0-3.7,0.2-4.4,0.5c-0.5,0.2-0.7,0.5-0.7,2.1V357.8z M136.5,335.2
		c5.8,0,9,1,11.7,2.8c2.7,1.9,4.1,4.8,4.1,8.8c0,7-6.6,10.5-10.5,11.4v0.2c7.3,1,13.8,5.4,13.8,13.4c0,5.7-2.8,9.7-7.4,12.3
		c-4.1,2.2-9.2,3-15.3,3h-18.4v-1.8c6.7-0.5,7.4-1,7.4-9.7v-28.8c-0.1-8.7-0.6-9.3-6.9-9.7v-1.8H136.5z"/>
	<path d="M183.5,362h4.6c3.3,0,5.8-0.4,8-2.2c3.4-2.7,4.6-6.6,4.6-10.6c0-8.4-6.1-11.7-12.1-11.7c-2.7,0-3.8,0.2-4.5,0.4
		c-0.5,0.2-0.7,0.6-0.7,2.2V362z M183.5,375.5c0,8.7,0.6,9.3,7.2,9.7v1.8h-21.3v-1.8c6.7-0.5,7.4-1,7.4-9.7v-28.8
		c0-8.7-0.6-9.3-7-9.7v-1.8h20.3c5.1,0,9.7,0.7,12.6,2.7c3.2,2,5.3,5.6,5.3,10.2c0,6.6-4.1,11.4-10.6,14c1.4,2.4,4.7,7.9,7.1,11.4
		c2.9,4.2,4.6,6.4,6.7,8.8c1.7,2,3.1,3.3,6,4l-0.2,1.5H216c-9.2-0.2-12-3-15-7.4c-2.5-3.6-5.8-9.5-8.1-13.3c-1.3-2.1-2.5-2.9-5-2.9
		h-4.3V375.5z"/>
	<path d="M251.1,336.6c-9.4,0-17.4,7.8-17.4,22.8c0,15.4,8.1,26.3,19.7,26.3c9.6,0,17.4-7.4,17.4-22.3
		C270.9,346.1,262.6,336.6,251.1,336.6 M278.6,360.4c0,16.6-11.6,27.9-26.9,27.9c-15.1,0-25.8-11.5-25.8-26.6
		c0-13.4,9.4-27.7,27.2-27.7C267,334,278.6,344.7,278.6,360.4"/>
	<path d="M304.8,337l-2.5,0.3c-3.6,0.5-4.1,1.2-3,4.7l10.8,34h0.2l12.8-40.1h1.9l14.5,40h0.2c3.3-10.1,7.9-26.9,9.3-32.7
		c1.1-4.6,0.7-5.6-2.9-6l-2.3-0.3v-1.8h16.9v1.8c-5.3,0.6-5.8,1-8.5,8.2c-0.7,2-6.6,20.4-13.3,42.4h-2.2l-14.4-39.1l-0.2,0.2
		l-13,38.9h-2.2l-13.8-42.9c-2.2-6.6-3.4-7.2-7.9-7.7v-1.8h19.6V337z"/>
	<path d="M418.8,387.7h-2.1l-34.7-42.1h-0.2v20.4c0,8.4,0.3,12.7,0.6,15.2c0.4,2.8,2.6,3.9,7.8,4.2v1.8h-19.2v-1.8
		c4.4-0.2,6.5-1.4,6.9-4.2c0.3-2.5,0.6-6.8,0.6-15.2v-17.3c0-5.8-0.1-7-1.5-8.9c-1.5-1.9-3.7-2.5-7-2.7v-1.8h11.7l33.7,40.3h0.2
		v-19.1c0-8.4-0.3-12.7-0.6-15.2c-0.4-2.8-2.6-3.9-7.8-4.1v-1.8h19.2v1.8c-4.4,0.2-6.5,1.4-6.9,4.1c-0.3,2.5-0.6,6.8-0.6,15.2V387.7
		z"/>
</g>
<g>
	<g>
		<g>
			<g>
				<path class="st0" d="M245.8,64.5c0.3,0.5,0.7,1.2,1.3,2.2c1.5,2.5,3.9,12.2,7,15.3c1.6-1.1,4.5-2.5,6.1-3.1
					c-0.4-0.6-2.1-3.6-4-6.1c-3.7-4.9-6.4-7.5-6.7-8C248.5,64.8,246.8,64.9,245.8,64.5z"/>
				<path class="st0" d="M273.5,77.3c0.7-5-0.9-13.4-1.9-15.5c-1.3-0.3-2.5-0.8-3.6-1.3c-0.1,0.6-1.1,4-1.4,9.1
					c-0.2,2.7-0.1,6.8,0.4,7.7C268.6,77.1,271.2,77.1,273.5,77.3z"/>
				<path class="st0" d="M297.4,106.9c0-15.1-11.8-27-27-27c-14.9,0-27,12.1-27,27c0,0.7,0.2,2.2,0.4,3.6c7.8-1.8,18-1.5,22.6,2.1
					c7.4-4.2,18.1-4.5,25.9,0.1c1.6-0.8,3.2-1.3,4.8-1.8C297.4,109.4,297.4,107.9,297.4,106.9z M264.6,97.7c-0.1,1.7-1.6,3.1-3.3,3
					c-1.7-0.1-3.1-1.6-3-3.3l0-0.3c-0.3-0.4-1.7-0.9-3.8,0.4c-1.1,0.6-2.2,0.2-0.4-1.4c1.9-1.7,3.8-2.7,5.4-2.9l0.1,0
					c2.7-0.2,6.3,0.4,8,1c0.7,0.3,0,3.7-0.2,3.6c-0.6-0.1-1.8-0.6-2.8-0.4L264.6,97.7z M273.6,107.1c-0.6,1.6-6.2,2.1-7.3,0
					c-0.4-0.8-1-3-0.2-2.5c1.3,0.7,5.8,0.2,6.7,0c0.8-0.2,0.3-1.3,0.7-1.1C274.1,103.6,274.1,105.6,273.6,107.1z M286.9,98.2
					c-1.4-1.2-3.3-1.7-4-1.2l0,0.2c0.1,1.7-1.1,3.2-2.9,3.4c-1.7,0.2-3.3-1.1-3.4-2.9v-0.1c-1.1-0.4-2.9,0.3-3.2,0.2
					c-0.1-0.1-0.9-3.3,0.1-3.7c2.7-1.1,11.4-1.6,14,3.3C287.8,98,287.7,98.8,286.9,98.2z"/>
				<path class="st0" d="M288.5,64.2c-3.2,2.7-8,9.2-8.6,14.4c1.5,0.6,5.4,2.5,6,2.9c3.9-3.8,3.1-8.1,4.6-11.4
					c0.7-1.4,1.3-2.5,1.7-3.2C290.9,66.3,289.5,65.3,288.5,64.2z"/>
				<path class="st0" d="M307.5,74.5c-0.7,0.4-2.3,1.4-2.9,1.8c-3.7,2.8-11.9,6.6-13.7,8.7c1.5,1.3,3.7,3.7,4.7,5.7
					c0.9,0,3.5-2.1,8.7-8.2c1.7-2,3.4-3,6.7-4.8C309.6,76.7,308.4,75.6,307.5,74.5z"/>
				<path class="st0" d="M242.1,97.1c-1.8-1.7-5.2-3.2-9.8-2.9c-9.3,0.7-15.4,0.1-18.9-0.4c-6-0.9-9.7,0-12.8,0
					c-9.1,0,0.3,0.8,1.3,1.2c4.3,1.7,13,3.8,19.8,3.3c3.3-0.2,8.9,1.8,9.9,2.1c2.5,0.9,6.9,2.3,9.3,2.3
					C241,101.7,241.6,98.4,242.1,97.1z"/>
				<path class="st0" d="M249.5,85.7c-4.7-3.8-9-4.6-15.8-7.8c-1.6-0.7-4.2-2.5-4.3-2.6c-0.2-0.1-0.5-0.3-0.9-0.6
					c-0.4,1.3-1.2,3-2,4c1.1,1.4,8.7,10.1,18.5,12.8C246.1,89.7,247.8,87.5,249.5,85.7z"/>
				<path class="st0" d="M347.7,92.4c-0.5-0.1-2.2-0.3-3.3-0.3c-1.5,0-11.2,0.1-13.8,0.5c-5.4,0.8-15.9,0.4-21.6,0.2
					c-4.3-0.2-9.2,1.5-10.7,2.3c0,0,1.7,4.1,1.8,6.9c1.8,0.3,3.6-2,8.8-1.9c5.4,0.1,18.8-0.6,25.6-3.3c5.1-2,9.3-2.9,12.7-3.6
					C348.2,93,350,92.8,347.7,92.4z"/>
			</g>
			<path class="st0" d="M226.7,65.4c0.4-0.4,1-0.3,1.6-0.1c4.6,1.5,11.2,0.5,14.2-4.4c0.4-0.7,1.3-0.9,2-0.6
				c3.2,1.3,9.7,1.9,17.6-6.1c0.6-0.6,1.6-0.5,2.2,0c6.9,5.6,14.2,5.9,21.5,1c0.5-0.3,1-0.7,1.5-0.5c0.5,0.2,0.9,0.6,1,1.2
				c2.3,10.8,13.6,9.9,17.1,9.3c0.4-0.1,0.9,0,1.2,0.3c0.4,0.3,0.6,0.7,0.7,1.1c0.4,2.5,3.2,7.4,8,10c4.2,2.1,8.7,2,13.5-0.5
				c0.5-0.2,1.1-0.2,1.5,0c6.1,3.3,11.7,3.5,15.1,0.5c2.5-2.1,3.5-5.4,2.5-8.4c-1.1-3.3-4.4-5.3-9-5.6c-0.8,0-1.4-0.6-1.5-1.4
				c-0.4-2.6-1.9-4.8-4.2-6.2c-3.6-2.2-8.9-2.5-14.2-0.7c-0.5,0.2-1,0.1-1.4-0.2s-0.7-0.7-0.8-1.2c-0.3-2-1.2-4.8-3.7-6.3
				c-2.7-1.6-6.7-1.6-11.7,0.1c-0.8,0.3-1.6-0.1-2-0.8c-3.2-6.1-7.7-10.1-13-11.5c-4.8-1.3-10-0.3-14.5,2.5
				c-0.6,0.4-1.3,0.3-1.9-0.1c-4.5-3.4-9.8-4.4-14.7-2.9c-4.7,1.4-8.4,5.2-10.2,10.4c-0.1,0.4-0.5,0.8-0.9,1c-0.4,0.2-0.9,0.2-1.3,0
				c-7.3-2.9-13.2-2.8-17.2,0.2c-3.4,2.6-4.5,6.8-4.3,8c0.1,0.8-0.4,1.6-1.2,1.8l-1.7,0.4c-4,0.9-8.2,1.9-9.5,8.3
				c-0.1,0.7-0.7,1.3-1.5,1.3c-7,0.7-11.6,3.3-12.5,7.1c-0.7,2.7,0.6,5.8,3,7.4c2.5,1.7,5.5,1.5,8.2-0.5c0.5-0.3,1-0.4,1.6-0.2
				c4.1,1.6,10.8,1.3,14.8-2c2.9-2.4,4.1-5.8,3.4-10.3C226,66.3,226.2,65.7,226.7,65.4z M337.6,65.8c4.2-1,9.1,2.1,7.7,7.7
				c-0.2,1-2.6,1-2.5,0c0.4-4.7-2-5.1-5-5C336.7,68.5,336.8,66,337.6,65.8z M319.8,57.5c4-2.3,12.3-1.9,14.9,5.5
				c0.4,1.3-1.2,3.4-2.3,1.5c-3.1-5.7-8.1-5.7-12.3-4.1C319.2,60.8,318.4,58.4,319.8,57.5z M302.5,49c3.8-1.3,10.1-1.9,11.8,4.4
				c0.5,1.8-1.7,2.6-2.1,1.4c-1.7-4.5-5-4.4-8.9-3.1C301.4,52.2,301.9,49.2,302.5,49z M271.8,42c2.7-4.4,16.8-8.5,24.1,3.9
				c0.8,1.4-0.3,2.1-1.1,2.7c-0.6,0.4-0.9-0.5-1.3-1.1c-6.2-9.7-17.3-7.2-20.3-2.7C272.7,45.8,271,43.3,271.8,42z M249,42.7
				c2.5-3.9,11-10,18.6-3.3c0.8,0.7-0.2,3.5-1.1,2.8c-6.9-4.7-12.3-0.9-15.2,2.5C249.9,46.3,248.5,43.6,249,42.7z M208.3,70.2
				c-2.9,0-5.2,0.1-7.2,2.3c-2.2,2.4-1.6,3.6-2,4.1c-0.6,0.6-2.1-0.4-2.1-1.6c0.1-5.5,6.8-7.7,10.8-7.3
				C209.2,67.9,209.6,70.2,208.3,70.2z M220,60.9c-4.2,0.5-5.5,2.5-6.2,4.9c-0.3,0.9-2.7,0.3-2.3-1.5c1.1-5.2,6.8-6.5,8.8-6
				C221,58.4,220.8,60.8,220,60.9z M223.7,55.3c0.9-4.6,5.4-11.3,15.6-8.7c1.3,0.3,0.5,3.5-0.8,3c-7.5-2.9-11.3,2.7-12.5,7.2
				C225.8,57.4,223.3,57.2,223.7,55.3z"/>
			<g>
				<path class="st0" d="M202.8,111.8c-5-0.1-9.1,1.3-10.6,3.8c-2.7,4.7,0.5,8.7,2.4,9.9c4.3,2.6,8.4,0.9,8.7-0.7
					c-1.2-1.3-3.2-4.3-4.4-4.4c-1.7,0-1.5-2.2-0.3-2.6c2.9-1,5.7,4.5,9.8,7.5c3.7,2.6,8.9,0.7,8.9-0.4
					C215.1,122.9,212.4,112,202.8,111.8z"/>
				<path class="st0" d="M301.7,124.7c3.4,3.5,8.1,2,8.3,0.8c-0.4-0.7-2.6-3.9-3.8-4.6c-1-0.6-1.7-1.5-1.2-2.3
					c0.9-1.3,2.8-0.4,4,1.1c1.2,1.5,4.5,5.8,5.7,6.4c3,1.7,9.7,1.1,9.1-0.9c-1.8-2.9-3.1-8.8-8.6-11.4c-5.7-2.7-13-2-19.7,0.4
					C296.8,116.7,299.9,122.9,301.7,124.7z"/>
				<path class="st0" d="M261.8,113.7c-5.7-2.7-13.7-1.8-20.5,0.6c1.9,2.5,5,8.3,6.6,10.3c3.1,3.8,8.4,1.9,8.6,0.7
					c-0.4-0.7-3.2-4.4-4.3-5c-1-0.6-1.6-1.5-1-2.3c0.9-1.3,3.2,0,4.4,1.4c1.2,1.5,4.6,5.7,5.7,6.4c3.3,2.3,9.7,1.1,9.1-0.9
					C268.2,122.2,267.2,116.3,261.8,113.7z"/>
			</g>
		</g>
		<g>
			<g>
				<path class="st0" d="M219.2,157.2c-4,0.1-8,1.7-10.3,1.3v27.1c0,0,1.5,1.1,5.5,0c5.2-1.5,7.6,0.1,7.6,0.1v-27.3
					C222,158.4,221.3,157.1,219.2,157.2z"/>
				<path class="st0" d="M233.7,270.3c4.1,1.2,5.5,0,5.5,0v-27.1c-2.3,0.4-6.3-1.2-10.3-1.3c-2.2-0.1-2.8,1.2-2.8,1.2v27.3
					C226.1,270.5,228.4,268.8,233.7,270.3z"/>
				<path class="st0" d="M321.7,157.2c-2.2-0.1-2.8,1.2-2.8,1.2v27.3c0,0,2.3-1.6,7.6-0.1c4.1,1.2,5.5,0,5.5,0v-27.1
					C329.7,158.9,325.8,157.3,321.7,157.2z"/>
				<path class="st0" d="M228.9,157.2c-2.2-0.1-2.8,1.2-2.8,1.2v27.3c0,0,2.3-1.6,7.6-0.1c4.1,1.2,5.5,0,5.5,0v-27.1
					C236.8,158.9,232.9,157.3,228.9,157.2z"/>
				<path class="st0" d="M222,270.5v-27.3c0,0-0.6-1.2-2.8-1.2c-4,0.1-8,1.7-10.3,1.3v27.1c0,0,1.5,1.1,5.5,0
					C219.6,268.8,222,270.5,222,270.5z"/>
				<path class="st0" d="M319.5,243.2v27.3c0,0,2.3-1.6,7.6-0.1c4.1,1.2,5.5,0,5.5,0v-27.1c-2.3,0.4-6.3-1.2-10.3-1.3
					C320.1,241.9,319.5,243.2,319.5,243.2z"/>
				<path class="st0" d="M312.1,157.2c-4,0.1-8,1.7-10.3,1.3v27.1c0,0,1.5,1.1,5.5,0c5.2-1.5,7.6,0.1,7.6,0.1v-27.3
					C314.8,158.4,314.2,157.1,312.1,157.2z"/>
				<path class="st0" d="M302.3,243.3v27.1c0,0,1.5,1.1,5.5,0c5.2-1.5,7.6,0.1,7.6,0.1v-27.3c0,0-0.6-1.2-2.8-1.2
					C308.5,242.1,304.6,243.7,302.3,243.3z"/>
			</g>
			<g>
				<path class="st0" d="M349.5,145.2h-64.9V204h64.9V145.2z M339.8,192h-18.6v2.3h-7.7V192H295v-31.4h4v-5.7c4,1,10.6-1.2,13.5-1.2
					c3.3,0,4.9,1.4,4.9,1.4s1.7-1.4,4.9-1.4c2.9,0,9.5,2.2,13.5,1.2v5.7h4V192z"/>
				<path class="st0" d="M256.3,145.2h-64.9V204h64.9V145.2z M246.5,192h-18.6v2.3h-7.7V192h-18.6v-31.4h4v-5.7
					c4,1,10.6-1.2,13.5-1.2c3.3,0,4.9,1.4,4.9,1.4s1.7-1.4,4.9-1.4c2.9,0,9.5,2.2,13.5,1.2v5.7h4V192z"/>
				<path class="st0" d="M284.6,309.2c16.4-4.7,32.6-11.1,43.5-21.1c3.9-3.5,7.1-7.3,9.8-11.3h-16.7v2.3h-7.7v-2.3H295v-31.4h4v-5.7
					c4,1,10.6-1.2,13.5-1.2c3.3,0,4.9,1.4,4.9,1.4s1.7-1.4,4.9-1.4c2.9,0,9.5,2.2,13.5,1.2v5.7h4v28.4c6-10.3,8.8-23,9.8-40.8
					l-0.1-2.7h-64.9V309.2z"/>
				<path class="st0" d="M201.6,273.5v-28.1h4v-5.7c4,1,10.6-1.2,13.5-1.2c3.3,0,4.9,1.4,4.9,1.4s1.7-1.4,4.9-1.4
					c2.9,0,9.5,2.2,13.5,1.2v5.7h4v31.4h-18.6v2.3h-7.7v-2.3h-16.6c2.6,4,5.8,7.7,9.5,11.2c10.3,9.7,26.6,16.3,43.3,21.2v-78.8
					h-64.9l0.1,2.5C192.2,249.2,195.2,262.4,201.6,273.5z"/>
			</g>
		</g>
	</g>
	<g>
		<g>
			<path d="M356.7,90.7c-1-0.7-11.3-2-12.9-2c-1.6,0-10.5,0.1-14,0.6c-5.4,0.8-14.5,0.8-21.5,0c-2.5-0.3-5.3,0.3-7.6,1.1
				c0.4-0.4,0.9-0.8,1.5-1.4c2.1-2.1,4.3-6.1,8.4-8.1c1-0.5,2-1,2.9-1.6c3.4,1.7,8.8,2.9,15.5-0.3c10,5,16,1.6,18.1-0.2
				c2.6-2.2,4-5.4,4-8.6c0-1.1-0.2-2.3-0.5-3.3c-1.4-4.3-5.4-7.1-10.9-7.7c-0.3-1.2-0.8-2.2-1.4-3.3c0.6-0.8,1.2-1.6,1.6-2
				c0.5-0.6,2.1-3.3-2.3-1c-0.2,0.1-0.6,0.3-1.2,0.7c-0.6-0.6-1.3-1.2-2.1-1.6c-4.1-2.5-9.6-2.8-15.4-1.3c-0.8-3-2.3-5.6-4.7-7.1
				c-2.5-1.5-5.7-2-9.4-1.4c0.2-0.5,0.4-1,0.6-1.4c1.7-3.5,0.8-4.3-1-2.8c-2,1.7-3.2,3-4.2,4c-3.5-5.7-8.2-9.5-13.7-10.9
				c-4.8-1.3-9.9-0.6-14.6,1.7c-0.3-2.3-0.6-4.3-0.9-5.4c-0.9-2.8-1.9-0.6-2.1,0.3c-0.2,1.2-0.5,2.8-0.8,4.7
				c-4.6-2.5-9.8-3.2-14.6-1.7c-5.3,1.6-9.3,5.6-11.7,11c-1.9-0.7-3.7-1.1-5.3-1.4c-1-1.3-2.4-2.9-4.4-4.6c-1.4-1.2-2.5-0.6-1.7,1.8
				c0.3,0.9,0.6,1.7,0.8,2.5c-3.8,0.2-6.5,1.4-8.4,2.9c-3.7,2.8-5.2,6.9-5.5,9.5c-0.2,0.1-0.5,0.1-0.5,0.1c-3.1,0.7-7.2,1.9-9.8,6
				c-0.5-0.3-0.8-0.5-0.9-0.6c-7.8-5.2-4.2,1.5-1.2,4.4c-10.3,1.5-13.2,6.4-14,9.4c-0.2,0.7-0.3,1.5-0.3,2.3c0,3.3,1.7,6.7,4.7,8.7
				c3.4,2.3,7.6,2.2,11.4-0.2c4.9,1.6,11.7,1.3,16.6-2.3c2.8,3.1,5.1,5.2,6.4,6.5c3.1,3.1,7.6,5.4,10,6.3c-2.3-0.9-6.1-1.8-9.9-1.3
				c-8.2,1.1-13.7-0.3-17.3-0.7c-5.8-0.6-11.8,0.4-14.8,0.4c-3.2,0-7.6,1.5-9.8,1.8c-2.3,0.4-2.2,1.9,1.1,2.8
				c3.2,0.9,9.3,1.4,10.9,2.1c5.3,2.3,14.1,4.2,20.3,3.7c4.4-0.3,8.8,1.8,10,2.1c2.2,0.7,7.6,2.1,9.8,2.1c0-0.1,0,3.1,0.2,4.7
				c-0.8,0.3-1.7,0.6-2.4,0.9c-2.5-1.5-13.3-5.9-26.5-0.4c-2.8-1-8.7-4.2-16.8-1.6c-10,3.3-8.4,12.4-5.1,16.6
				c4.4,5.7,12.7,4.5,15.1,1.7c5.4,3.6,10.8,2.4,14.8-0.1c2.6,1.5,15.4,4.1,25.2,0.1c1.3,1,6.7,3.8,13.6,0.3
				c4,2.4,10.5,2.5,13.9-0.4c1.2,1,4.9,2.5,12.7,2.4c9.4-0.1,11.5-1.5,12.9-2.7c2,0.9,7.3,3.7,13.8,0.9c3.5,2.2,10.5,2.1,14.3-0.4
				c6.9,3.1,19.5,1.7,22.7-0.5c5.7-3.9,2.9-11.9-3.3-15.7c-12.2-6.2-23.6-1.4-26.6,0.2c-3.6-2.4-11.1-4-19-2.5c0.1-0.9,0-2,0-3.2
				c0-0.1,0-0.2,0-0.4c1.6-0.5,3.8-2.1,8.2-2.4c6.1-0.4,20.5-0.2,27.7-3.9c4.1-2.1,18.4-4.9,20.3-6
				C358.3,92.3,357.7,91.4,356.7,90.7z M304.2,82.5c-5.2,6.1-7.8,8.2-8.7,8.2c-1-2-3.2-4.4-4.7-5.7c1.9-2.1,10-5.9,13.7-8.7
				c0.6-0.4,2.2-1.4,2.9-1.8c1,1.2,2.1,2.3,3.4,3.2C307.7,79.5,305.9,80.5,304.2,82.5z M229.4,69.2c4.4,0.7,9.5-0.3,13.1-3.7
				c4.5,7.2,4.7,13.8,9,18.3c-5.5-5.4-10.4-5.2-18.3-9.5c-1.4-0.7-3.4-2.1-4-2.4c0,0,0,0,0,0c0.1-0.7,0.1-1.4,0.1-2.1
				C229.4,69.7,229.4,69.4,229.4,69.2z M263.1,77.3l0.1,0.2c0,0-2.4-3.6-2.7-4.1c-0.8-1.3-1.9-2.5-3.1-4c-1.9-2.3-3.5-4.1-4.8-5.5
				c3.2-0.8,6.8-2.6,10.6-6.2c0.4,0.3,0.8,0.5,1.2,0.8c-0.2,1.2-0.4,2.4-0.6,3.2c-0.9,4.9-1,8.6-1,10.3
				C262.8,73.5,263,75.9,263.1,77.3z M256.2,72.8c1.9,2.5,3.6,5.5,4,6.1c-1.6,0.6-4.5,2-6.1,3.1c-3.1-3.2-5.5-12.8-7-15.3
				c-0.6-1-1-1.7-1.3-2.2c1.1,0.4,2.8,0.3,3.8,0.3C249.8,65.2,252.5,67.9,256.2,72.8z M270.5,79.9c15.1,0,27,11.9,27,27
				c0,1-0.1,2.5-0.3,4c-1.6,0.5-3.2,1-4.8,1.8c-7.8-4.5-18.5-4.3-25.9-0.1c-4.6-3.6-14.9-3.9-22.6-2.1c-0.2-1.5-0.4-2.9-0.4-3.6
				C243.5,92,255.6,79.9,270.5,79.9z M266.6,69.6c0.3-5,1.3-8.4,1.4-9.1c1.1,0.5,2.4,1,3.6,1.3c1,2.1,2.7,10.4,1.9,15.5
				c-2.3-0.2-4.9-0.2-6.5,0C266.5,76.4,266.4,72.3,266.6,69.6z M290.5,70.1c-1.5,3.3-0.7,7.5-4.6,11.4c-0.5-0.4-4.5-2.3-6-2.9
				c0.6-5.2,5.5-11.7,8.6-14.4c1,1.1,2.4,2.1,3.6,2.8C291.8,67.6,291.2,68.7,290.5,70.1z M294.6,69.1c0.1-0.2,0.3-0.5,0.4-0.8
				c2.9,1,6.1,1.2,9.2,0.9c0.3,1,0.8,2.1,1.4,3.2c0,0,0,0-0.1,0c-1.5,0.7-6.2,3.9-13.1,7.8c-1.8,1-2.9,1.9-3.5,2.6
				c0.8-1,1.7-2.4,2.3-3.8C292.5,75.8,292.2,73.3,294.6,69.1z M278,73c-0.7,1.9-1,2.9-1.3,3.9c0.6-4-0.5-10-1.7-15.1
				c3.5,0.1,7.1-0.9,10.6-2.9c0.3,0.8,0.6,1.5,1,2.2C284.7,63.1,279.9,68.3,278,73z M222.7,77.2c-4,3.2-10.7,3.6-14.8,2
				c-0.5-0.2-1.1-0.1-1.6,0.2c-2.7,2-5.7,2.2-8.2,0.5c-2.5-1.7-3.7-4.7-3-7.4c1-3.8,5.5-6.4,12.5-7.1c0.7-0.1,1.3-0.6,1.5-1.3
				c1.3-6.4,5.4-7.4,9.5-8.3l1.7-0.4c0.8-0.2,1.3-1,1.2-1.8c-0.2-1.2,0.9-5.3,4.3-8c4-3.1,9.9-3.1,17.2-0.2c0.4,0.2,0.9,0.2,1.3,0
				c0.4-0.2,0.7-0.5,0.9-1c1.8-5.3,5.4-9,10.2-10.4c4.9-1.5,10.2-0.4,14.7,2.9c0.6,0.4,1.3,0.4,1.9,0.1c4.5-2.9,9.7-3.8,14.5-2.5
				c5.3,1.4,9.8,5.4,13,11.5c0.4,0.7,1.2,1.1,2,0.8c5-1.7,9-1.8,11.7-0.1c2.5,1.6,3.4,4.3,3.7,6.3c0.1,0.5,0.3,0.9,0.8,1.2
				s0.9,0.3,1.4,0.2c5.3-1.8,10.6-1.5,14.2,0.7c2.4,1.4,3.8,3.6,4.2,6.2c0.1,0.8,0.8,1.3,1.5,1.4c4.6,0.3,7.9,2.3,9,5.6
				c1,3,0,6.3-2.5,8.4c-3.5,2.9-9,2.7-15.1-0.5c-0.5-0.3-1.1-0.3-1.5,0c-4.8,2.5-9.3,2.6-13.5,0.5c-4.9-2.5-7.7-7.4-8-10
				c-0.1-0.4-0.3-0.8-0.7-1.1c-0.4-0.3-0.8-0.4-1.2-0.3c-3.4,0.5-14.7,1.5-17.1-9.3c-0.1-0.5-0.5-1-1-1.2c-0.5-0.2-1.1,0.2-1.5,0.5
				c-7.3,4.9-14.6,4.5-21.5-1c-0.7-0.5-1.6-0.6-2.2,0c-7.9,8-14.4,7.4-17.6,6.1c-0.7-0.3-1.6-0.1-2,0.6c-3.1,4.8-9.6,5.9-14.2,4.4
				c-0.5-0.2-1.1-0.2-1.6,0.1c-0.4,0.4-0.7,0.9-0.6,1.5C226.8,71.4,225.6,74.8,222.7,77.2z M226.5,78.7c0.8-1,1.6-2.7,2-4
				c0.4,0.3,0.8,0.5,0.9,0.6c0.1,0.1,2.7,1.8,4.3,2.6c6.8,3.2,11.1,4,15.8,7.8c-1.7,1.9-3.4,4-4.5,5.9
				C235.2,88.8,227.6,80.1,226.5,78.7z M231.6,100.5c-1-0.3-6.5-2.4-9.9-2.1c-6.8,0.5-15.5-1.7-19.8-3.3c-1.1-0.4-10.5-1.2-1.3-1.2
				c3,0,6.7-0.8,12.8,0c3.5,0.5,9.6,1.1,18.9,0.4c4.5-0.4,8,1.1,9.8,2.9c-0.5,1.4-1,4.6-1.2,5.7
				C238.5,102.8,234.1,101.4,231.6,100.5z M208.5,125.3c-4.1-3-7-8.4-9.8-7.5c-1.2,0.4-1.3,2.5,0.3,2.6c1.1,0,3.2,3,4.4,4.4
				c-0.3,1.6-4.4,3.3-8.7,0.7c-1.9-1.1-5-5.2-2.4-9.9c1.5-2.5,5.6-4,10.6-3.8c9.6,0.2,12.3,11.1,14.6,13.2
				C217.4,126,212.2,128,208.5,125.3z M222.5,125.2c-3.6-1.6-6.5-10-7.6-11c-0.4-0.4,6.4-2.9,13.4-2.3c11.8,1,11.9,8.4,14.8,12
				C244.1,125.2,233.5,128.3,222.5,125.2z M261.3,125.9c-1.1-0.7-4.5-5-5.7-6.4c-1.2-1.4-3.4-2.8-4.4-1.4c-0.6,0.8,0,1.7,1,2.3
				c1.1,0.6,3.9,4.3,4.3,5c-0.2,1.1-5.5,3-8.6-0.7c-1.6-2-4.7-7.8-6.6-10.3c6.8-2.4,14.8-3.3,20.5-0.6c5.5,2.6,6.4,8.5,8.6,11.4
				C270.9,127,264.6,128.2,261.3,125.9z M276.1,125.8c-3.6-1.6-6.5-10-7.6-11c-0.4-0.4,6.4-2.9,13.4-2.3c11.9,1,11.9,8.4,14.8,12
				C297.8,125.8,287.1,128.9,276.1,125.8z M335.4,112c11.8,1,14.7,8.8,13.5,11.3c-1,2.2-8.3,5.1-19.3,2c-3.6-1.6-6.5-10-7.6-11
				C321.6,113.9,328.4,111.4,335.4,112z M315.3,113.9c5.5,2.6,6.7,8.4,8.6,11.4c0.5,1.9-6.1,2.5-9.1,0.9c-1.2-0.7-4.5-5-5.7-6.4
				c-1.2-1.4-3.1-2.4-4-1.1c-0.6,0.8,0.1,1.7,1.2,2.3c1.3,0.7,3.4,3.9,3.8,4.6c-0.2,1.1-4.9,2.6-8.3-0.8c-1.8-1.8-4.9-7.9-6.1-10.4
				C302.3,111.9,309.6,111.2,315.3,113.9z M347,93.2c-3.4,0.7-7.7,1.7-12.7,3.6c-6.8,2.6-20.1,3.4-25.6,3.3c-5.2-0.1-7,2.2-8.8,1.9
				c-0.1-2.8-1.8-6.9-1.8-6.9c1.5-0.8,6.5-2.5,10.7-2.3c5.7,0.2,16.2,0.7,21.6-0.2c2.6-0.4,12.3-0.5,13.8-0.5c1.1,0,2.9,0.2,3.3,0.3
				C350,92.8,348.2,93,347,93.2z"/>
			<g>
				<path d="M208.3,70.2c-2.9,0-5.2,0.1-7.2,2.3c-2.2,2.4-1.6,3.6-2,4.1c-0.6,0.6-2.1-0.4-2.1-1.6c0.1-5.5,6.8-7.7,10.8-7.3
					C209.2,67.9,209.6,70.2,208.3,70.2"/>
				<path d="M220,60.9c-4.2,0.5-5.5,2.5-6.2,4.9c-0.3,0.9-2.7,0.3-2.3-1.5c1.1-5.2,6.8-6.5,8.8-6C221,58.4,220.8,60.8,220,60.9"/>
				<path d="M238.4,49.6c-7.5-2.9-11.3,2.7-12.5,7.2c-0.2,0.6-2.7,0.4-2.3-1.5c0.9-4.6,5.4-11.3,15.6-8.7
					C240.5,46.9,239.8,50.1,238.4,49.6"/>
				<path d="M266.5,42.2c-6.9-4.7-12.3-0.9-15.2,2.5c-1.4,1.6-2.8-1.1-2.2-2c2.5-3.9,11-10,18.6-3.3
					C268.4,40.1,267.4,42.8,266.5,42.2"/>
				<path d="M294.8,48.6c-0.6,0.4-0.9-0.5-1.3-1.1c-6.2-9.7-17.3-7.2-20.3-2.7c-0.6,0.9-2.2-1.6-1.4-2.9c2.7-4.4,16.8-8.5,24.1,3.9
					C296.7,47.3,295.7,48.1,294.8,48.6"/>
				<path d="M312.2,54.8c-1.7-4.5-5-4.4-8.9-3.1c-1.8,0.6-1.4-2.4-0.8-2.6c3.8-1.3,10.1-1.9,11.8,4.4
					C314.8,55.1,312.6,56,312.2,54.8"/>
				<path d="M332.5,64.5c-3.1-5.7-8.1-5.7-12.3-4.1c-0.9,0.4-1.8-2-0.3-2.9c4-2.3,12.3-1.9,14.9,5.5
					C335.2,64.3,333.5,66.4,332.5,64.5"/>
				<path d="M345.4,73.5c-0.2,1-2.6,1-2.5,0c0.4-4.7-2-5.1-5-5c-1.2,0-1.1-2.5-0.2-2.7C341.8,64.9,346.8,67.9,345.4,73.5"/>
			</g>
			<g>
				<path d="M264.6,97.7c-0.1,1.7-1.6,3.1-3.3,3c-1.7-0.1-3.1-1.6-3-3.3l0-0.3c-0.3-0.4-1.7-0.9-3.8,0.4c-1.1,0.6-2.2,0.2-0.4-1.4
					c1.9-1.7,3.8-2.7,5.4-2.9l0.1,0c2.7-0.2,6.3,0.4,8,1c0.7,0.3,0,3.7-0.2,3.6c-0.6-0.1-1.8-0.6-2.8-0.4L264.6,97.7"/>
				<path d="M273.6,107.1c-0.6,1.6-6.2,2.1-7.3,0c-0.4-0.8-1-3-0.2-2.5c1.3,0.7,5.8,0.2,6.7,0c0.8-0.2,0.3-1.3,0.7-1.1
					C274.1,103.6,274.1,105.6,273.6,107.1"/>
				<path d="M286.9,98.2c-1.4-1.2-3.3-1.7-4-1.2l0,0.2c0.1,1.7-1.1,3.2-2.9,3.4c-1.7,0.2-3.3-1.1-3.4-2.9v-0.1
					c-1.1-0.4-2.9,0.3-3.2,0.2c-0.1-0.1-0.9-3.3,0.1-3.7c2.7-1.1,11.4-1.6,14,3.3C287.8,98,287.7,98.8,286.9,98.2"/>
			</g>
		</g>
		<g>
			<path d="M284.6,145.2h64.9V204h-64.9V145.2z M191.4,145.2h64.9V204h-64.9V145.2z M256.3,309.2c-16.7-4.9-32.9-11.5-43.3-21.2
				c-3.7-3.5-6.8-7.2-9.5-11.2h16.6v2.3h7.7v-2.3h18.6v-31.4h-4v-5.7c-4,1-10.6-1.2-13.5-1.2c-3.2,0-4.9,1.4-4.9,1.4
				s-1.7-1.4-4.9-1.4c-2.9,0-9.5,2.2-13.5,1.2v5.7h-4v28.1c-6.3-11.1-9.4-24.3-10-40.6l-0.1-2.5h64.9V309.2z M208.9,270.4v-27.1
				c2.3,0.4,6.3-1.2,10.3-1.3c2.2-0.1,2.8,1.2,2.8,1.2v27.3c0,0-2.3-1.6-7.6-0.1C210.3,271.5,208.9,270.4,208.9,270.4z M226.1,270.5
				v-27.3c0,0,0.6-1.2,2.8-1.2c4,0.1,8,1.7,10.3,1.3v27.1c0,0-1.5,1.1-5.5,0C228.4,268.8,226.1,270.5,226.1,270.5z M281.3,310.2
				l-10.8,2.7l-10.8-2.8v-83.4h-68.3v-19.1h68.3v-62.4h21.5v62.4h68.3v19.1h-68.3V310.2z M339.9,273.8v-28.4h-4v-5.7
				c-4,1-10.6-1.2-13.5-1.2c-3.2,0-4.9,1.4-4.9,1.4s-1.7-1.4-4.9-1.4c-2.9,0-9.5,2.2-13.5,1.2v5.7h-4v31.4h18.6v2.3h7.7v-2.3H338
				c-2.7,4-5.9,7.8-9.8,11.3c-11,10-27.2,16.4-43.5,21.1v-78.8h64.9l0.1,2.7C348.7,250.8,345.8,263.5,339.9,273.8z M332.6,243.3
				v27.1c0,0-1.5,1.1-5.5,0c-5.2-1.5-7.6,0.1-7.6,0.1v-27.3c0,0,0.6-1.2,2.8-1.2C326.3,242.1,330.2,243.7,332.6,243.3z M315.4,243.2
				v27.3c0,0-2.3-1.6-7.6-0.1c-4.1,1.2-5.5,0-5.5,0v-27.1c2.3,0.4,6.3-1.2,10.3-1.3C314.7,241.9,315.4,243.2,315.4,243.2z
				 M187.4,141.2v87.1c0,28.8,7.2,48.7,22.6,62.7c15.3,13.9,38.1,21,60.5,26.2c23-5.4,45.1-12.2,60.5-26.2
				c15.4-14,22.5-33.9,22.5-62.7v-87.1H187.4z"/>
			<path d="M242.5,160.6v-5.7c-4,1-10.6-1.2-13.5-1.2c-3.2,0-4.9,1.4-4.9,1.4s-1.7-1.4-4.9-1.4c-2.9,0-9.5,2.2-13.5,1.2v5.7h-4V192
				h18.6v2.3h7.7V192h18.6v-31.4H242.5z M222,185.7c0,0-2.3-1.6-7.6-0.1c-4.1,1.2-5.5,0-5.5,0v-27.1c2.3,0.4,6.3-1.2,10.3-1.3
				c2.2-0.1,2.8,1.2,2.8,1.2V185.7z M239.2,185.6c0,0-1.5,1.1-5.5,0c-5.2-1.5-7.6,0.1-7.6,0.1v-27.3c0,0,0.6-1.2,2.8-1.2
				c4,0.1,8,1.7,10.3,1.3V185.6z"/>
			<path d="M335.9,160.6v-5.7c-4,1-10.6-1.2-13.5-1.2c-3.2,0-4.9,1.4-4.9,1.4s-1.7-1.4-4.9-1.4c-2.9,0-9.5,2.2-13.5,1.2v5.7h-4V192
				h18.6v2.3h7.7V192h18.6v-31.4H335.9z M314.8,185.7c0,0-2.3-1.6-7.6-0.1c-4.1,1.2-5.5,0-5.5,0v-27.1c2.3,0.4,6.3-1.2,10.3-1.3
				c2.2-0.1,2.8,1.2,2.8,1.2V185.7z M332.1,185.6c0,0-1.5,1.1-5.5,0c-5.3-1.5-7.6,0.1-7.6,0.1v-27.3c0,0,0.6-1.2,2.8-1.2
				c4,0.1,8,1.7,10.3,1.3V185.6z"/>
		</g>
	</g>
	<g>
		<polygon class="st1" points="259.7,310.2 270.5,313 281.3,310.2 281.3,226.8 349.5,226.8 349.5,207.6 281.3,207.6 281.3,145.2
			259.7,145.2 259.7,207.6 191.4,207.6 191.4,226.8 259.7,226.8 		"/>
		<g>
			<path class="st1" d="M228.3,111.8c-7-0.6-13.8,1.9-13.4,2.3c1.1,1.1,3.9,9.4,7.6,11c11,3.1,21.7,0,20.6-1.3
				C240.2,120.2,240.1,112.8,228.3,111.8z"/>
			<path class="st1" d="M281.9,112.4c-7-0.6-13.8,1.9-13.4,2.3c1.1,1.1,4,9.4,7.6,11c11,3.1,21.7,0,20.6-1.3
				C293.8,120.8,293.8,113.4,281.9,112.4z"/>
			<path class="st1" d="M329.6,125.4c11,3.1,18.3,0.2,19.3-2c1.2-2.5-1.6-10.3-13.5-11.3c-7-0.6-13.8,1.9-13.4,2.3
				C323.1,115.4,325.9,123.8,329.6,125.4z"/>
		</g>
	</g>
</g>
</svg>
