<?xml version="1.0" encoding="utf-8"?>
<!-- Generator: Adobe Illustrator 22.1.0, SVG Export Plug-In . SVG Version: 6.00 Build 0)  -->
<svg version="1.1" id="Layer_1" xmlns="http://www.w3.org/2000/svg" xmlns:xlink="http://www.w3.org/1999/xlink" x="0px" y="0px"
	 viewBox="0 0 411 206.9" style="enable-background:new 0 0 411 206.9;" xml:space="preserve">
<style type="text/css">
	.st0{fill:#FFFFFF;stroke:#000000;stroke-miterlimit:10;}
</style>
<g>
	<path class="st0" d="M303.8,107.5c-0.4,0.9-1.3,2.8-1.9,3.6c-0.7,0.2-2.4,0.6-4.1,0.6c-4,0-7-2.4-7-6.9c0-5.7,4.4-9.4,10-9.4
		c1.9,0,3.4,0.5,4.1,0.8c-0.1,1.2-0.1,2.5-0.2,3.7l-0.7,0.1c-0.1-2.8-1.4-3.7-3.8-3.7c-4.2,0-7.1,4-7.1,8.5c0,3.4,1.7,6.2,4.9,6.2
		c2.4,0,3.8-1.6,5.1-3.7L303.8,107.5L303.8,107.5z"/>
	<path class="st0" d="M310.3,101.8c-0.6,0.4-1.8,1.5-2.2,4.2c3.4-0.9,4.4-2,4.4-3.1c0-0.8-0.5-1.3-1.2-1.3
		C311,101.5,310.6,101.6,310.3,101.8z M313.7,108.9c-2.1,2.2-3.9,2.7-5.1,2.7c-1.1,0-2.6-0.7-2.6-3.5c0-2.3,1-4.8,2.9-6.2
		c1-0.8,2.3-1.4,3.3-1.4c1.3,0,2.1,0.9,2.1,1.9c0,2.4-4,3.7-6.3,4.2c-0.1,0.3-0.1,0.5-0.1,0.8c0,1.3,0.4,2.7,1.9,2.7
		c1,0,2.3-0.7,3.5-1.9L313.7,108.9L313.7,108.9z"/>
	<path class="st0" d="M326.9,109.3c-1.4,1.5-2.8,2.3-3.4,2.3c-0.6,0-0.8-0.7-0.4-2.5c0.5-1.8,0.9-3.6,1.3-5.3
		c0.3-1.4,0.2-1.7-0.2-1.7c-1.1,0-3.8,3-5,5c-0.3,1.2-0.7,2.6-0.9,4c-0.6,0.1-1.3,0.3-1.7,0.5l-0.2-0.2c0.7-2.6,1.4-5.5,2-8.1
		c0.2-0.8,0.1-1,0-1c-0.2,0-1,0.5-1.6,1.1l-0.3-0.6c1.3-1.4,2.7-2.3,3.4-2.3c0.5,0,0.6,0.8,0.2,2.7l-0.5,2.1h0
		c1.6-2.2,3.4-3.6,4.4-4.2c0.6-0.4,1.1-0.5,1.6-0.5c0.6,0,1.3,0.4,0.5,3.4c-0.4,1.6-0.8,3.3-1.2,5c-0.1,0.6-0.1,0.9,0.1,0.9
		c0.2,0,0.9-0.4,1.6-1.1L326.9,109.3z"/>
	<path class="st0" d="M335.1,101.7l-2.4,0.1l-1.4,6.6c-0.3,1.2-0.1,1.4,0.1,1.4c0.4,0,1.6-0.8,2.2-1.4l0.3,0.5
		c-0.8,1-2.6,2.6-3.9,2.6c-0.5,0-1-0.7-0.5-3.2l1.4-6.6h-1.8l-0.1-0.2l0.6-0.7h1.4l0.5-2.3l1.8-1.5l0.2,0.2l-0.8,3.6h2.8
		L335.1,101.7L335.1,101.7z"/>
	<path class="st0" d="M340.6,101.8c-0.7,0.4-1.9,1.5-2.3,4.2c3.4-0.9,4.4-2,4.4-3.1c0-0.8-0.5-1.3-1.2-1.3
		C341.2,101.5,340.9,101.6,340.6,101.8L340.6,101.8z M344,108.9c-2.1,2.2-3.9,2.7-5.1,2.7c-1.1,0-2.6-0.7-2.6-3.5
		c0-2.3,1-4.8,2.9-6.2c1-0.8,2.3-1.4,3.3-1.4c1.3,0,2.1,0.9,2.1,1.9c0,2.4-4,3.7-6.3,4.2c0,0.3,0,0.5,0,0.8c0,1.3,0.4,2.7,1.9,2.7
		c1,0,2.3-0.7,3.5-1.9L344,108.9L344,108.9z"/>
	<path class="st0" d="M346.4,102.9c1.2-1.4,2.7-2.3,3.4-2.3c0.6,0,0.6,1.1,0.3,2.8l-0.2,1.2h0.1c1.2-2.3,2.6-4,3.6-4
		c0.4,0,0.8,0.3,1,0.6c0.2,0.3,0.2,0.7,0,1c-0.2,0.3-0.4,0.5-0.6,0.7c-0.2,0.2-0.4,0.2-0.5,0c-0.3-0.3-0.5-0.4-0.8-0.4
		c-0.3,0-0.7,0.3-1.2,1c-0.5,0.8-1.3,1.9-1.7,3c-0.4,1.6-0.7,3.1-0.9,4.7c-0.5,0.1-1.2,0.2-1.7,0.4l-0.2-0.2
		c0.6-2.6,1.3-5.5,1.7-8.1c0.2-0.8,0.2-1-0.1-1c-0.2,0-1,0.5-1.7,1.1L346.4,102.9L346.4,102.9z"/>
	<path class="st0" d="M363.8,100.9c0.4-1.8,0.9-3.6,2-4.8c1.1-1.2,2.5-1.9,3.4-1.9c0.8,0,1.5,0.6,1.4,1c0,0.4-0.3,0.8-0.6,1
		c-0.2,0.2-0.4,0.2-0.6,0c-0.5-0.5-1-0.9-1.5-0.9c-0.9,0-1.6,1.1-2.3,5.6h2.7l-0.5,0.7l-2.4,0.2c-0.4,2.7-0.7,4.1-1.2,6.8
		c-0.8,4.1-1.7,5.9-3.1,7.3c-1,1.1-2.1,1.5-2.7,1.5c-0.7,0-1.5-0.5-1.5-1c0-0.3,0.3-0.7,0.7-1c0.2-0.2,0.3-0.2,0.5,0
		c0.4,0.4,1.1,0.6,1.5,0.6c0.4,0,0.8-0.2,1-0.5c0.3-0.3,0.9-1.4,1.7-6c0.6-3.3,0.9-5.3,1.3-7.7h-2l-0.1-0.3l0.7-0.7H363.8
		L363.8,100.9z"/>
	<path class="st0" d="M373,110.5c1.3-0.6,2.6-3.1,2.6-6.2c0-1.9-0.8-2.9-2-2.9c-0.3,0-0.7,0.1-0.9,0.2c-0.9,0.4-2.5,2.4-2.5,6.1
		c0,1.8,0.7,2.9,2,2.9C372.5,110.6,372.7,110.6,373,110.5L373,110.5z M368.2,107.8c0-3.1,1.6-5.5,3.6-6.6c0.9-0.4,1.9-0.8,2.6-0.8
		c2,0,3.2,1.4,3.2,3.7c0,2.1-0.9,4.4-2.6,5.8c-1,0.9-2.3,1.5-3.7,1.5C369.1,111.6,368.2,109.8,368.2,107.8L368.2,107.8z"/>
	<path class="st0" d="M379.7,102.9c1.2-1.4,2.7-2.3,3.4-2.3c0.6,0,0.6,1.1,0.3,2.8l-0.3,1.2h0.1c1.2-2.3,2.6-4,3.6-4
		c0.4,0,0.8,0.3,1,0.6c0.2,0.3,0.2,0.7,0,1c-0.2,0.3-0.4,0.5-0.6,0.7c-0.2,0.2-0.4,0.2-0.5,0c-0.3-0.3-0.6-0.4-0.8-0.4
		c-0.3,0-0.7,0.3-1.2,1c-0.5,0.8-1.3,1.9-1.7,3c-0.4,1.6-0.7,3.1-1,4.7c-0.5,0.1-1.2,0.2-1.7,0.4l-0.2-0.2c0.6-2.6,1.3-5.5,1.7-8.1
		c0.1-0.8,0.1-1-0.1-1c-0.2,0-1,0.5-1.7,1.1L379.7,102.9L379.7,102.9z"/>
	<path class="st0" d="M132.5,140.8c0,2,0.5,2.5,2.3,2.5c2.3,0,4.3-1.2,4.3-4.1c0-2.9-2-4.1-5.4-4.1h-1.3V140.8L132.5,140.8z
		 M133.8,134.1c3.1,0,4.4-1.2,4.4-3.6c0-1.9-1.1-3.6-3.7-3.6c-0.7,0-1.3,0.1-1.6,0.3c-0.3,0.2-0.4,0.5-0.4,1.4v5.5L133.8,134.1
		L133.8,134.1z M137,134.5c2.8,0.4,5,1.6,5,4.5c0,1.9-1,3.3-2.7,4.2c-1.4,0.8-3.3,1.1-5.5,1.1h-6.2v-0.8c2.4-0.2,2.6-0.3,2.6-2.7
		v-11.3c0-2.3-0.1-2.5-2.3-2.7v-0.8h7.2c2.1,0,3.3,0.3,4.2,1c1,0.7,1.6,1.9,1.6,3.2C140.8,132.9,138.6,134,137,134.5L137,134.5
		L137,134.5z"/>
	<path class="st0" d="M145.2,127.8c0-0.8,0.7-1.5,1.4-1.5c0.8,0,1.4,0.6,1.4,1.5c0,0.8-0.6,1.4-1.4,1.4
		C145.9,129.3,145.2,128.6,145.2,127.8z M143.7,144.3v-0.7c1.8-0.2,2-0.3,2-2.2v-5.8c0-1.7-0.1-1.9-1.7-2.1v-0.7
		c1.4-0.2,2.7-0.6,4-1.1v9.7c0,1.9,0.2,2.1,2,2.2v0.7L143.7,144.3L143.7,144.3z"/>
	<path class="st0" d="M154,137.5c0,3.5,1.5,6.2,3.8,6.2c1.7,0,3.2-1.3,3.2-5.1c0-3.3-1.3-6-3.8-6C155.5,132.6,154,134.4,154,137.5
		L154,137.5z M163.6,138c0,4.5-3.3,6.7-6.1,6.7c-3.8,0-6.1-3.1-6.1-6.2c0-4.6,3.6-6.7,6.1-6.7C161,131.7,163.6,134.5,163.6,138z"/>
	<path class="st0" d="M180.6,144.3v-0.7c1.7-0.2,2-0.3,2-2.3v-4.7c0-2-0.7-3.3-2.5-3.3c-1,0-2.1,0.6-3.1,1.5
		c0.1,0.3,0.1,0.7,0.1,1.2v5.5c0,1.8,0.3,1.9,1.8,2.1v0.7h-6v-0.7c1.7-0.2,2-0.3,2-2.2v-4.8c0-2.1-0.7-3.2-2.4-3.2
		c-1.1,0-2.2,0.8-3.1,1.5v6.6c0,1.8,0.2,2,1.6,2.2v0.7h-5.9v-0.7c1.8-0.2,2.1-0.3,2.1-2.2v-5.8c0-1.8-0.1-1.9-1.7-2.2v-0.6
		c1.2-0.2,2.7-0.6,3.9-1.1v2.3c0.6-0.4,1.2-0.9,2-1.4c0.7-0.4,1.4-0.8,2.3-0.8c1.4,0,2.6,0.8,3.1,2.3c0.8-0.6,1.6-1.1,2.3-1.6
		c0.6-0.4,1.3-0.7,2.1-0.7c2.2,0,3.6,1.5,3.6,4.3v5.4c0,1.9,0.2,2,1.8,2.2v0.7L180.6,144.3L180.6,144.3z"/>
	<path class="st0" d="M190.5,136.2c1.6,0,3.1-0.1,4.7-0.1c0.5,0,0.7-0.2,0.7-0.5c0-1.5-0.9-2.8-2.5-2.8
		C192.2,132.8,190.9,133.9,190.5,136.2L190.5,136.2z M198.2,141.9c-1.8,2.2-3.7,2.7-4.6,2.7c-3.4,0-5.5-2.8-5.5-6
		c0-1.9,0.7-3.7,1.9-4.9c1.1-1.3,2.7-2,4.1-2c2.3,0,4.2,2.1,4.2,4.3c0,0.5-0.1,0.8-0.6,0.9s-4,0.4-7.3,0.5c0,3.8,2.2,5.4,4.2,5.4
		c1.1,0,2.2-0.5,3.2-1.4L198.2,141.9L198.2,141.9z"/>
	<path class="st0" d="M209.3,134.2c-0.7-1-1.8-1.4-2.9-1.4c-1.3,0-3.6,1.1-3.6,5.1c0,3.3,2,5,3.8,5c1,0,2-0.4,2.7-1V134.2z
		 M213.7,143.6c-0.6,0.1-2.7,0.5-4.3,1.1v-1.8l-1.7,1c-1.1,0.7-1.9,0.8-2.2,0.8c-2.2,0-5.2-2.1-5.2-6c0-3.9,3.4-6.9,7.2-6.9
		c0.4,0,1.2,0.1,1.9,0.3v-4c0-1.8-0.1-1.9-2.2-2.1v-0.7c1.5-0.2,3.3-0.6,4.4-1v16.7c0,1.5,0.2,1.6,1.2,1.7l0.9,0.1V143.6z"/>
	<path class="st0" d="M216.3,127.8c0-0.8,0.7-1.5,1.4-1.5c0.8,0,1.4,0.6,1.4,1.5c0,0.8-0.6,1.4-1.4,1.4
		C217,129.3,216.3,128.6,216.3,127.8z M214.9,144.3v-0.7c1.8-0.2,2-0.3,2-2.2v-5.8c0-1.7-0.1-1.9-1.8-2.1v-0.7
		c1.4-0.2,2.7-0.6,4-1.1v9.7c0,1.9,0.2,2.1,2,2.2v0.7L214.9,144.3L214.9,144.3z"/>
	<path class="st0" d="M232.9,141.8c-1.2,1.6-3.1,2.9-4.8,2.9c-3.5,0-5.6-2.9-5.6-5.9c0-2.1,0.9-4,2.8-5.5c1.4-1.1,3.1-1.6,4.2-1.6
		c1.1,0,2,0.4,2.5,0.7c0.4,0.3,0.4,0.5,0.4,0.9c0,0.6-0.6,1.2-0.9,1.2c-0.1,0-0.3-0.1-0.5-0.3c-0.9-0.8-1.8-1.1-2.8-1.1
		c-1.9,0-3.5,1.5-3.5,4.5c0,3.9,2.7,5.2,4.2,5.2c1.2,0,2.1-0.3,3.4-1.5L232.9,141.8z"/>
	<path class="st0" d="M241.1,137.6c-0.6,0.3-1.9,0.9-2.5,1.2c-1.1,0.5-1.7,1-1.7,2.1c0,1.4,1.1,2.1,2,2.1c0.7,0,1.7-0.5,2.2-1
		L241.1,137.6L241.1,137.6z M243.2,144.6c-0.4,0-1-0.3-1.3-0.5c-0.4-0.4-0.5-0.8-0.7-1.3c-1.1,0.8-2.5,1.8-3.3,1.8
		c-2,0-3.3-1.7-3.3-3.4c0-1.4,0.7-2.2,2.2-2.8c1.7-0.5,3.7-1.3,4.4-1.8v-0.5c0-2-1-3.2-2.3-3.2c-0.6,0-1,0.2-1.3,0.6
		c-0.4,0.3-0.6,1-0.8,1.8c-0.1,0.5-0.4,0.7-0.8,0.7c-0.5,0-1.2-0.5-1.2-1.2c0-0.4,0.4-0.7,0.9-1.1c0.8-0.5,2.6-1.6,4.2-2
		c0.8,0,1.7,0.3,2.3,0.8c1,0.8,1.3,2,1.3,3.4v5.2c0,1.3,0.5,1.7,1,1.7c0.3,0,0.7-0.2,1-0.3l0.3,0.7L243.2,144.6L243.2,144.6z"/>
	<path class="st0" d="M246.3,144.3v-0.7c1.8-0.2,2-0.3,2-2.2v-13.2c0-1.9-0.2-2-1.9-2.1v-0.7c1.5-0.2,3.2-0.6,4.2-1v17
		c0,1.9,0.2,2,2,2.2v0.7L246.3,144.3L246.3,144.3z"/>
	<path class="st0" d="M260.4,144.3v-0.8c2.3-0.2,2.5-0.3,2.5-2.7v-11.2c0-2.4-0.2-2.5-2.5-2.7v-0.8h7.4v0.8
		c-2.3,0.2-2.5,0.3-2.5,2.7v11.2c0,2.4,0.2,2.5,2.5,2.7v0.8H260.4z"/>
	<path class="st0" d="M277.2,144.3v-0.7c1.6-0.2,1.9-0.4,1.9-2.3v-4.7c0-2-0.7-3.2-2.6-3.2c-1.1,0-2.2,0.7-3.1,1.4v6.6
		c0,1.9,0.2,2,1.8,2.2v0.7h-6.1v-0.7c1.9-0.2,2-0.3,2-2.2v-5.8c0-1.8-0.2-1.9-1.7-2.2v-0.6c1.3-0.3,2.7-0.6,3.9-1.1v2.2
		c0.5-0.4,1.2-0.8,1.9-1.3c0.8-0.5,1.5-0.8,2.3-0.8c2.2,0,3.6,1.5,3.6,4.3v5.4c0,1.9,0.2,2,1.8,2.2v0.7H277.2L277.2,144.3z"/>
	<path class="st0" d="M286.5,132.1v-0.6c0-0.9,0.1-1.7,0.3-2.3c0.2-0.6,0.7-2,2.1-3.3c1-0.9,2-1.4,3.1-1.5c0.9,0,1.7,0.4,2.2,0.9
		c0.3,0.3,0.3,0.7,0.2,1c-0.1,0.2-0.3,0.4-0.5,0.7c-0.2,0.2-0.5,0.2-0.8-0.1c-0.5-0.5-1.3-1-2.3-1c-0.7,0-1.2,0.3-1.5,0.8
		c-0.4,0.5-0.7,1.9-0.7,4.3v1.1h3.3c0.2,0.2,0.1,0.9-0.3,1.1h-3v8.1c0,2.1,0.2,2.1,2.4,2.4v0.7h-6.6v-0.7c1.8-0.2,2-0.3,2-2.2v-8.3
		h-2l-0.1-0.3l0.8-0.8H286.5z"/>
	<path class="st0" d="M295.4,137.5c0,3.5,1.5,6.2,3.8,6.2c1.7,0,3.2-1.3,3.2-5.1c0-3.3-1.3-6-3.7-6
		C296.9,132.6,295.4,134.4,295.4,137.5z M305,138c0,4.5-3.3,6.7-6.1,6.7c-3.8,0-6.1-3.1-6.1-6.2c0-4.6,3.6-6.7,6.1-6.7
		C302.4,131.7,305,134.5,305,138z"/>
	<path class="st0" d="M310.8,134.7c0.9-1.4,2.1-3,3.4-3c1,0,1.6,0.7,1.6,1.4c0,0.5-0.4,1.1-0.9,1.4c-0.3,0.1-0.6,0.1-0.8-0.1
		c-0.4-0.4-0.7-0.6-1.2-0.6c-0.7,0-1.6,0.9-2.2,2.4v5.1c0,1.9,0.2,2,2.3,2.2v0.7h-6.4v-0.7c1.7-0.2,1.9-0.3,1.9-2.2v-5.8
		c0-1.9-0.1-2-1.7-2.2v-0.6c1.4-0.2,2.6-0.6,3.9-1.1L310.8,134.7L310.8,134.7L310.8,134.7z"/>
	<path class="st0" d="M332.6,144.3v-0.7c1.6-0.2,2-0.3,2-2.3v-4.7c0-2-0.7-3.3-2.5-3.3c-1,0-2.1,0.6-3.1,1.5
		c0.1,0.3,0.1,0.7,0.1,1.2v5.5c0,1.8,0.2,1.9,1.8,2.1v0.7h-6v-0.7c1.7-0.2,2-0.3,2-2.2v-4.8c0-2.1-0.7-3.2-2.4-3.2
		c-1.1,0-2.2,0.8-3.1,1.5v6.6c0,1.8,0.2,2,1.6,2.2v0.7H317v-0.7c1.9-0.2,2.1-0.3,2.1-2.2v-5.8c0-1.8-0.1-1.9-1.7-2.2v-0.6
		c1.3-0.2,2.7-0.6,3.9-1.1v2.3c0.6-0.4,1.2-0.9,2-1.4c0.7-0.4,1.4-0.8,2.3-0.8c1.3,0,2.6,0.8,3.1,2.3c0.8-0.6,1.6-1.1,2.3-1.6
		c0.6-0.4,1.3-0.7,2.1-0.7c2.2,0,3.6,1.5,3.6,4.3v5.4c0,1.9,0.2,2,1.8,2.2v0.7L332.6,144.3L332.6,144.3z"/>
	<path class="st0" d="M346.8,137.6c-0.6,0.3-1.9,0.9-2.5,1.2c-1.1,0.5-1.7,1-1.7,2.1c0,1.4,1.1,2.1,2,2.1c0.7,0,1.7-0.5,2.2-1V137.6
		L346.8,137.6z M348.9,144.6c-0.4,0-1-0.3-1.3-0.5c-0.4-0.4-0.5-0.8-0.7-1.3c-1.1,0.8-2.5,1.8-3.3,1.8c-2,0-3.4-1.7-3.4-3.4
		c0-1.4,0.7-2.2,2.3-2.8c1.7-0.5,3.7-1.3,4.3-1.8v-0.5c0-2-0.9-3.2-2.3-3.2c-0.5,0-1,0.2-1.3,0.6c-0.4,0.3-0.6,1-0.9,1.8
		c-0.1,0.5-0.4,0.7-0.8,0.7c-0.5,0-1.2-0.5-1.2-1.2c0-0.4,0.4-0.7,0.9-1.1c0.8-0.5,2.6-1.6,4.2-2c0.9,0,1.7,0.3,2.3,0.8
		c1,0.8,1.3,2,1.3,3.4v5.2c0,1.3,0.5,1.7,1,1.7c0.3,0,0.7-0.2,1-0.3l0.3,0.7L348.9,144.6L348.9,144.6z"/>
	<path class="st0" d="M357.3,144.3c-0.5,0.2-0.9,0.4-1.2,0.4c-1.7,0-2.7-1.1-2.7-3.3v-8.1h-1.9l-0.1-0.3l0.8-0.8h1.3V130l1.8-1.8
		l0.4,0.1v3.8h3.2c0.3,0.3,0.2,0.9-0.2,1.1h-3v7.2c0,2.3,0.9,2.7,1.6,2.7c0.7,0,1.4-0.3,1.7-0.5l0.2,0.7L357.3,144.3L357.3,144.3z"
		/>
	<path class="st0" d="M361.9,127.8c0-0.8,0.7-1.5,1.4-1.5c0.8,0,1.4,0.6,1.4,1.5c0,0.8-0.6,1.4-1.4,1.4
		C362.6,129.3,361.9,128.6,361.9,127.8z M360.5,144.3v-0.7c1.7-0.2,2-0.3,2-2.2v-5.8c0-1.7-0.1-1.9-1.8-2.1v-0.7
		c1.4-0.2,2.7-0.6,4-1.1v9.7c0,1.9,0.2,2.1,2,2.2v0.7L360.5,144.3L360.5,144.3z"/>
	<path class="st0" d="M378.5,141.8c-1.3,1.6-3.1,2.9-4.8,2.9c-3.5,0-5.6-2.9-5.6-5.9c0-2.1,0.9-4,2.8-5.5c1.5-1.1,3.1-1.6,4.2-1.6
		c1.1,0,2,0.4,2.5,0.7c0.4,0.3,0.5,0.5,0.5,0.9c0,0.6-0.6,1.2-0.9,1.2c-0.1,0-0.3-0.1-0.5-0.3c-0.8-0.8-1.8-1.1-2.8-1.1
		c-1.8,0-3.5,1.5-3.5,4.5c0,3.9,2.7,5.2,4.2,5.2c1.2,0,2.1-0.3,3.4-1.5L378.5,141.8L378.5,141.8z"/>
	<path class="st0" d="M387.2,135.3c-0.5-1.6-1.5-2.8-2.9-2.8c-1.1,0-1.8,0.8-1.8,1.9c0,1.3,1.1,1.9,2.4,2.5c2.1,0.9,3.5,1.9,3.5,3.8
		c0,2.6-2.4,3.9-4.6,3.9c-1.4,0-2.7-0.5-3.2-1c-0.2-0.4-0.4-2.3-0.4-3.3l0.7-0.1c0.5,1.9,1.7,3.5,3.4,3.5c1,0,2-0.8,2-2
		c0-1.2-0.8-1.9-2.2-2.6c-1.7-0.8-3.5-1.7-3.5-3.9c0-2,1.7-3.6,4.3-3.6c1.1,0,1.9,0.3,2.5,0.5c0.2,0.7,0.5,2.3,0.6,3L387.2,135.3
		L387.2,135.3z"/>
	<path class="st0" d="M134.6,98.5v8.4c0,2.6,0.5,3.5,3.3,3.4c3.2,0,6-1.6,6-5.7c0-4.2-3.1-6.1-7.1-6.1H134.6z M134.6,97.4h2.4
		c3.7,0,5.6-1.7,5.6-4.9c0-2.3-1-4.9-5.5-4.9c-1.3,0-1.8,0.1-2.1,0.2c-0.2,0.1-0.3,0.2-0.3,1V97.4L134.6,97.4z M138.4,86.5
		c2.8,0,4.4,0.5,5.6,1.4c1.3,0.9,2,2.3,2,4.3c0,3.4-3.2,5.1-5.1,5.5v0.1c3.5,0.5,6.7,2.6,6.7,6.5c0,2.7-1.4,4.7-3.6,6
		c-2,1.1-4.4,1.5-7.4,1.5h-8.9v-0.9c3.2-0.2,3.6-0.5,3.6-4.7V92.1c0-4.2-0.3-4.5-3.3-4.7v-0.9H138.4L138.4,86.5z"/>
	<path class="st0" d="M161.1,99.4h2.2c1.6,0,2.8-0.2,3.9-1c1.7-1.3,2.2-3.2,2.2-5.1c0-4.1-3-5.7-5.8-5.7c-1.3,0-1.9,0.1-2.1,0.2
		c-0.2,0.1-0.4,0.3-0.4,1L161.1,99.4L161.1,99.4z M161.1,106c0,4.2,0.3,4.5,3.5,4.7v0.9h-10.3v-0.9c3.2-0.2,3.6-0.5,3.6-4.7V92.1
		c0-4.2-0.3-4.5-3.4-4.7v-0.9h9.8c2.5,0,4.7,0.3,6.1,1.3c1.6,1,2.6,2.7,2.6,5c0,3.2-2,5.5-5.1,6.8c0.7,1.1,2.3,3.8,3.4,5.5
		c1.4,2,2.2,3.1,3.2,4.2c0.8,1,1.5,1.6,2.9,1.9l-0.1,0.8h-0.5c-4.4-0.1-5.8-1.5-7.3-3.6c-1.2-1.7-2.8-4.6-3.9-6.4
		c-0.6-1-1.2-1.4-2.4-1.4h-2.1V106z"/>
	<path class="st0" d="M193.9,87.2c-4.6,0-8.4,3.7-8.4,11c0,7.4,3.9,12.7,9.6,12.7c4.6,0,8.4-3.6,8.4-10.8
		C203.4,91.8,199.4,87.2,193.9,87.2L193.9,87.2z M207.2,98.7c0,8-5.6,13.5-13,13.5c-7.3,0-12.5-5.6-12.5-12.9
		c0-6.5,4.6-13.4,13.2-13.4C201.5,85.9,207.2,91.1,207.2,98.7L207.2,98.7z"/>
	<path class="st0" d="M220.8,87.4l-1.2,0.2c-1.7,0.2-2,0.6-1.4,2.3l5.2,16.5h0.1l6.2-19.4h0.9l7,19.3h0.1c1.6-4.9,3.8-13,4.5-15.8
		c0.5-2.2,0.4-2.7-1.4-2.9l-1.1-0.2v-0.9h8.2v0.9c-2.6,0.3-2.8,0.5-4.1,4c-0.3,1-3.2,9.8-6.4,20.5h-1l-6.9-18.9l-0.1,0.1l-6.3,18.8
		h-1.1l-6.7-20.8c-1-3.2-1.6-3.5-3.8-3.7v-0.9h9.5V87.4z"/>
	<path class="st0" d="M275.9,111.9h-1l-16.8-20.4h-0.1v9.9c0,4,0.2,6.1,0.3,7.3c0.2,1.4,1.2,1.9,3.8,2v0.9h-9.3v-0.9
		c2.1-0.1,3.1-0.7,3.3-2c0.2-1.2,0.3-3.3,0.3-7.3V93c0-2.8-0.1-3.4-0.7-4.3c-0.8-0.9-1.8-1.2-3.4-1.3v-0.9h5.6l16.3,19.5h0.1v-9.2
		c0-4-0.2-6.1-0.3-7.3c-0.2-1.4-1.3-1.9-3.8-2v-0.9h9.3v0.9c-2.1,0.1-3.1,0.7-3.3,2c-0.2,1.2-0.3,3.3-0.3,7.3V111.9L275.9,111.9z"/>
</g>
<g id="Shield_Reverse">
	<g>
		<path class="st0" d="M38.9,139.2c0,0,0.3-0.7,1.5-0.7c1.5,0.1,3,0.5,4.2,0.7c0.5,0.1,1,0.1,1.4,0.1v14.7c0,0-0.2,0.2-0.7,0.2
			c-0.3,0.1-0.7,0.1-1.2,0c-0.3-0.1-0.7-0.1-1.1-0.2c-2.8-0.8-4.1,0.1-4.1,0.1l1.3-1.4l-1.3,1.3V139.2z M29.5,153.9v-14.7v0.1
			c1.3,0.2,3.4-0.7,5.6-0.8c1.2-0.1,1.5,0.7,1.5,0.7l0,0V154l-0.3-0.1c0,0-1-0.7-3.9,0.1c-0.1,0-0.2,0.1-0.3,0.1
			C30.6,154.4,29.5,153.9,29.5,153.9 M19.9,85.7V131c0,15,3.8,25.3,11.7,32.6c8,7.3,19.9,10.9,31.5,13.6c12-2.8,23.5-6.3,31.5-13.6
			c8-7.3,11.7-17.7,11.7-32.6V85.7C106.3,85.7,19.9,85.7,19.9,85.7z M76.5,94.1h2.1V91c2.2,0.5,5.8-0.7,7.4-0.7
			c1.8,0,2.7,0.8,2.7,0.8s0.9-0.8,2.7-0.8c1.6,0,5.2,1.2,7.4,0.7v3.1h2.1v17.1H90.7v1.3h-4.2v-1.3H76.4L76.5,94.1L76.5,94.1z
			 M25.5,94h2.1v-3.1c2.2,0.5,5.9-0.6,7.5-0.6c1.7,0,2.7,0.8,2.7,0.8s0.9-0.8,2.7-0.8c1.6,0,5.1,1.2,7.3,0.7V94H50v17.1H39.9v1.3
			h-4.1v-1.3l-10.2-0.1L25.5,94L25.5,94z M49.9,157.4H39.8v1.3l-4.2-0.1v-1.3h-9.3l-0.8-1.3v-15.8h2.2v-3.1c2.2,0.5,5.8-0.7,7.4-0.7
			c1.8,0,2.7,0.8,2.7,0.8s0.9-0.8,2.7-0.8c1.6,0,5.2,1.2,7.4,0.7v3.2l2.2-0.1L49.9,157.4L49.9,157.4z M99.8,157.4h-9.1v1.3h-4.2
			v-1.3H76.4v-17.1h2.2v-3.1c2.2,0.5,5.8-0.7,7.4-0.7c1.8,0,2.7,0.8,2.7,0.8s0.9-0.8,2.7-0.8c1.6,0,5.2,1.2,7.4,0.7v3.1h2.2v15.3
			L99.8,157.4z M105.3,131.8H70.6v42.3l-7.5,2l-7.5-2v-42.3H20.8v-13.8h34.7V86.7h15.1v31.4h34.7V131.8z M87.3,107.7
			c0,0-1.3-0.9-4.1-0.1c-2.2,0.7-3,0-3,0V92.9c1.3,0.2,3.4-0.7,5.6-0.7c1.2-0.1,1.5,0.7,1.5,0.7L87.3,107.7L87.3,107.7z M89.5,107.7
			V92.9c0,0,0.3-0.7,1.5-0.7c2.2,0.1,4.4,0.9,5.6,0.7v14.7c0,0-0.8,0.6-3,0C90.8,106.8,89.5,107.7,89.5,107.7z M36.6,107.7
			c0,0-1.3-0.9-4.1-0.1c-2.2,0.7-3,0-3,0V92.9c1.3,0.2,3.4-0.7,5.7-0.7c1.2-0.1,1.5,0.7,1.5,0.7L36.6,107.7L36.6,107.7z M38.9,107.8
			v-15c0,0,0.3-0.7,1.5-0.7c2.2,0.1,4.4,0.8,5.7,0.6v14.8c0,0-0.9,0.5-3.1-0.1C40.1,106.8,38.9,107.8,38.9,107.8z M89.8,139.1
			c0,0,0.3-0.7,1.5-0.7c1.5,0.1,3,0.5,4.2,0.7c0.5,0.1,1,0.1,1.4,0.1v14.7c0,0-0.2,0.2-0.7,0.2c-0.3,0.1-0.7,0.1-1.2,0
			c-0.3-0.1-0.7-0.1-1.1-0.2c-2.8-0.8-4.1,0.1-4.1,0.1V139.1z M87.6,153.9L87.6,153.9c-0.1-0.1-1.3-0.9-4.1-0.1
			c-0.1,0-0.2,0.1-0.3,0.1c-1.6,0.4-2.4,0.1-2.7,0l-0.1-0.1v-14.7h0.1c1.3,0.2,3.4-0.7,5.6-0.7c1.2-0.1,1.5,0.7,1.5,0.7L87.6,153.9
			L87.6,153.9z"/>
		<g>
			<path class="st0" d="M49.7,41.6c0.2,0.3,0.4,0.7,0.7,1.2c0.8,1.4,2.1,6.7,3.8,8.4c0.9-0.6,2.5-1.4,3.3-1.7
				c-0.2-0.3-1.1-2-2.2-3.3c-2-2.7-3.5-4.1-3.6-4.4C51.2,41.8,50.3,41.8,49.7,41.6"/>
			<path class="st0" d="M64.9,48.6c0.4-2.8-0.5-7.3-1-8.5c-0.7-0.2-1.4-0.4-2-0.7c-0.1,0.3-0.6,2.2-0.8,5c-0.1,1.5-0.1,3.7,0.2,4.2
				C62.2,48.5,63.6,48.5,64.9,48.6"/>
			<path class="st0" d="M77.9,64.9c0-8.3-6.4-14.8-14.7-14.8c-8.1,0-14.7,6.6-14.7,14.8c0,0.4,0.1,1.1,0.2,2c4.3-1,9.8-0.8,12.3,1.2
				c3.9-2.2,9.9-2.3,14.1,0c1.7-0.9,2.4-1,2.6-1.1C77.9,66.3,77.9,65.3,77.9,64.9 M60,59.8c-0.1,0.9-0.9,1.7-1.8,1.6
				s-1.7-0.9-1.6-1.8v-0.2c-0.2-0.2-0.9-0.5-2.1,0.2c-0.6,0.4-1.2,0.1-0.2-0.8c1-0.9,2.1-1.5,2.9-1.6h0.1c1.5-0.1,3.4,0.2,4.4,0.6
				c0.4,0.2,0,2-0.1,2C61.2,59.9,60.5,59.6,60,59.8L60,59.8z M64.9,65c-0.3,0.9-3.4,1.1-4,0c-0.2-0.4-0.5-1.6-0.1-1.4
				c0.7,0.4,3.2,0.1,3.7,0c0.4-0.1,0.2-0.7,0.4-0.6C65.2,63.1,65.2,64.1,64.9,65 M72.1,60.1c-0.8-0.7-1.8-0.9-2.2-0.7v0.1
				c0.1,0.9-0.6,1.8-1.6,1.9c-0.9,0.1-1.8-0.6-1.9-1.6v-0.1c-0.6-0.2-1.6,0.2-1.7,0.1c-0.1-0.1-0.5-1.8,0.1-2
				c1.5-0.6,6.2-0.9,7.6,1.8C72.7,60,72.6,60.5,72.1,60.1"/>
			<path class="st0" d="M73.1,41.4c-1.7,1.5-4.4,5-4.7,7.9c0.8,0.3,2.9,1.4,3.3,1.6c2.1-2.1,1.7-4.4,2.5-6.2
				c0.4-0.8,0.7-1.4,0.9-1.7C74.3,42.6,73.6,42.1,73.1,41.4"/>
			<path class="st0" d="M83.4,47.1c-0.4,0.2-1.3,0.8-1.6,1c-2,1.5-6.5,3.6-7.5,4.7c0.8,0.7,2,2,2.6,3.1c0.5,0,1.9-1.1,4.7-4.5
				c0.9-1.1,1.9-1.6,3.6-2.6C84.5,48.3,83.9,47.7,83.4,47.1"/>
			<path class="st0" d="M47.7,59.5c-1-0.9-2.8-1.7-5.3-1.6c-5.1,0.4-8.4,0.1-10.3-0.2c-3.3-0.5-5.3,0-6.9,0c-5,0,0.2,0.4,0.7,0.7
				c2.3,0.9,7.1,2.1,10.8,1.9c1.8-0.1,4.9,1,5.4,1.1c1.4,0.5,3.8,1.3,5.1,1.3C47.2,62,47.4,60.2,47.7,59.5"/>
			<path class="st0" d="M51.8,53.2c-2.6-2.1-4.9-2.5-8.6-4.3c-0.9-0.4-2.3-1.4-2.3-1.4c-0.1-0.1-0.3-0.2-0.5-0.3
				c-0.2,0.7-0.7,1.6-1.1,2.2c0.6,0.8,4.7,5.6,10.1,7C49.9,55.4,50.9,54.2,51.8,53.2"/>
			<path class="st0" d="M105.3,56.9c-0.3-0.1-1.2-0.2-1.8-0.2c-0.8,0-6.1,0.1-7.5,0.3c-2.9,0.5-8.7,0.2-11.8,0.1
				c-2.3-0.1-5,0.8-5.8,1.3c0,0,0.9,2.3,1,3.8c1,0.2,2-1.1,4.8-1c2.9,0.1,10.3-0.3,13.9-1.8c2.7-1.1,5.1-1.6,6.9-2
				C105.6,57.2,106.6,57.1,105.3,56.9"/>
			<path class="st0" d="M34.9,36.8c-2.2,0.5-4.5,1-5.2,4.5"/>
			<path class="st0" d="M28.9,38.2c-0.3-0.2-0.4-0.3-0.5-0.3c-4.3-2.8-2.3,0.8-0.7,2.4C27.8,40.3,27.8,39,28.9,38.2"/>
			<path class="st0" d="M45,28.3c-0.5-0.7-1.3-1.6-2.4-2.6c-0.8-0.7-1.4-0.3-0.9,1c0.2,0.5,0.3,0.9,0.4,1.4
				C42.1,28,43.4,27.9,45,28.3"/>
			<path class="st0" d="M64.2,24.1c-0.2-1.3-0.3-2.3-0.5-2.9c-0.5-1.5-1-0.3-1.1,0.2c-0.1,0.7-0.3,1.5-0.4,2.6
				C62.2,23.9,63.6,24.7,64.2,24.1"/>
			<path class="st0" d="M82.1,29.3c0.1-0.3,0.2-0.5,0.3-0.8c0.9-1.9,0.4-2.4-0.5-1.5c-1.1,1-1.7,1.6-2.3,2.2c0,0,0.2,0.7,0.8,0.9
				c0.5,0.2,1.4,0,1.4,0S81.9,29.8,82.1,29.3"/>
			<path class="st0" d="M100.1,37c0.3-0.4,0.8-1,1-1.2c0.3-0.3,1.1-1.8-1.3-0.6c-0.1,0.1-0.5,0.3-0.8,0.4
				C99.2,35.7,100,36.3,100.1,37"/>
			<path class="st0" d="M39.3,42.1c0.2-0.2,0.5-0.2,0.9-0.1c2.5,0.8,6.1,0.3,7.7-2.4c0.2-0.4,0.7-0.5,1.1-0.3c1.7,0.7,5.2,1,9.6-3.4
				c0.3-0.3,0.9-0.3,1.2,0c3.8,3.1,7.7,3.2,11.7,0.5c0.3-0.2,0.5-0.4,0.8-0.3c0.3,0.1,0.5,0.4,0.5,0.7c1.3,5.9,7.4,5.4,9.3,5.1
				c0.2-0.1,0.5,0,0.7,0.2c0.2,0.2,0.3,0.4,0.4,0.6c0.2,1.4,1.7,4.1,4.4,5.5c2.3,1.1,4.7,1.1,7.4-0.3c0.3-0.1,0.6-0.1,0.8,0
				c3.3,1.8,6.4,1.9,8.2,0.3c1.4-1.1,1.9-3,1.4-4.6c-0.6-1.8-2.4-2.9-4.9-3.1c-0.4,0-0.8-0.3-0.8-0.8c-0.2-1.4-1-2.6-2.3-3.4
				c-2-1.2-4.9-1.4-7.7-0.4c-0.3,0.1-0.5,0.1-0.8-0.1s-0.4-0.4-0.4-0.7c-0.2-1.1-0.7-2.6-2-3.5c-1.5-0.9-3.7-0.9-6.4,0.1
				c-0.4,0.2-0.9-0.1-1.1-0.4c-1.7-3.4-4.2-5.6-7.1-6.3c-2.6-0.7-5.5-0.2-7.9,1.4c-0.3,0.2-0.7,0.2-1-0.1c-2.5-1.9-5.3-2.5-8-1.6
				c-2.6,0.8-4.6,2.8-5.6,5.7c-0.1,0.2-0.3,0.4-0.5,0.5c-0.2,0.1-0.5,0.1-0.7,0c-4-1.6-7.2-1.6-9.4,0.1c-1.9,1.4-2.5,3.7-2.3,4.4
				c0.1,0.4-0.2,0.9-0.7,1l-0.9,0.2c-2.2,0.5-4.5,1-5.2,4.5c-0.1,0.4-0.4,0.7-0.8,0.7c-3.7,0.6-6.1,2-6.7,4.1
				c-0.4,1.5,0.3,3.2,1.6,4.1c1.4,0.9,3,0.8,4.5-0.3c0.3-0.2,0.5-0.2,0.9-0.1c2.2,0.9,5.9,0.7,8.1-1.1c1.6-1.3,2.2-3.2,1.9-5.7
				C39,42.6,39.1,42.3,39.3,42.1 M99.9,42.3c2.3-0.5,5,1.1,4.2,4.2c-0.1,0.5-1.4,0.5-1.4,0c0.2-2.6-1.1-2.8-2.7-2.7
				C99.3,43.8,99.4,42.4,99.9,42.3 M90.2,37.8c2.2-1.3,6.7-1,8.1,3c0.2,0.7-0.7,1.9-1.3,0.8c-1.7-3.1-4.4-3.1-6.7-2.2
				C89.8,39.6,89.3,38.2,90.2,37.8 M80.7,33.1c2-0.7,5.5-1,6.4,2.4c0.3,1-0.9,1.4-1.1,0.8c-0.9-2.5-2.7-2.4-4.9-1.7
				C80.1,34.9,80.3,33.2,80.7,33.1 M64,29.2c1.5-2.4,9.2-4.6,13.2,2.2c0.4,0.8-0.2,1.2-0.6,1.5c-0.3,0.2-0.5-0.3-0.7-0.6
				c-3.4-5.3-9.4-3.9-11.1-1.5C64.4,31.3,63.5,29.9,64,29.2 M51.5,29.6c1.4-2.2,6-5.5,10.1-1.8c0.4,0.4-0.1,1.9-0.6,1.6
				c-3.8-2.6-6.7-0.5-8.3,1.4C52,31.6,51.2,30.2,51.5,29.6 M29.3,44.7c-1.6,0-2.8,0.1-3.9,1.3c-1.2,1.3-0.9,2-1.1,2.2
				c-0.3,0.3-1.1-0.2-1.1-0.9c0.1-3.1,3.7-4.2,5.9-4C29.8,43.4,30,44.7,29.3,44.7 M35.7,39.6c-2.3,0.3-3,1.4-3.4,2.7
				c-0.2,0.5-1.5,0.2-1.3-0.8c0.6-2.8,3.7-3.5,4.8-3.3C36.2,38.2,36.1,39.6,35.7,39.6 M37.7,36.6c0.5-2.5,2.9-6.2,8.5-4.7
				c0.7,0.2,0.3,1.9-0.4,1.6c-4.1-1.6-6.2,1.5-6.8,4C38.9,37.7,37.5,37.6,37.7,36.6"/>
		</g>
		<path class="st0" d="M84.7,77.4c-1.1-1.3-1.8-3.1-3.1-3.8c-0.6-0.3-1-1-0.2-1.5c0.8-0.2,1.5,0.5,2.5,1.8c0.3,0.3,0.5,0.7,0.8,1
			c1.4,1.6,1.6,3.3,2.9,3.3c1.7,0.1,3.3-0.3,4.5-1c3.5,1.6,10.2,0.9,11.8-0.2c3.1-2.1,1.2-6.7-1.9-8.3c-6.4-3.1-12.1-0.5-13.6,0.2
			c-1.4-1-3.8-1.4-6.8-1.4c-3.3,0.2-4.9,0.7-7,1.8c-4-2.3-9.5-2.2-13.5,0c-1.6-1.3-4.6-1.7-7.6-1.6c-2.5,0.1-4.9,0.5-6.3,1.4
			c-1.7-1.3-7.6-3.5-14.5-0.7c-1.5-0.5-4.5-2.2-8.7-0.8c-5.1,1.7-4.4,6.3-2.7,8.5c2.3,3,6.5,2.5,7.9,1c-0.3-0.8-1-1.5-1.6-2.3
			c-0.5-0.7-1.1-1.3-1.5-1.4c-1.1,0-0.8-1.3-0.3-1.4c1.3-0.5,2.9,1.8,4.5,3.7c0.8,1,1.3,2.6,2.3,2.6c2.4-0.1,3.4-0.8,4.3-1.2
			c1.4,0.8,8,2.1,13.1,0.1c0.7,0.5,3.5,2,7,0.2c-1.4-1.5-2.1-3-3.4-4c-0.9-0.4-0.7-1.3-0.3-1.4c0.9-0.3,1.9,0.7,2.7,1.9
			c0.5,0.7,1,1.4,1.5,2c1,1.1,1.8,2.5,2.7,2.5c2,0.1,3.1-0.5,3.9-1.1c0.6,0.4,1.3,0.8,2.6,1c0.9,0.2,2.1,0.3,3.9,0.3
			c2.3-0.1,4.1-0.2,5.2-0.5c0.7-0.2,1.3-0.6,1.6-0.8C77.6,76.9,80.9,79,84.7,77.4z M38.1,75.8c-1.9-0.8-3.3-5.1-3.9-5.7
			c-0.2-0.2,3.2-1.5,6.9-1.2c6.2,0.4,6.3,4.4,7.8,6.3C49.4,75.8,43.8,77.4,38.1,75.8z M66,76.1c-1.9-0.8-3.3-5.2-3.9-5.7
			c-0.2-0.2,3.3-1.5,7-1.2c6.2,0.5,6.2,4.4,7.7,6.3C77.3,76.1,71.7,77.6,66,76.1z M103.9,74.8c-0.5,1.1-4.4,2.6-10.1,1
			c-1.9-0.8-3.3-5.2-3.9-5.7c-0.2-0.2,3.3-1.5,6.9-1.2C103,69.4,104.5,73.5,103.9,74.8z"/>
	</g>
</g>
</svg>
