<svg version="1.1" id="Artwork" xmlns="http://www.w3.org/2000/svg" xmlns:xlink="http://www.w3.org/1999/xlink" x="0px" y="0px"
	 viewBox="0 0 844.9 330.3" style="enable-background:new 0 0 844.9 330.3;" xml:space="preserve">
<style type="text/css">
	.st0{fill:#FFFFFF;}
	.st1{fill:#ED1C24;}
</style>
<g>
	<g>
		<g>
			<g>
				<path class="st0" d="M90.7,53.2c0.3,0.5,0.7,1.2,1.3,2.2c1.5,2.5,3.9,12.2,7,15.3c1.6-1.1,4.5-2.5,6.1-3.1
					c-0.4-0.6-2.1-3.6-4-6.1c-3.7-4.9-6.4-7.5-6.7-8C93.5,53.6,91.8,53.6,90.7,53.2z"/>
				<path class="st0" d="M118.5,66c0.7-5-0.9-13.4-1.9-15.5c-1.3-0.3-2.5-0.8-3.6-1.3c-0.1,0.6-1.1,4-1.4,9.1
					c-0.2,2.7-0.1,6.8,0.4,7.7C113.5,65.9,116.2,65.8,118.5,66z"/>
				<path class="st0" d="M142.4,95.6c0-15.1-11.8-27-27-27c-14.9,0-27,12.1-27,27c0,0.7,0.2,2.2,0.4,3.6c7.8-1.8,18-1.5,22.6,2.1
					c7.4-4.2,18.1-4.5,25.9,0.1c1.6-0.8,3.2-1.3,4.8-1.8C142.3,98.2,142.4,96.7,142.4,95.6z M109.5,86.4c-0.1,1.7-1.6,3.1-3.3,3
					c-1.7-0.1-3.1-1.6-3-3.3l0-0.3c-0.3-0.4-1.7-0.9-3.8,0.4c-1.1,0.6-2.2,0.2-0.4-1.4c1.9-1.7,3.8-2.7,5.4-2.9l0.1,0
					c2.7-0.2,6.3,0.4,8,1c0.7,0.3,0,3.7-0.2,3.6c-0.6-0.1-1.8-0.6-2.8-0.4L109.5,86.4z M118.5,95.8c-0.6,1.6-6.2,2.1-7.3,0
					c-0.4-0.8-1-3-0.2-2.5c1.3,0.7,5.8,0.2,6.7,0c0.8-0.2,0.3-1.3,0.7-1.1C119,92.4,119,94.3,118.5,95.8z M131.8,87
					c-1.4-1.2-3.3-1.7-4-1.2l0,0.2c0.1,1.7-1.1,3.2-2.9,3.4c-1.7,0.2-3.3-1.1-3.4-2.9v-0.1c-1.1-0.4-2.9,0.3-3.2,0.2
					c-0.1-0.1-0.9-3.3,0.1-3.7c2.7-1.1,11.4-1.6,14,3.3C132.8,86.8,132.6,87.6,131.8,87z"/>
				<path class="st0" d="M133.5,52.9c-3.2,2.7-8,9.2-8.6,14.4c1.5,0.6,5.4,2.5,6,2.9c3.9-3.8,3.1-8.1,4.6-11.4
					c0.7-1.4,1.3-2.5,1.7-3.2C135.8,55.1,134.5,54.1,133.5,52.9z"/>
				<path class="st0" d="M152.4,63.3c-0.7,0.4-2.3,1.4-2.9,1.8c-3.7,2.8-11.9,6.6-13.7,8.7c1.5,1.3,3.7,3.7,4.7,5.7
					c0.9,0,3.5-2.1,8.7-8.2c1.7-2,3.4-3,6.7-4.8C154.5,65.5,153.4,64.4,152.4,63.3z"/>
				<path class="st0" d="M87,85.8c-1.8-1.7-5.2-3.2-9.8-2.9c-9.3,0.7-15.4,0.1-18.9-0.4c-6-0.9-9.7,0-12.8,0c-9.1,0,0.3,0.8,1.3,1.2
					c4.3,1.7,13,3.8,19.8,3.3c3.3-0.2,8.9,1.8,9.9,2.1c2.5,0.9,6.9,2.3,9.3,2.3C86,90.5,86.5,87.2,87,85.8z"/>
				<path class="st0" d="M94.5,74.4c-4.7-3.8-9-4.6-15.8-7.8c-1.6-0.7-4.2-2.5-4.3-2.6c-0.2-0.1-0.5-0.3-0.9-0.6c-0.4,1.3-1.2,3-2,4
					c1.1,1.4,8.7,10.1,18.5,12.8C91,78.4,92.8,76.3,94.5,74.4z"/>
				<path class="st0" d="M192.7,81.2c-0.5-0.1-2.2-0.3-3.3-0.3c-1.5,0-11.2,0.1-13.8,0.5c-5.4,0.8-15.9,0.4-21.6,0.2
					c-4.3-0.2-9.2,1.5-10.7,2.3c0,0,1.7,4.1,1.8,6.9c1.8,0.3,3.6-2,8.8-1.9c5.4,0.1,18.8-0.6,25.6-3.3c5.1-2,9.3-2.9,12.7-3.6
					C193.1,81.8,195,81.5,192.7,81.2z"/>
			</g>
			<path class="st0" d="M71.6,54.1c0.4-0.4,1-0.3,1.6-0.1c4.6,1.5,11.2,0.5,14.2-4.4c0.4-0.7,1.3-0.9,2-0.6
				c3.2,1.3,9.7,1.9,17.6-6.1c0.6-0.6,1.6-0.5,2.2,0c6.9,5.6,14.2,5.9,21.5,1c0.5-0.3,1-0.7,1.5-0.5c0.5,0.2,0.9,0.6,1,1.2
				c2.3,10.8,13.6,9.9,17.1,9.3c0.4-0.1,0.9,0,1.2,0.3c0.4,0.3,0.6,0.7,0.7,1.1c0.4,2.5,3.2,7.4,8,10c4.2,2.1,8.7,2,13.5-0.5
				c0.5-0.2,1.1-0.2,1.5,0c6.1,3.3,11.7,3.5,15.1,0.5c2.5-2.1,3.5-5.4,2.5-8.4c-1.1-3.3-4.4-5.3-9-5.6c-0.8,0-1.4-0.6-1.5-1.4
				c-0.4-2.6-1.9-4.8-4.2-6.2c-3.6-2.2-8.9-2.5-14.2-0.7c-0.5,0.2-1,0.1-1.4-0.2c-0.4-0.3-0.7-0.7-0.8-1.2c-0.3-2-1.2-4.8-3.7-6.3
				c-2.7-1.6-6.7-1.6-11.7,0.1c-0.8,0.3-1.6-0.1-2-0.8c-3.2-6.1-7.7-10.1-13-11.5c-4.8-1.3-10-0.3-14.5,2.5
				c-0.6,0.4-1.3,0.3-1.9-0.1c-4.5-3.4-9.8-4.4-14.7-2.9c-4.7,1.4-8.4,5.2-10.2,10.4c-0.1,0.4-0.5,0.8-0.9,1c-0.4,0.2-0.9,0.2-1.3,0
				c-7.3-2.9-13.2-2.8-17.2,0.2c-3.4,2.6-4.5,6.8-4.3,8c0.1,0.8-0.4,1.6-1.2,1.8l-1.7,0.4c-4,0.9-8.2,1.9-9.5,8.3
				c-0.1,0.7-0.7,1.3-1.5,1.3c-7,0.7-11.6,3.3-12.5,7.1c-0.7,2.7,0.6,5.7,3,7.4c2.5,1.7,5.5,1.5,8.2-0.5c0.5-0.3,1-0.4,1.6-0.2
				c4.1,1.6,10.8,1.3,14.8-2c2.9-2.4,4.1-5.8,3.4-10.3C71,55.1,71.2,54.5,71.6,54.1z M182.6,54.6c4.2-1,9.1,2.1,7.7,7.7
				c-0.2,1-2.6,1-2.5,0c0.4-4.7-2-5.1-5-5C181.6,57.3,181.7,54.8,182.6,54.6z M164.8,46.3c4-2.3,12.3-1.9,14.9,5.5
				c0.4,1.3-1.2,3.4-2.3,1.5c-3.1-5.7-8.1-5.7-12.3-4.1C164.1,49.5,163.3,47.2,164.8,46.3z M147.4,37.8c3.8-1.3,10.1-1.9,11.8,4.4
				c0.5,1.8-1.7,2.6-2.1,1.4c-1.7-4.5-5-4.4-8.9-3.1C146.4,41,146.8,38,147.4,37.8z M116.8,30.8c2.7-4.4,16.8-8.5,24.1,3.9
				c0.8,1.4-0.3,2.1-1.1,2.7c-0.6,0.4-0.9-0.5-1.3-1.1c-6.2-9.7-17.3-7.2-20.3-2.7C117.6,34.5,116,32,116.8,30.8z M94,31.5
				c2.5-3.9,11-10,18.6-3.3c0.8,0.7-0.2,3.5-1.1,2.8c-6.9-4.7-12.3-0.9-15.2,2.5C94.8,35.1,93.4,32.4,94,31.5z M53.2,59
				C50.3,59,48,59,46,61.2c-2.2,2.4-1.6,3.6-2,4.1c-0.6,0.6-2.1-0.4-2.1-1.6c0.1-5.5,6.8-7.7,10.8-7.3C54.2,56.6,54.6,59,53.2,59z
				 M65,49.7c-4.2,0.5-5.5,2.5-6.2,4.9c-0.3,0.9-2.7,0.3-2.3-1.5c1.1-5.2,6.8-6.5,8.8-6C66,47.2,65.8,49.6,65,49.7z M68.6,44.1
				c0.9-4.6,5.4-11.3,15.6-8.7c1.3,0.3,0.5,3.5-0.8,3c-7.5-2.9-11.3,2.7-12.5,7.2C70.8,46.2,68.2,46,68.6,44.1z"/>
			<g>
				<path class="st0" d="M47.8,100.5c-5-0.1-9.1,1.3-10.6,3.8c-2.7,4.7,0.5,8.7,2.4,9.9c4.3,2.6,8.4,0.9,8.7-0.7
					c-1.2-1.3-3.2-4.3-4.4-4.4c-1.7,0-1.5-2.2-0.3-2.6c2.9-1,5.7,4.5,9.8,7.5c3.7,2.6,8.9,0.7,8.9-0.4
					C60.1,111.7,57.4,100.7,47.8,100.5z"/>
				<path class="st0" d="M146.6,113.4c3.4,3.5,8.1,2,8.3,0.8c-0.4-0.7-2.6-3.9-3.8-4.6c-1-0.6-1.7-1.5-1.2-2.3
					c0.9-1.3,2.8-0.4,4,1.1c1.2,1.5,4.5,5.8,5.7,6.4c3,1.7,9.7,1.1,9.1-0.9c-1.8-2.9-3.1-8.8-8.6-11.4c-5.7-2.7-13-2-19.7,0.4
					C141.7,105.5,144.9,111.7,146.6,113.4z"/>
				<path class="st0" d="M106.7,102.5c-5.7-2.7-13.7-1.8-20.5,0.6c1.9,2.5,5,8.3,6.6,10.3c3.1,3.8,8.4,1.9,8.6,0.7
					c-0.4-0.7-3.2-4.4-4.3-5c-1-0.6-1.6-1.5-1-2.3c0.9-1.3,3.2,0,4.4,1.4c1.2,1.5,4.6,5.7,5.7,6.4c3.3,2.3,9.7,1.1,9.1-0.9
					C113.1,110.9,112.2,105,106.7,102.5z"/>
			</g>
		</g>
		<g>
			<g>
				<path class="st0" d="M64.1,146c-4,0.1-8,1.7-10.3,1.3v27.1c0,0,1.5,1.1,5.5,0c5.2-1.5,7.6,0.1,7.6,0.1v-27.3
					C66.9,147.2,66.3,145.9,64.1,146z"/>
				<path class="st0" d="M78.6,259.1c4.1,1.2,5.5,0,5.5,0v-27.1c-2.3,0.4-6.3-1.2-10.3-1.3c-2.2-0.1-2.8,1.2-2.8,1.2v27.3
					C71,259.2,73.4,257.6,78.6,259.1z"/>
				<path class="st0" d="M166.7,146c-2.2-0.1-2.8,1.2-2.8,1.2v27.3c0,0,2.3-1.6,7.6-0.1c4.1,1.2,5.5,0,5.5,0v-27.1
					C174.7,147.7,170.7,146.1,166.7,146z"/>
				<path class="st0" d="M73.8,146c-2.2-0.1-2.8,1.2-2.8,1.2v27.3c0,0,2.3-1.6,7.6-0.1c4.1,1.2,5.5,0,5.5,0v-27.1
					C81.8,147.7,77.8,146.1,73.8,146z"/>
				<path class="st0" d="M66.9,259.2V232c0,0-0.6-1.2-2.8-1.2c-4,0.1-8,1.7-10.3,1.3v27.1c0,0,1.5,1.1,5.5,0
					C64.6,257.6,66.9,259.2,66.9,259.2z"/>
				<path class="st0" d="M164.4,232v27.3c0,0,2.3-1.6,7.6-0.1c4.1,1.2,5.5,0,5.5,0v-27.1c-2.3,0.4-6.3-1.2-10.3-1.3
					C165,230.7,164.4,232,164.4,232z"/>
				<path class="st0" d="M157,146c-4,0.1-8,1.7-10.3,1.3v27.1c0,0,1.5,1.1,5.5,0c5.2-1.5,7.6,0.1,7.6,0.1v-27.3
					C159.8,147.2,159.2,145.9,157,146z"/>
				<path class="st0" d="M147.2,232.1v27.1c0,0,1.5,1.1,5.5,0c5.2-1.5,7.6,0.1,7.6,0.1V232c0,0-0.6-1.2-2.8-1.2
					C153.5,230.9,149.5,232.5,147.2,232.1z"/>
			</g>
			<g>
				<path class="st0" d="M194.5,134h-64.9v58.8h64.9V134z M184.8,180.8h-18.6v2.3h-7.7v-2.3h-18.6v-31.4h4v-5.7
					c4,1,10.6-1.2,13.5-1.2c3.3,0,4.9,1.4,4.9,1.4s1.7-1.4,4.9-1.4c2.9,0,9.5,2.2,13.5,1.2v5.7h4V180.8z"/>
				<path class="st0" d="M101.3,134H36.4v58.8h64.9V134z M91.4,180.8H72.8v2.3h-7.7v-2.3H46.5v-31.4h4v-5.7c4,1,10.6-1.2,13.5-1.2
					c3.3,0,4.9,1.4,4.9,1.4s1.7-1.4,4.9-1.4c2.9,0,9.5,2.2,13.5,1.2v5.7h4V180.8z"/>
				<path class="st0" d="M129.6,298c16.4-4.7,32.6-11.1,43.5-21.1c3.9-3.5,7.1-7.3,9.8-11.3h-16.7v2.3h-7.7v-2.3h-18.6v-31.4h4v-5.7
					c4,1,10.6-1.2,13.5-1.2c3.3,0,4.9,1.4,4.9,1.4s1.7-1.4,4.9-1.4c2.9,0,9.5,2.2,13.5,1.2v5.7h4v28.4c6-10.3,8.8-23,9.8-40.8
					l-0.1-2.7h-64.9V298z"/>
				<path class="st0" d="M46.5,262.3v-28.1h4v-5.7c4,1,10.6-1.2,13.5-1.2c3.3,0,4.9,1.4,4.9,1.4s1.7-1.4,4.9-1.4
					c2.9,0,9.5,2.2,13.5,1.2v5.7h4v31.4H72.8v2.3h-7.7v-2.3H48.5c2.6,4,5.8,7.7,9.5,11.2c10.3,9.7,26.6,16.3,43.3,21.2v-78.8H36.4
					l0.1,2.5C37.1,237.9,40.2,251.2,46.5,262.3z"/>
			</g>
		</g>
	</g>
	<g>
		<g>
			<path d="M201.7,79.5c-1-0.7-11.3-2-12.9-2c-1.6,0-10.5,0.1-14,0.6c-5.4,0.8-14.5,0.8-21.5,0c-2.5-0.3-5.3,0.3-7.6,1.1
				c0.4-0.4,0.9-0.8,1.5-1.4c2.1-2.1,4.3-6.1,8.4-8.1c1-0.5,2-1,2.9-1.6c3.4,1.7,8.8,2.9,15.5-0.3c10,5,16,1.6,18.1-0.2
				c2.6-2.2,4-5.4,4-8.6c0-1.1-0.2-2.3-0.5-3.3c-1.4-4.3-5.4-7.1-10.9-7.7c-0.3-1.2-0.8-2.2-1.4-3.3c0.6-0.8,1.2-1.6,1.6-2
				c0.5-0.6,2.1-3.3-2.3-1c-0.2,0.1-0.6,0.3-1.2,0.7c-0.6-0.6-1.3-1.2-2.1-1.6c-4.1-2.5-9.6-2.8-15.4-1.3c-0.8-3-2.3-5.6-4.7-7.1
				c-2.5-1.5-5.7-2-9.4-1.4c0.2-0.5,0.4-1,0.6-1.4c1.7-3.5,0.8-4.3-1-2.8c-2,1.7-3.2,3-4.2,4c-3.5-5.7-8.2-9.5-13.7-10.9
				c-4.8-1.3-9.9-0.6-14.6,1.7c-0.3-2.3-0.6-4.3-0.9-5.4c-0.9-2.8-1.9-0.6-2.1,0.3c-0.2,1.2-0.5,2.8-0.8,4.7
				c-4.6-2.5-9.8-3.2-14.6-1.7c-5.3,1.6-9.3,5.6-11.7,11c-1.9-0.7-3.7-1.1-5.3-1.4c-1-1.3-2.4-2.9-4.4-4.6c-1.4-1.2-2.5-0.6-1.7,1.8
				c0.3,0.9,0.6,1.7,0.8,2.5c-3.8,0.2-6.5,1.4-8.4,2.9c-3.7,2.8-5.2,6.9-5.5,9.5C62.7,41,62.4,41,62.4,41c-3.1,0.7-7.2,1.9-9.8,6
				c-0.5-0.3-0.8-0.5-0.9-0.6c-7.8-5.2-4.2,1.5-1.2,4.4c-10.3,1.5-13.2,6.4-14,9.4c-0.2,0.7-0.3,1.5-0.3,2.3c0,3.3,1.7,6.7,4.7,8.7
				c3.4,2.3,7.6,2.2,11.4-0.2c4.9,1.6,11.7,1.3,16.6-2.3c2.8,3.1,5.1,5.2,6.4,6.5c3.1,3.1,7.6,5.4,10,6.3c-2.3-0.9-6.1-1.8-9.9-1.3
				C67,81.3,61.5,79.8,58,79.4c-5.8-0.6-11.8,0.4-14.8,0.4c-3.2,0-7.6,1.5-9.8,1.8c-2.3,0.4-2.2,1.9,1.1,2.8
				c3.2,0.9,9.3,1.4,10.9,2.1c5.3,2.3,14.1,4.2,20.3,3.7c4.4-0.3,8.8,1.8,10,2.1c2.2,0.7,7.6,2.1,9.8,2.1c0-0.1,0,3.1,0.2,4.7
				c-0.8,0.3-1.7,0.6-2.4,0.9c-2.5-1.5-13.3-5.9-26.5-0.4c-2.8-1-8.7-4.2-16.8-1.6c-10,3.3-8.4,12.4-5.1,16.6
				c4.4,5.7,12.7,4.5,15.1,1.7c5.4,3.6,10.8,2.4,14.8-0.1c2.6,1.5,15.4,4.1,25.2,0.1c1.3,1,6.7,3.8,13.6,0.3
				c4,2.4,10.5,2.5,13.9-0.4c1.2,1,4.9,2.5,12.7,2.4c9.4-0.1,11.5-1.5,12.9-2.7c2,0.9,7.3,3.7,13.8,0.9c3.5,2.2,10.5,2.1,14.3-0.4
				c6.9,3.1,19.5,1.7,22.7-0.5c5.7-3.9,2.9-11.9-3.3-15.7c-12.2-6.2-23.6-1.4-26.6,0.2c-3.6-2.4-11.1-4-19-2.5c0.1-0.9,0-2,0-3.2
				c0-0.1,0-0.2,0-0.4c1.6-0.5,3.8-2.1,8.2-2.4c6.1-0.4,20.5-0.2,27.7-3.9c4.1-2.1,18.4-4.9,20.3-6C203.2,81,202.7,80.2,201.7,79.5z
				 M149.2,71.2c-5.2,6.1-7.8,8.2-8.7,8.2c-1-2-3.2-4.4-4.7-5.7c1.9-2.1,10-5.9,13.7-8.7c0.6-0.4,2.2-1.4,2.9-1.8
				c1,1.2,2.1,2.3,3.4,3.2C152.6,68.2,150.9,69.3,149.2,71.2z M74.3,57.9c4.4,0.7,9.5-0.3,13.1-3.7c4.5,7.2,4.7,13.8,9,18.3
				c-5.5-5.4-10.4-5.2-18.3-9.5c-1.4-0.7-3.4-2.1-4-2.4c0,0,0,0,0,0c0.1-0.7,0.1-1.4,0.1-2.1C74.4,58.4,74.3,58.2,74.3,57.9z
				 M108,66.1l0.1,0.2c0,0-2.4-3.6-2.7-4.1c-0.8-1.3-1.9-2.5-3.1-4c-1.9-2.3-3.5-4.1-4.8-5.5c3.2-0.8,6.8-2.6,10.6-6.2
				c0.4,0.3,0.8,0.5,1.2,0.8c-0.2,1.2-0.4,2.4-0.6,3.2c-0.9,4.9-1,8.6-1,10.3C107.8,62.2,107.9,64.6,108,66.1z M101.1,61.5
				c1.9,2.5,3.6,5.5,4,6.1c-1.6,0.6-4.5,2-6.1,3.1C96,67.6,93.6,58,92,55.4c-0.6-1-1-1.7-1.3-2.2c1.1,0.4,2.8,0.3,3.8,0.3
				C94.8,54,97.4,56.6,101.1,61.5z M115.4,68.7c15.1,0,27,11.9,27,27c0,1-0.1,2.5-0.3,4c-1.6,0.5-3.2,1-4.8,1.8
				c-7.8-4.5-18.5-4.3-25.9-0.1c-4.6-3.6-14.9-3.9-22.6-2.1c-0.2-1.5-0.4-2.9-0.4-3.6C88.4,80.7,100.5,68.7,115.4,68.7z M111.5,58.4
				c0.3-5,1.3-8.4,1.4-9.1c1.1,0.5,2.4,1,3.6,1.3c1,2.1,2.7,10.4,1.9,15.5c-2.3-0.2-4.9-0.2-6.5,0C111.4,65.1,111.4,61,111.5,58.4z
				 M135.4,58.9c-1.5,3.3-0.7,7.5-4.6,11.4c-0.5-0.4-4.5-2.3-6-2.9c0.6-5.2,5.5-11.7,8.6-14.4c1,1.1,2.4,2.1,3.6,2.8
				C136.7,56.4,136.1,57.5,135.4,58.9z M139.6,57.9c0.1-0.2,0.3-0.5,0.4-0.8c2.9,1,6.1,1.2,9.2,0.9c0.3,1,0.8,2.1,1.4,3.2
				c0,0,0,0-0.1,0c-1.5,0.7-6.2,3.9-13.1,7.8c-1.8,1-2.9,1.9-3.5,2.6c0.8-1,1.7-2.4,2.3-3.8C137.5,64.6,137.1,62.1,139.6,57.9z
				 M123,61.8c-0.7,1.9-1,2.9-1.3,3.9c0.6-4-0.5-10-1.7-15.1c3.5,0.1,7.1-0.9,10.6-2.9c0.3,0.8,0.6,1.5,1,2.2
				C129.6,51.8,124.8,57.1,123,61.8z M67.6,66c-4,3.2-10.7,3.6-14.8,2c-0.5-0.2-1.1-0.1-1.6,0.2c-2.7,2-5.7,2.2-8.2,0.5
				c-2.5-1.7-3.7-4.7-3-7.4c1-3.8,5.5-6.4,12.5-7.1c0.7-0.1,1.3-0.6,1.5-1.3c1.3-6.4,5.4-7.4,9.5-8.3l1.7-0.4c0.8-0.2,1.3-1,1.2-1.8
				c-0.2-1.2,0.9-5.3,4.3-8c4-3.1,9.9-3.1,17.2-0.2c0.4,0.2,0.9,0.2,1.3,0c0.4-0.2,0.7-0.5,0.9-1c1.8-5.3,5.4-9,10.2-10.4
				c4.9-1.5,10.2-0.4,14.7,2.9c0.6,0.4,1.3,0.4,1.9,0.1c4.5-2.9,9.7-3.8,14.5-2.5c5.3,1.4,9.8,5.4,13,11.5c0.4,0.7,1.2,1.1,2,0.8
				c5-1.7,9-1.8,11.7-0.1c2.5,1.6,3.4,4.3,3.7,6.3c0.1,0.5,0.3,0.9,0.8,1.2c0.4,0.3,0.9,0.3,1.4,0.2c5.3-1.8,10.6-1.5,14.2,0.7
				c2.4,1.4,3.8,3.6,4.2,6.2c0.1,0.8,0.8,1.3,1.5,1.4c4.6,0.3,7.9,2.3,9,5.6c1,3,0,6.3-2.5,8.4c-3.5,2.9-9,2.7-15.1-0.5
				c-0.5-0.3-1.1-0.3-1.5,0c-4.8,2.5-9.3,2.6-13.5,0.5c-4.9-2.5-7.7-7.4-8-10c-0.1-0.4-0.3-0.8-0.7-1.1c-0.4-0.3-0.8-0.4-1.2-0.3
				c-3.4,0.5-14.7,1.5-17.1-9.3c-0.1-0.5-0.5-1-1-1.2c-0.5-0.2-1.1,0.2-1.5,0.5c-7.3,4.9-14.6,4.5-21.5-1c-0.7-0.5-1.6-0.6-2.2,0
				c-7.9,8-14.4,7.4-17.6,6.1c-0.7-0.3-1.6-0.1-2,0.6c-3.1,4.8-9.6,5.9-14.2,4.4c-0.5-0.2-1.1-0.2-1.6,0.1c-0.4,0.4-0.7,0.9-0.6,1.5
				C71.7,60.1,70.6,63.6,67.6,66z M71.5,67.5c0.8-1,1.6-2.7,2-4c0.4,0.3,0.8,0.5,0.9,0.6c0.1,0.1,2.7,1.8,4.3,2.6
				c6.8,3.2,11.1,4,15.8,7.8c-1.7,1.9-3.4,4-4.5,5.9C80.2,77.6,72.5,68.8,71.5,67.5z M76.5,89.3c-1-0.3-6.5-2.4-9.9-2.1
				c-6.8,0.5-15.5-1.7-19.8-3.3c-1.1-0.4-10.5-1.2-1.3-1.2c3,0,6.7-0.8,12.8,0c3.5,0.5,9.6,1.1,18.9,0.4c4.5-0.4,8,1.1,9.8,2.9
				c-0.5,1.4-1,4.6-1.2,5.7C83.4,91.6,79,90.2,76.5,89.3z M53.5,114.1c-4.1-3-7-8.4-9.8-7.5c-1.2,0.4-1.3,2.5,0.3,2.6
				c1.1,0,3.2,3,4.4,4.4c-0.3,1.6-4.4,3.3-8.7,0.7c-1.9-1.1-5-5.2-2.4-9.9c1.5-2.5,5.6-4,10.6-3.8c9.6,0.2,12.3,11.1,14.6,13.2
				C62.4,114.8,57.2,116.7,53.5,114.1z M67.4,113.9c-3.6-1.6-6.5-10-7.6-11c-0.4-0.4,6.4-2.9,13.4-2.3c11.8,1,11.9,8.4,14.8,12
				C89.1,114,78.4,117,67.4,113.9z M106.2,114.7c-1.1-0.7-4.5-5-5.7-6.4c-1.2-1.4-3.4-2.8-4.4-1.4c-0.6,0.8,0,1.7,1,2.3
				c1.1,0.6,3.9,4.3,4.3,5c-0.2,1.1-5.5,3-8.6-0.7c-1.6-2-4.7-7.8-6.6-10.3c6.8-2.4,14.8-3.3,20.5-0.6c5.5,2.6,6.4,8.5,8.6,11.4
				C115.8,115.8,109.5,116.9,106.2,114.7z M121.1,114.5c-3.6-1.6-6.5-10-7.6-11c-0.4-0.4,6.4-2.9,13.4-2.3c11.9,1,11.9,8.4,14.8,12
				C142.7,114.6,132.1,117.6,121.1,114.5z M180.3,100.8c11.8,1,14.7,8.8,13.5,11.3c-1,2.2-8.3,5.1-19.3,2c-3.6-1.6-6.5-10-7.6-11
				C166.5,102.7,173.4,100.2,180.3,100.8z M160.2,102.7c5.5,2.6,6.7,8.4,8.6,11.4c0.5,1.9-6.1,2.5-9.1,0.9c-1.2-0.7-4.5-5-5.7-6.4
				c-1.2-1.4-3.1-2.4-4-1.1c-0.6,0.8,0.1,1.7,1.2,2.3c1.3,0.7,3.4,3.9,3.8,4.6c-0.2,1.1-4.9,2.6-8.3-0.8c-1.8-1.8-4.9-7.9-6.1-10.4
				C147.2,100.7,154.5,100,160.2,102.7z M192,82c-3.4,0.7-7.7,1.7-12.7,3.6c-6.8,2.6-20.1,3.4-25.6,3.3c-5.2-0.1-7,2.2-8.8,1.9
				c-0.1-2.8-1.8-6.9-1.8-6.9c1.5-0.8,6.5-2.5,10.7-2.3c5.7,0.2,16.2,0.7,21.6-0.2c2.6-0.4,12.3-0.5,13.8-0.5c1.1,0,2.9,0.2,3.3,0.3
				C195,81.5,193.1,81.8,192,82z"/>
			<g>
				<path d="M53.2,59C50.3,59,48,59,46,61.2c-2.2,2.4-1.6,3.6-2,4.1c-0.6,0.6-2.1-0.4-2.1-1.6c0.1-5.5,6.8-7.7,10.8-7.3
					C54.2,56.6,54.6,59,53.2,59"/>
				<path d="M65,49.7c-4.2,0.5-5.5,2.5-6.2,4.9c-0.3,0.9-2.7,0.3-2.3-1.5c1.1-5.2,6.8-6.5,8.8-6C66,47.2,65.8,49.6,65,49.7"/>
				<path d="M83.4,38.4c-7.5-2.9-11.3,2.7-12.5,7.2c-0.2,0.6-2.7,0.4-2.3-1.5c0.9-4.6,5.4-11.3,15.6-8.7
					C85.5,35.7,84.7,38.9,83.4,38.4"/>
				<path d="M111.4,31c-6.9-4.7-12.3-0.9-15.2,2.5c-1.4,1.6-2.8-1.1-2.2-2c2.5-3.9,11-10,18.6-3.3C113.4,28.9,112.4,31.6,111.4,31"
					/>
				<path d="M139.8,37.4c-0.6,0.4-0.9-0.5-1.3-1.1c-6.2-9.7-17.3-7.2-20.3-2.7c-0.6,0.9-2.2-1.6-1.4-2.9c2.7-4.4,16.8-8.5,24.1,3.9
					C141.6,36.1,140.6,36.8,139.8,37.4"/>
				<path d="M157.1,43.5c-1.7-4.5-5-4.4-8.9-3.1c-1.8,0.6-1.4-2.4-0.8-2.6c3.8-1.3,10.1-1.9,11.8,4.4
					C159.7,43.9,157.6,44.7,157.1,43.5"/>
				<path d="M177.4,53.3c-3.1-5.7-8.1-5.7-12.3-4.1c-0.9,0.4-1.8-2-0.3-2.9c4-2.3,12.3-1.9,14.9,5.5C180.1,53,178.4,55.2,177.4,53.3
					"/>
				<path d="M190.3,62.3c-0.2,1-2.6,1-2.5,0c0.4-4.7-2-5.1-5-5c-1.2,0-1.1-2.5-0.2-2.7C186.7,53.6,191.7,56.7,190.3,62.3"/>
			</g>
			<g>
				<path d="M109.5,86.4c-0.1,1.7-1.6,3.1-3.3,3c-1.7-0.1-3.1-1.6-3-3.3l0-0.3c-0.3-0.4-1.7-0.9-3.8,0.4c-1.1,0.6-2.2,0.2-0.4-1.4
					c1.9-1.7,3.8-2.7,5.4-2.9l0.1,0c2.7-0.2,6.3,0.4,8,1c0.7,0.3,0,3.7-0.2,3.6c-0.6-0.1-1.8-0.6-2.8-0.4L109.5,86.4"/>
				<path d="M118.5,95.8c-0.6,1.6-6.2,2.1-7.3,0c-0.4-0.8-1-3-0.2-2.5c1.3,0.7,5.8,0.2,6.7,0c0.8-0.2,0.3-1.3,0.7-1.1
					C119,92.4,119,94.3,118.5,95.8"/>
				<path d="M131.8,87c-1.4-1.2-3.3-1.7-4-1.2l0,0.2c0.1,1.7-1.1,3.2-2.9,3.4c-1.7,0.2-3.3-1.1-3.4-2.9v-0.1
					c-1.1-0.4-2.9,0.3-3.2,0.2c-0.1-0.1-0.9-3.3,0.1-3.7c2.7-1.1,11.4-1.6,14,3.3C132.8,86.8,132.6,87.6,131.8,87"/>
			</g>
		</g>
		<g>
			<path d="M129.6,134h64.9v58.8h-64.9V134z M36.4,134h64.9v58.8H36.4V134z M101.3,297.9C84.6,293,68.3,286.5,58,276.8
				c-3.7-3.5-6.8-7.2-9.5-11.2h16.6v2.3h7.7v-2.3h18.6v-31.4h-4v-5.7c-4,1-10.6-1.2-13.5-1.2c-3.2,0-4.9,1.4-4.9,1.4
				s-1.7-1.4-4.9-1.4c-2.9,0-9.5,2.2-13.5,1.2v5.7h-4v28.1c-6.3-11.1-9.4-24.3-10-40.6l-0.1-2.5h64.9V297.9z M53.8,259.2v-27.1
				c2.3,0.4,6.3-1.2,10.3-1.3c2.2-0.1,2.8,1.2,2.8,1.2v27.3c0,0-2.3-1.6-7.6-0.1C55.3,260.3,53.8,259.2,53.8,259.2z M71,259.2V232
				c0,0,0.6-1.2,2.8-1.2c4,0.1,8,1.7,10.3,1.3v27.1c0,0-1.5,1.1-5.5,0C73.4,257.6,71,259.2,71,259.2z M126.2,299l-10.8,2.7
				l-10.8-2.8v-83.4H36.4v-19.1h68.3V134h21.5v62.4h68.3v19.1h-68.3V299z M184.8,262.6v-28.4h-4v-5.7c-4,1-10.6-1.2-13.5-1.2
				c-3.2,0-4.9,1.4-4.9,1.4s-1.7-1.4-4.9-1.4c-2.9,0-9.5,2.2-13.5,1.2v5.7h-4v31.4h18.6v2.3h7.7v-2.3h16.7c-2.7,4-5.9,7.8-9.8,11.3
				c-11,10-27.2,16.4-43.5,21.1v-78.8h64.9l0.1,2.7C193.6,239.6,190.8,252.2,184.8,262.6z M177.5,232.1v27.1c0,0-1.5,1.1-5.5,0
				c-5.2-1.5-7.6,0.1-7.6,0.1V232c0,0,0.6-1.2,2.8-1.2C171.2,230.9,175.2,232.5,177.5,232.1z M160.3,232v27.3c0,0-2.3-1.6-7.6-0.1
				c-4.1,1.2-5.5,0-5.5,0v-27.1c2.3,0.4,6.3-1.2,10.3-1.3C159.7,230.7,160.3,232,160.3,232z M32.4,130v87.1
				c0,28.8,7.2,48.7,22.6,62.7c15.3,13.9,38.1,21,60.5,26.2c23-5.4,45.1-12.2,60.5-26.2c15.4-14,22.5-33.9,22.5-62.7V130H32.4z"/>
			<path d="M87.4,149.4v-5.7c-4,1-10.6-1.2-13.5-1.2c-3.2,0-4.9,1.4-4.9,1.4s-1.7-1.4-4.9-1.4c-2.9,0-9.5,2.2-13.5,1.2v5.7h-4v31.4
				h18.6v2.3h7.7v-2.3h18.6v-31.4H87.4z M66.9,174.4c0,0-2.3-1.6-7.6-0.1c-4.1,1.2-5.5,0-5.5,0v-27.1c2.3,0.4,6.3-1.2,10.3-1.3
				c2.2-0.1,2.8,1.2,2.8,1.2V174.4z M84.1,174.3c0,0-1.5,1.1-5.5,0c-5.2-1.5-7.6,0.1-7.6,0.1v-27.3c0,0,0.6-1.2,2.8-1.2
				c4,0.1,8,1.7,10.3,1.3V174.3z"/>
			<path d="M180.8,149.4v-5.7c-4,1-10.6-1.2-13.5-1.2c-3.2,0-4.9,1.4-4.9,1.4s-1.7-1.4-4.9-1.4c-2.9,0-9.5,2.2-13.5,1.2v5.7h-4v31.4
				h18.6v2.3h7.7v-2.3h18.6v-31.4H180.8z M159.8,174.4c0,0-2.3-1.6-7.6-0.1c-4.1,1.2-5.5,0-5.5,0v-27.1c2.3,0.4,6.3-1.2,10.3-1.3
				c2.2-0.1,2.8,1.2,2.8,1.2V174.4z M177,174.3c0,0-1.5,1.1-5.5,0c-5.3-1.5-7.6,0.1-7.6,0.1v-27.3c0,0,0.6-1.2,2.8-1.2
				c4,0.1,8,1.7,10.3,1.3V174.3z"/>
		</g>
	</g>
	<g>
		<polygon class="st1" points="104.7,299 115.4,301.7 126.2,299 126.2,215.6 194.5,215.6 194.5,196.4 126.2,196.4 126.2,134
			104.7,134 104.7,196.4 36.4,196.4 36.4,215.6 104.7,215.6 		"/>
		<g>
			<path class="st1" d="M73.2,100.6c-7-0.6-13.8,1.9-13.4,2.3c1.1,1.1,3.9,9.4,7.6,11c11,3.1,21.7,0,20.6-1.3
				C85.1,109,85.1,101.6,73.2,100.6z"/>
			<path class="st1" d="M126.9,101.2c-7-0.6-13.8,1.9-13.4,2.3c1.1,1.1,4,9.4,7.6,11c11,3.1,21.7,0,20.6-1.3
				C138.8,109.6,138.7,102.2,126.9,101.2z"/>
			<path class="st1" d="M174.5,114.1c11,3.1,18.3,0.2,19.3-2c1.2-2.5-1.6-10.3-13.5-11.3c-7-0.6-13.8,1.9-13.4,2.3
				C168,104.2,170.9,112.5,174.5,114.1z"/>
		</g>
	</g>
</g>
<g>
	<path d="M275,228.3c-0.9,2.9-2.5,7.6-3.6,9.6c-1.8,0.4-7.1,1.7-11.6,1.7c-15.7,0-22.6-10.8-22.6-20.9c0-13.2,10.2-22,24.3-22
		c5.1,0,9.4,1.4,11.2,1.7c0.5,3.6,0.9,6.1,1.3,9.5l-1.9,0.4c-1.6-6.7-5.4-9.4-12.2-9.4c-10.5,0-16.1,8.9-16.1,18.5
		c0,11.8,6.9,19.8,16.5,19.8c6.4,0,9.8-3.5,13-9.8L275,228.3z"/>
	<path d="M302.2,233.3c-4,5-8.3,6.1-10.3,6.1c-7.7,0-12.3-6.3-12.3-13.4c0-4.3,1.6-8.2,4.2-11c2.6-2.9,6-4.6,9.3-4.6
		c5.2,0,9.5,4.7,9.5,9.6c0,1.3-0.3,1.8-1.4,2c-1.1,0.2-8.9,0.8-16.4,1.1c0.1,8.6,5,12.1,9.4,12.1c2.5,0,4.9-1,7.2-3.2L302.2,233.3z
		 M285,220.5c3.5,0,7-0.1,10.6-0.2c1.1,0,1.5-0.4,1.5-1.3c0.1-3.3-2.1-6.3-5.5-6.3C288.7,212.7,285.9,215.4,285,220.5z"/>
	<path d="M324,238.7V237c3.7-0.4,4.2-0.9,4.2-5.2v-10.5c0-4.3-1.5-7.2-5.7-7.2c-2.5,0-5,1.6-6.9,3.2v14.8c0,4.3,0.4,4.5,4.1,4.9v1.6
		h-13.7V237c4.3-0.4,4.6-0.8,4.6-4.9v-13c0-4-0.4-4.2-3.8-4.9v-1.4c3-0.6,6-1.3,8.8-2.6v5c1.3-0.9,2.6-1.9,4.2-3
		c1.8-1.1,3.4-1.9,5.2-1.9c5,0,8.1,3.5,8.1,9.6v12.2c0,4.3,0.3,4.5,4,4.9v1.6H324z"/>
	<path d="M351.9,238.6c-1.1,0.6-2.1,0.8-2.6,0.8c-4,0-6.2-2.5-6.2-7.5v-18.3h-4.3l-0.3-0.6l1.7-1.8h2.9v-4.6l4.1-4.2l0.9,0.1v8.6
		h7.1c0.6,0.6,0.4,2-0.4,2.5H348v16.2c0,5.1,2.1,6,3.7,6s3-0.6,3.9-1.1l0.6,1.6L351.9,238.6z"/>
	<path d="M381.1,233.3c-4,5-8.3,6.1-10.3,6.1c-7.8,0-12.3-6.3-12.3-13.4c0-4.3,1.6-8.2,4.2-11c2.6-2.9,6-4.6,9.3-4.6
		c5.2,0,9.5,4.7,9.5,9.6c0,1.3-0.3,1.8-1.4,2c-1.1,0.2-8.9,0.8-16.4,1.1c0.1,8.6,5,12.1,9.4,12.1c2.5,0,4.9-1,7.2-3.2L381.1,233.3z
		 M363.8,220.5c3.5,0,7-0.1,10.6-0.2c1.1,0,1.5-0.4,1.5-1.3c0.1-3.3-2.1-6.3-5.5-6.3C367.6,212.7,364.8,215.4,363.8,220.5z"/>
	<path d="M394.5,217.1c1.9-3.2,4.6-6.7,7.6-6.7c2.1,0,3.7,1.6,3.7,3.2c0,1.3-0.8,2.5-2,3.1c-0.8,0.3-1.3,0.3-1.7-0.1
		c-0.9-0.9-1.6-1.3-2.6-1.3c-1.6,0-3.7,1.9-5,5.4v11.5c0,4.2,0.3,4.5,5.2,4.9v1.6h-14.5V237c3.9-0.4,4.3-0.8,4.3-4.9v-13
		c0-4.2-0.3-4.4-3.9-4.9v-1.4c3.1-0.5,5.9-1.3,8.9-2.6v6.9H394.5z"/>
	<path d="M427,211.1v-1.4c0-2,0.3-3.8,0.7-5.2c0.4-1.4,1.4-4.5,4.9-7.4c2.2-2,4.5-3.1,6.9-3.4c2.1,0.1,4,0.9,5,2.1
		c0.6,0.7,0.6,1.5,0.3,2.2c-0.2,0.5-0.6,1-1.2,1.5c-0.6,0.4-1.1,0.4-1.7-0.2c-1.3-1.1-3-2.3-5.1-2.3c-1.6,0-2.6,0.8-3.3,1.9
		c-0.8,1.2-1.5,4.2-1.4,9.6v2.5h7.4c0.4,0.6,0.1,2.1-0.6,2.5H432v18.1c0,4.7,0.4,4.9,5.4,5.4v1.6h-14.9V237c4-0.4,4.5-0.7,4.5-4.9
		v-18.6h-4.4l-0.3-0.6l1.7-1.8H427z"/>
	<path d="M468.5,224.4c0,10.1-7.4,15-13.7,15c-8.6,0-13.8-6.9-13.8-13.9c0-10.4,8.1-15.1,13.8-15.1
		C462.7,210.4,468.5,216.6,468.5,224.4z M446.9,223.5c0,7.9,3.5,13.9,8.6,13.9c3.9,0,7.1-2.9,7.1-11.5c0-7.4-3-13.4-8.4-13.4
		C450.3,212.5,446.9,216.4,446.9,223.5z"/>
	<path d="M481.6,217.1c1.9-3.2,4.6-6.7,7.6-6.7c2.1,0,3.7,1.6,3.7,3.2c0,1.3-0.8,2.5-2,3.1c-0.8,0.3-1.3,0.3-1.7-0.1
		c-0.9-0.9-1.6-1.3-2.6-1.3c-1.6,0-3.7,1.9-5,5.4v11.5c0,4.2,0.3,4.5,5.2,4.9v1.6h-14.5V237c3.9-0.4,4.3-0.8,4.3-4.9v-13
		c0-4.2-0.3-4.4-3.9-4.9v-1.4c3.1-0.5,5.9-1.3,8.9-2.6v6.9H481.6z"/>
	<path d="M258.2,281.6c6.2,0.9,11.2,3.7,11.2,10c0,4.2-2.3,7.4-6,9.5c-3.2,1.8-7.4,2.5-12.3,2.5H237v-1.8c5.4-0.4,5.8-0.8,5.8-6
		v-25.4c0-5.2-0.3-5.6-5.3-6v-1.8h16.2c4.7,0,7.5,0.8,9.5,2.1c2.3,1.5,3.5,4.3,3.5,7.2c0,6-5,8.4-8.5,9.4V281.6z M251,280.9
		c6.9,0,9.8-2.8,9.8-8.1c0-4.3-2.4-8.1-8.4-8.1c-1.6,0-3,0.3-3.6,0.6c-0.6,0.4-0.8,1.1-0.8,3.1v12.3H251z M248.1,295.8
		c0,4.5,1.2,5.7,5.2,5.7c5.2-0.1,9.8-2.7,9.8-9.3c0-6.5-4.4-9.3-12.1-9.3h-2.9V295.8z"/>
	<path d="M273.3,303.7V302c4-0.4,4.4-0.8,4.4-5v-13c0-3.9-0.2-4.2-4-4.8v-1.5c3.2-0.5,6.2-1.3,8.9-2.5V297c0,4.3,0.4,4.7,4.5,5v1.6
		H273.3z M276.6,266.7c0-1.9,1.5-3.3,3.2-3.3c1.8,0,3.2,1.4,3.2,3.3c0,1.7-1.4,3.2-3.2,3.2C278.1,269.9,276.6,268.4,276.6,266.7z"/>
	<path d="M317.9,289.4c0,10.1-7.4,15-13.7,15c-8.6,0-13.8-6.9-13.8-13.9c0-10.4,8.1-15.1,13.8-15.1
		C312.1,275.4,317.9,281.6,317.9,289.4z M296.3,288.5c0,7.9,3.5,13.9,8.6,13.9c3.9,0,7.1-2.9,7.1-11.5c0-7.4-3-13.4-8.4-13.4
		C299.7,277.5,296.3,281.4,296.3,288.5z"/>
	<path d="M356.2,303.7V302c3.7-0.4,4.4-0.6,4.4-5.1v-10.5c0-4.5-1.6-7.3-5.5-7.3c-2.3,0-4.7,1.3-7.1,3.3c0.1,0.8,0.2,1.4,0.2,2.6
		v12.3c0,4,0.6,4.3,4,4.7v1.6h-13.5V302c3.9-0.4,4.5-0.7,4.5-4.9v-10.8c0-4.7-1.6-7.2-5.5-7.2c-2.5,0-5,1.7-6.9,3.3v14.8
		c0,4.1,0.5,4.5,3.6,4.9v1.6h-13.3V302c4.2-0.4,4.7-0.8,4.7-4.9v-13c0-4-0.2-4.3-3.8-4.9v-1.4c2.8-0.5,6-1.3,8.8-2.6v5.1
		c1.3-0.9,2.7-2,4.6-3.2c1.6-1,3.2-1.7,5.2-1.7c3,0,5.7,1.9,7,5.2c1.8-1.4,3.7-2.6,5.2-3.5c1.3-0.9,3-1.6,4.7-1.6c4.9,0,8,3.5,8,9.6
		v12.2c0,4.2,0.5,4.5,4.1,4.9v1.6H356.2z"/>
	<path d="M395.7,298.3c-4,5-8.3,6.1-10.3,6.1c-7.8,0-12.3-6.3-12.3-13.4c0-4.3,1.6-8.2,4.2-11c2.6-2.9,6-4.6,9.3-4.6
		c5.2,0,9.5,4.7,9.5,9.6c0,1.3-0.3,1.8-1.4,2c-1.1,0.2-8.9,0.8-16.4,1.1c0.1,8.6,5,12.1,9.4,12.1c2.5,0,4.9-1,7.2-3.2L395.7,298.3z
		 M378.5,285.5c3.5,0,7-0.1,10.6-0.2c1.1,0,1.5-0.4,1.5-1.3c0.1-3.3-2.1-6.3-5.5-6.3C382.2,277.7,379.4,280.4,378.5,285.5z"/>
	<path d="M430.5,302c-1.4,0.3-6.1,1.1-9.8,2.4v-4.1l-3.8,2.3c-2.5,1.4-4.2,1.8-4.9,1.8c-5,0-11.7-4.6-11.7-13.4
		c0-8.8,7.7-15.6,16.3-15.6c0.9,0,2.7,0.2,4.2,0.7v-8.9c0-4.2-0.3-4.3-4.9-4.7V261c3.3-0.4,7.5-1.4,9.8-2.2v37.6
		c0,3.3,0.4,3.6,2.8,3.8l2,0.2V302z M420.8,280.9c-1.5-2.2-4.1-3.2-6.5-3.2c-2.9,0-8.2,2.5-8.2,11.6c0,7.5,4.6,11.2,8.6,11.2
		c2.3,0,4.5-1,6-2.1V280.9z"/>
	<path d="M433.2,303.7V302c4-0.4,4.4-0.8,4.4-5v-13c0-3.9-0.2-4.2-4-4.8v-1.5c3.2-0.5,6.2-1.3,8.9-2.5V297c0,4.3,0.4,4.7,4.5,5v1.6
		H433.2z M436.6,266.7c0-1.9,1.5-3.3,3.2-3.3c1.8,0,3.2,1.4,3.2,3.3c0,1.7-1.4,3.2-3.2,3.2C438.1,269.9,436.6,268.4,436.6,266.7z"/>
	<path d="M473.8,298c-2.8,3.7-7,6.4-10.7,6.4c-7.9,0-12.6-6.4-12.6-13.2c0-4.9,2.1-9.1,6.3-12.3c3.3-2.5,7.1-3.5,9.5-3.5
		c2.5,0,4.6,0.8,5.6,1.6c0.8,0.7,1,1.3,1,2c0,1.3-1.4,2.7-2.1,2.7c-0.3,0-0.6-0.2-1.2-0.7c-1.9-1.8-4.1-2.6-6.3-2.6
		c-4.2,0-7.8,3.5-7.8,10.1c0,8.8,6,11.7,9.5,11.7c2.7,0,4.8-0.8,7.7-3.5L473.8,298z"/>
	<path d="M496.9,304.4c-0.9,0-2.3-0.6-3-1.2c-0.8-0.9-1.2-1.8-1.5-2.8c-2.5,1.7-5.5,4-7.4,4c-4.5,0-7.6-3.7-7.6-7.7
		c0-3.1,1.6-5,5.1-6.2c3.8-1.3,8.4-3,9.8-4.1v-1.1c0-4.5-2.1-7.1-5.3-7.1c-1.3,0-2.2,0.5-2.8,1.3c-0.8,0.8-1.4,2.2-1.9,4.2
		c-0.3,1-0.9,1.4-1.8,1.4c-1.1,0-2.8-1.3-2.8-2.7c0-0.9,0.8-1.6,2-2.5c1.8-1.3,5.9-3.7,9.5-4.4c1.9,0,3.8,0.6,5.2,1.7
		c2.2,1.8,2.8,4.4,2.8,7.7v11.7c0,2.8,1.1,3.8,2.2,3.8c0.8,0,1.6-0.3,2.3-0.7l0.6,1.6L496.9,304.4z M492.3,288.5
		c-1.3,0.7-4.3,2-5.7,2.6c-2.5,1.1-3.8,2.3-3.8,4.6c0,3.3,2.5,4.9,4.5,4.9c1.6-0.1,3.8-1.1,5-2.3V288.5z"/>
	<path d="M503.9,303.7V302c4-0.4,4.5-0.8,4.5-4.9v-29.8c0-4.3-0.4-4.5-4.3-4.8V261c3.3-0.4,7.2-1.4,9.3-2.2v38.3
		c0,4.2,0.5,4.5,4.5,4.9v1.6H503.9z"/>
	<path d="M535.5,303.7v-1.8c5.2-0.4,5.7-0.8,5.7-6.1v-25.2c0-5.4-0.5-5.7-5.7-6.1v-1.8h16.7v1.8c-5.2,0.4-5.7,0.8-5.7,6.1v25.2
		c0,5.4,0.5,5.7,5.7,6.1v1.8H535.5z"/>
	<path d="M573.5,303.7V302c3.7-0.4,4.2-0.9,4.2-5.2v-10.5c0-4.3-1.5-7.2-5.7-7.2c-2.5,0-5,1.6-6.9,3.2v14.8c0,4.3,0.4,4.5,4.1,4.9
		v1.6h-13.7V302c4.3-0.4,4.6-0.8,4.6-4.9v-13c0-4-0.4-4.2-3.8-4.9v-1.4c3-0.6,6-1.3,8.8-2.6v5c1.3-0.9,2.6-1.9,4.2-3
		c1.8-1.1,3.4-1.9,5.2-1.9c5,0,8.1,3.5,8.1,9.6v12.2c0,4.3,0.3,4.5,4,4.9v1.6H573.5z"/>
	<path d="M594.4,276.1v-1.4c0-2,0.3-3.8,0.7-5.2c0.4-1.4,1.4-4.5,4.9-7.4c2.2-2,4.5-3.1,6.9-3.4c2.1,0.1,4,0.9,5,2.1
		c0.6,0.7,0.6,1.5,0.3,2.2c-0.2,0.5-0.6,1-1.2,1.5c-0.6,0.4-1.1,0.4-1.7-0.2c-1.3-1.1-3-2.3-5.1-2.3c-1.6,0-2.6,0.8-3.3,1.9
		c-0.8,1.2-1.5,4.2-1.4,9.6v2.5h7.4c0.4,0.6,0.1,2.1-0.6,2.5h-6.8v18.1c0,4.7,0.4,4.9,5.4,5.4v1.6H590V302c4-0.4,4.5-0.7,4.5-4.9
		v-18.6H590l-0.3-0.6l1.7-1.8H594.4z"/>
	<path d="M636,289.4c0,10.1-7.4,15-13.7,15c-8.6,0-13.8-6.9-13.8-13.9c0-10.4,8.1-15.1,13.8-15.1C630.1,275.4,636,281.6,636,289.4z
		 M614.4,288.5c0,7.9,3.5,13.9,8.6,13.9c3.9,0,7.1-2.9,7.1-11.5c0-7.4-3-13.4-8.4-13.4C617.8,277.5,614.4,281.4,614.4,288.5z"/>
	<path d="M649.1,282.1c1.9-3.2,4.6-6.7,7.6-6.7c2.1,0,3.7,1.6,3.7,3.2c0,1.3-0.8,2.5-2,3.1c-0.8,0.3-1.3,0.3-1.7-0.1
		c-0.9-0.9-1.6-1.3-2.6-1.3c-1.6,0-3.7,1.9-5,5.4v11.5c0,4.2,0.3,4.5,5.2,4.9v1.6h-14.5V302c3.9-0.4,4.3-0.8,4.3-4.9v-13
		c0-4.2-0.3-4.4-3.9-4.9v-1.4c3.1-0.5,5.9-1.3,8.9-2.6v6.9H649.1z"/>
	<path d="M698,303.7V302c3.7-0.4,4.4-0.6,4.4-5.1v-10.5c0-4.5-1.6-7.3-5.5-7.3c-2.3,0-4.7,1.3-7.1,3.3c0.1,0.8,0.2,1.4,0.2,2.6v12.3
		c0,4,0.6,4.3,4,4.7v1.6h-13.5V302c3.9-0.4,4.5-0.7,4.5-4.9v-10.8c0-4.7-1.6-7.2-5.5-7.2c-2.5,0-5,1.7-6.9,3.3v14.8
		c0,4.1,0.5,4.5,3.6,4.9v1.6H663V302c4.2-0.4,4.7-0.8,4.7-4.9v-13c0-4-0.2-4.3-3.8-4.9v-1.4c2.8-0.5,6-1.3,8.8-2.6v5.1
		c1.3-0.9,2.7-2,4.6-3.2c1.6-1,3.2-1.7,5.2-1.7c3,0,5.7,1.9,7,5.2c1.8-1.4,3.7-2.6,5.2-3.5c1.3-0.9,3-1.6,4.7-1.6c4.9,0,8,3.5,8,9.6
		v12.2c0,4.2,0.5,4.5,4.1,4.9v1.6H698z"/>
	<path d="M734.6,304.4c-0.9,0-2.3-0.6-3-1.2c-0.8-0.9-1.2-1.8-1.5-2.8c-2.5,1.7-5.5,4-7.4,4c-4.5,0-7.6-3.7-7.6-7.7
		c0-3.1,1.6-5,5.1-6.2c3.8-1.3,8.4-3,9.8-4.1v-1.1c0-4.5-2.1-7.1-5.3-7.1c-1.3,0-2.2,0.5-2.8,1.3c-0.8,0.8-1.4,2.2-1.9,4.2
		c-0.3,1-0.9,1.4-1.8,1.4c-1.1,0-2.8-1.3-2.8-2.7c0-0.9,0.8-1.6,2-2.5c1.8-1.3,5.9-3.7,9.5-4.4c1.9,0,3.8,0.6,5.2,1.7
		c2.2,1.8,2.8,4.4,2.8,7.7v11.7c0,2.8,1.1,3.8,2.2,3.8c0.8,0,1.6-0.3,2.3-0.7l0.6,1.6L734.6,304.4z M730,288.5
		c-1.3,0.7-4.3,2-5.7,2.6c-2.5,1.1-3.8,2.3-3.8,4.6c0,3.3,2.5,4.9,4.5,4.9c1.6-0.1,3.8-1.1,5-2.3V288.5z"/>
	<path d="M753.6,303.6c-1.1,0.6-2.1,0.8-2.6,0.8c-4,0-6.2-2.5-6.2-7.5v-18.3h-4.3l-0.3-0.6l1.7-1.8h2.9v-4.6l4.1-4.2l0.9,0.1v8.6
		h7.1c0.6,0.6,0.4,2-0.4,2.5h-6.7v16.2c0,5.1,2.1,6,3.7,6s3-0.6,3.9-1.1l0.6,1.6L753.6,303.6z"/>
	<path d="M760.7,303.7V302c4-0.4,4.4-0.8,4.4-5v-13c0-3.9-0.2-4.2-4-4.8v-1.5c3.2-0.5,6.2-1.3,8.9-2.5V297c0,4.3,0.4,4.7,4.5,5v1.6
		H760.7z M764,266.7c0-1.9,1.5-3.3,3.2-3.3c1.8,0,3.2,1.4,3.2,3.3c0,1.7-1.4,3.2-3.2,3.2C765.5,269.9,764,268.4,764,266.7z"/>
	<path d="M801.3,298c-2.8,3.7-7,6.4-10.7,6.4c-7.9,0-12.6-6.4-12.6-13.2c0-4.9,2.1-9.1,6.3-12.3c3.3-2.5,7.1-3.5,9.5-3.5
		c2.5,0,4.6,0.8,5.6,1.6c0.8,0.7,1,1.3,1,2c0,1.3-1.4,2.7-2.1,2.7c-0.3,0-0.6-0.2-1.2-0.7c-1.9-1.8-4.1-2.6-6.3-2.6
		c-4.2,0-7.8,3.5-7.8,10.1c0,8.8,6,11.7,9.5,11.7c2.7,0,4.8-0.8,7.7-3.5L801.3,298z"/>
	<path d="M820.7,283.6c-1.2-3.7-3.4-6.2-6.5-6.2c-2.4,0-4.1,1.9-4.1,4.3c0,2.8,2.5,4.3,5.4,5.5c4.7,2,7.9,4.2,7.9,8.6
		c0,5.7-5.4,8.7-10.4,8.7c-3.2,0-6.1-1.2-7.2-2.1c-0.4-0.9-1-5.2-1-7.4l1.6-0.3c1.1,4.2,4,7.8,7.7,7.8c2.3,0,4.5-1.8,4.5-4.4
		c0-2.8-1.8-4.3-5-5.7c-3.8-1.8-7.9-3.8-7.9-8.7c0-4.4,3.8-8.1,9.6-8.1c2.6,0,4.3,0.6,5.6,1.1c0.5,1.4,1.2,5.2,1.4,6.7L820.7,283.6z
		"/>
</g>
<g>
	<path d="M252.1,130.8v21.3c0,6.5,1.3,8.8,8.4,8.7c8.2,0,15.1-4.1,15.1-14.4c0-10.6-7.8-15.5-17.9-15.5H252.1z M252.1,128h6.1
		c9.4,0,14-4.4,14-12.4c0-5.9-2.4-12.4-14-12.4c-3.2,0-4.6,0.3-5.4,0.6c-0.6,0.2-0.9,0.6-0.9,2.5V128z M261.7,100.4
		c7,0,11,1.2,14.2,3.4c3.3,2.3,5.1,5.8,5.1,10.7c0,8.6-8.1,12.8-12.8,13.9v0.2c8.9,1.3,16.9,6.5,16.9,16.4c0,6.9-3.4,11.8-9.1,15
		c-5,2.7-11.2,3.7-18.6,3.7h-22.4v-2.3c8.2-0.6,9-1.3,9-11.9v-35.1c-0.1-10.6-0.7-11.3-8.4-11.9v-2.3H261.7z"/>
	<path d="M319,133.1h5.7c4,0,7.1-0.5,9.8-2.6c4.2-3.3,5.6-8.1,5.6-12.9c0-10.2-7.4-14.3-14.7-14.3c-3.3,0-4.7,0.2-5.5,0.5
		c-0.6,0.2-0.9,0.7-0.9,2.6V133.1z M319,149.6c0,10.6,0.8,11.3,8.8,11.9v2.3h-26v-2.3c8.2-0.6,9-1.3,9-11.9v-35.1
		c0-10.6-0.8-11.3-8.6-11.9v-2.3H327c6.2,0,11.8,0.9,15.4,3.3c3.9,2.4,6.4,6.8,6.4,12.5c0,8.1-5,13.9-12.9,17.1
		c1.8,2.9,5.8,9.7,8.7,14c3.5,5.2,5.6,7.8,8.2,10.7c2,2.4,3.8,4,7.3,4.9l-0.2,1.9h-1.4c-11.2-0.3-14.6-3.7-18.3-9.1
		c-3-4.4-7.1-11.6-9.9-16.2c-1.5-2.5-3.1-3.5-6.1-3.5H319V149.6z"/>
	<path d="M401.5,102.2c-11.5,0-21.3,9.5-21.3,27.8c0,18.8,9.8,32.1,24.1,32.1c11.7,0,21.3-9.1,21.3-27.2
		C425.6,113.8,415.4,102.2,401.5,102.2 M435.1,131.2c0,20.3-14.1,34-32.8,34c-18.4,0-31.5-14.1-31.5-32.5
		c0-16.4,11.5-33.8,33.2-33.8C420.9,98.9,435.1,112,435.1,131.2"/>
	<path d="M469.4,102.6l-3,0.4c-4.4,0.6-5,1.5-3.6,5.8l13.2,41.5h0.2l15.6-48.9h2.4l17.6,48.9h0.2c4-12.3,9.6-32.9,11.3-39.9
		c1.4-5.7,0.9-6.8-3.5-7.3l-2.8-0.4v-2.3h20.7v2.3c-6.4,0.8-7.1,1.2-10.3,10c-0.9,2.4-8,24.9-16.2,51.7h-2.6l-17.5-47.7l-0.2,0.2
		l-15.9,47.5H472L455.2,112c-2.6-8.1-4.1-8.8-9.7-9.4v-2.3h23.9V102.6z"/>
	<path d="M608.5,164.5H606l-42.3-51.4h-0.2v24.9c0,10.2,0.4,15.5,0.8,18.5c0.5,3.4,3.1,4.8,9.6,5.1v2.3h-23.4v-2.3
		c5.4-0.2,7.9-1.7,8.4-5.1c0.4-3,0.8-8.3,0.8-18.5v-21.2c0-7-0.1-8.6-1.9-10.8c-1.9-2.3-4.5-3-8.6-3.3v-2.3h14.2l41.1,49.2h0.2
		v-23.3c0-10.2-0.4-15.5-0.8-18.5c-0.5-3.4-3.1-4.8-9.6-5.1v-2.3h23.4v2.3c-5.4,0.2-7.9,1.7-8.4,5.1c-0.4,3-0.8,8.3-0.8,18.5V164.5z
		"/>
</g>
</svg>
