<?xml version="1.0" encoding="utf-8"?>
<!-- Generator: Adobe Illustrator 22.1.0, SVG Export Plug-In . SVG Version: 6.00 Build 0)  -->
<svg version="1.1" xmlns="http://www.w3.org/2000/svg" xmlns:xlink="http://www.w3.org/1999/xlink" x="0px" y="0px"
	 viewBox="0 0 311.8 362.6" style="enable-background:new 0 0 311.8 362.6;" xml:space="preserve">
<style type="text/css">
	.st0{display:none;}
	.st1{display:inline;fill:#696A6D;}
	.st2{fill:#FFFFFF;}
</style>
<g id="Background" class="st0">
	<rect x="-273.5" y="-111.4" class="st1" width="1873.8" height="730.4"/>
</g>
<g id="Brown_Stacked_Reverse">
	<g>
		<path class="st2" d="M14.1,334.4v17.4c0,5.4,1,7.2,6.9,7.1c6.7,0,12.4-3.4,12.4-11.8c0-8.7-6.4-12.7-14.6-12.7H14.1z M14.1,332.1
			h5c7.7,0,11.5-3.6,11.5-10.1c0-4.8-2-10.1-11.4-10.1c-2.6,0-3.7,0.2-4.4,0.5c-0.5,0.2-0.7,0.5-0.7,2.1V332.1z M21.9,309.5
			c5.8,0,9,1,11.7,2.8c2.7,1.9,4.1,4.8,4.1,8.8c0,7-6.6,10.5-10.5,11.4v0.2c7.3,1,13.8,5.4,13.8,13.4c0,5.7-2.8,9.7-7.4,12.3
			c-4.1,2.2-9.2,3-15.3,3H0v-1.8c6.7-0.5,7.4-1,7.4-9.7v-28.8c-0.1-8.7-0.6-9.3-6.9-9.7v-1.8H21.9z"/>
		<path class="st2" d="M68.9,336.3h4.6c3.3,0,5.8-0.4,8-2.2c3.4-2.7,4.6-6.6,4.6-10.6c0-8.4-6.1-11.7-12.1-11.7
			c-2.7,0-3.8,0.2-4.5,0.4c-0.5,0.2-0.7,0.6-0.7,2.2V336.3z M68.9,349.9c0,8.7,0.6,9.3,7.2,9.7v1.8H54.8v-1.8c6.7-0.5,7.4-1,7.4-9.7
			v-28.8c0-8.7-0.6-9.3-7-9.7v-1.8h20.3c5.1,0,9.7,0.7,12.6,2.7c3.2,2,5.3,5.6,5.3,10.2c0,6.6-4.1,11.4-10.6,14
			c1.4,2.4,4.7,7.9,7.1,11.4c2.9,4.2,4.6,6.4,6.7,8.8c1.7,2,3.1,3.3,6,4l-0.2,1.5h-1.1c-9.2-0.2-12-3-15-7.4
			c-2.5-3.6-5.8-9.5-8.1-13.3c-1.3-2.1-2.5-2.9-5-2.9h-4.3V349.9z"/>
		<path class="st2" d="M136.5,310.9c-9.4,0-17.4,7.8-17.4,22.8c0,15.4,8.1,26.3,19.7,26.3c9.6,0,17.4-7.4,17.4-22.3
			C156.3,320.4,148,310.9,136.5,310.9 M164,334.7c0,16.6-11.6,27.9-26.9,27.9c-15.1,0-25.8-11.5-25.8-26.6
			c0-13.4,9.4-27.7,27.3-27.7C152.5,308.3,164,319,164,334.7"/>
		<path class="st2" d="M190.2,311.3l-2.5,0.3c-3.6,0.5-4.1,1.2-3,4.7l10.8,34.1h0.2l12.8-40.1h1.9l14.5,40h0.2
			c3.3-10.1,7.9-26.9,9.3-32.7c1.1-4.6,0.7-5.6-2.9-6l-2.3-0.3v-1.8h16.9v1.8c-5.3,0.6-5.8,1-8.5,8.2c-0.7,2-6.6,20.4-13.3,42.4
			h-2.2l-14.4-39.1l-0.2,0.2l-13,38.9h-2.2L178.5,319c-2.2-6.6-3.4-7.2-7.9-7.7v-1.8h19.6V311.3z"/>
		<path class="st2" d="M304.3,362h-2.1l-34.7-42.1h-0.2v20.4c0,8.4,0.3,12.7,0.6,15.2c0.4,2.8,2.6,3.9,7.8,4.2v1.8h-19.2v-1.8
			c4.4-0.2,6.5-1.4,6.9-4.2c0.3-2.5,0.6-6.8,0.6-15.2v-17.3c0-5.8-0.1-7-1.5-8.9c-1.5-1.9-3.7-2.5-7-2.7v-1.8h11.7l33.7,40.3h0.2
			v-19.1c0-8.4-0.3-12.7-0.6-15.2c-0.4-2.8-2.6-3.9-7.8-4.1v-1.8h19.2v1.8c-4.4,0.2-6.5,1.4-6.9,4.1c-0.3,2.5-0.6,6.8-0.6,15.2V362z
			"/>
	</g>
</g>
<g id="Shield_Reverse">
	<g>
		<path class="st2" d="M111.8,217.6c0,0,0.6-1.2,2.8-1.2c2.8,0.1,5.5,0.9,7.7,1.2c1,0.2,1.9,0.2,2.6,0.1v27c0,0-0.4,0.3-1.3,0.4
			c-0.5,0.1-1.3,0.1-2.2,0c-0.6-0.1-1.2-0.2-2-0.4c-5.2-1.5-7.6,0.2-7.6,0.2l2.4-2.5l-2.4,2.4V217.6z M94.6,244.7v-27l0,0.1
			c2.3,0.4,6.2-1.3,10.3-1.4c2.2-0.1,2.8,1.2,2.8,1.2l0,0v27.2l-0.5-0.2c0,0-1.9-1.3-7.1,0.1c-0.2,0-0.3,0.1-0.5,0.1
			C96.7,245.5,94.7,244.7,94.6,244.7 M77,119.6v83c0,27.4,6.9,46.4,21.5,59.8c14.6,13.3,36.4,20,57.7,25c21.9-5.2,43-11.6,57.7-25
			c14.7-13.4,21.5-32.4,21.5-59.8v-83H77z M180.7,135h3.9v-5.7c4,1,10.6-1.2,13.5-1.2c3.3,0,4.9,1.4,4.9,1.4s1.7-1.4,4.9-1.4
			c2.9,0,9.5,2.2,13.5,1.2v5.7h3.9v31.3h-18.5v2.3h-7.7v-2.3h-18.5V135z M87.3,134.8h3.9v-5.6c4,1,10.8-1.1,13.7-1.1
			c3.2,0,4.9,1.4,4.9,1.4s1.7-1.4,4.9-1.4c2.9,0,9.4,2.2,13.4,1.2v5.6h4.2v31.4h-18.6v2.3h-7.6v-2.3l-18.7-0.1V134.8z M132.1,251.1
			h-18.5l0,2.4l-7.7-0.1v-2.3l-17.1,0l-1.4-2.3l0-29h4v-5.7c4,1,10.6-1.2,13.5-1.2c3.3,0,4.9,1.4,4.9,1.4s1.7-1.4,4.9-1.4
			c2.9,0,9.5,2.2,13.5,1.2l0,5.8l4-0.1V251.1z M223.5,251h-16.6v2.3h-7.7V251l-18.6,0l0-31.3h4V214c4,1,10.6-1.2,13.5-1.2
			c3.3,0,4.9,1.4,4.9,1.4s1.7-1.4,4.9-1.4c2.9,0,9.5,2.2,13.5,1.2v5.7h4v28.1L223.5,251z M233.5,204.2h-63.6v77.6l-13.8,3.6
			l-13.8-3.6v-77.5H78.8v-25.3h63.6v-57.5H170v57.5h63.5V204.2z M200.5,160c0,0-2.3-1.6-7.5-0.1c-4,1.2-5.5,0-5.5,0v-27
			c2.3,0.4,6.3-1.2,10.3-1.3c2.2-0.1,2.8,1.2,2.8,1.2V160z M204.6,160v-27.2c0,0,0.6-1.2,2.8-1.2c4,0.1,8,1.7,10.3,1.3v27
			c0,0-1.5,1.1-5.5,0C206.9,158.4,204.6,160,204.6,160z M107.7,160c0,0-2.3-1.6-7.6-0.1c-4.1,1.2-5.5,0-5.5,0v-27
			c2.3,0.4,6.3-1.2,10.4-1.3c2.2-0.1,2.8,1.2,2.8,1.2V160z M111.8,160.2v-27.4c0,0,0.6-1.2,2.7-1.2c4,0.1,8.1,1.5,10.4,1.1v27.2
			c0,0-1.7,1-5.7-0.1C114,158.3,111.8,160.2,111.8,160.2z M205.1,217.5c0,0,0.6-1.2,2.8-1.2c2.8,0.1,5.5,0.9,7.7,1.2
			c1,0.2,1.9,0.2,2.6,0.1v27c0,0-0.4,0.3-1.3,0.4c-0.5,0.1-1.3,0.1-2.2,0c-0.6-0.1-1.3-0.2-2-0.4c-5.2-1.5-7.6,0.1-7.6,0.1
			L205.1,217.5z M201.1,244.7L201.1,244.7c-0.1-0.1-2.3-1.6-7.6-0.1c-0.2,0-0.3,0.1-0.5,0.1c-3,0.7-4.4,0.2-4.9,0l-0.2-0.1v-27
			l0.1,0c2.3,0.4,6.2-1.2,10.2-1.3c2.2-0.1,2.8,1.2,2.8,1.2V244.7z"/>
		<g>
			<path class="st2" d="M131.7,38.8c0.3,0.5,0.7,1.2,1.3,2.2c1.5,2.6,3.9,12.2,7,15.4c1.6-1.1,4.5-2.6,6.1-3.1
				c-0.4-0.6-2.1-3.6-4-6.1c-3.7-4.9-6.4-7.6-6.6-8C134.5,39.2,132.8,39.2,131.7,38.8"/>
			<path class="st2" d="M159.5,51.7c0.7-5.1-0.9-13.4-1.9-15.5c-1.3-0.3-2.5-0.8-3.6-1.3c-0.1,0.6-1.1,4.1-1.4,9.1
				c-0.2,2.7-0.1,6.8,0.4,7.7C154.5,51.5,157.2,51.5,159.5,51.7"/>
			<path class="st2" d="M183.4,81.5c0-15.2-11.8-27.1-27-27.1c-14.9,0-27,12.1-27,27.1c0,0.7,0.2,2.1,0.4,3.6
				c7.8-1.8,18-1.5,22.6,2.2c7.2-4.1,18.1-4.2,25.9,0c3.1-1.6,4.4-1.9,4.8-2C183.3,84.1,183.4,82.2,183.4,81.5 M150.5,72.2
				c-0.1,1.7-1.6,3.1-3.3,3c-1.7-0.1-3.1-1.6-3-3.3l0-0.3c-0.3-0.4-1.7-0.9-3.8,0.4c-1.1,0.7-2.2,0.2-0.4-1.4
				c1.9-1.7,3.8-2.7,5.4-2.9l0.1,0c2.7-0.2,6.3,0.4,8,1.1c0.7,0.3,0,3.7-0.2,3.7c-0.6-0.1-1.8-0.6-2.8-0.4L150.5,72.2z M159.5,81.7
				c-0.6,1.6-6.2,2.1-7.3,0c-0.4-0.8-1-3-0.2-2.5c1.3,0.7,5.8,0.2,6.7,0c0.8-0.2,0.3-1.3,0.7-1.1C160,78.2,160,80.1,159.5,81.7
				 M172.8,72.7c-1.4-1.2-3.3-1.7-4-1.2l0,0.2c0.1,1.7-1.1,3.3-2.9,3.4c-1.7,0.2-3.3-1.1-3.4-2.9v-0.1c-1.1-0.4-2.9,0.3-3.2,0.2
				c-0.1-0.1-0.9-3.3,0.1-3.7c2.7-1.1,11.4-1.7,14,3.3C173.8,72.6,173.6,73.4,172.8,72.7"/>
			<path class="st2" d="M174.5,38.5c-3.2,2.7-8,9.2-8.6,14.5c1.5,0.6,5.4,2.5,6,2.9c3.9-3.9,3.1-8.1,4.6-11.4
				c0.7-1.4,1.3-2.5,1.7-3.2C176.8,40.6,175.5,39.7,174.5,38.5"/>
			<path class="st2" d="M193.4,48.9c-0.7,0.4-2.3,1.4-2.9,1.8c-3.7,2.8-11.9,6.6-13.7,8.7c1.5,1.3,3.7,3.7,4.7,5.7
				c0.9,0,3.5-2.1,8.7-8.3c1.7-2,3.4-3,6.6-4.8C195.5,51.2,194.4,50.1,193.4,48.9"/>
			<path class="st2" d="M128,71.6c-1.8-1.7-5.2-3.2-9.8-2.9c-9.3,0.7-15.4,0.1-18.9-0.4c-6-0.9-9.7,0-12.7,0c-9.1,0,0.3,0.8,1.3,1.2
				c4.3,1.7,13,3.9,19.8,3.4c3.3-0.2,8.9,1.8,9.9,2.1c2.5,0.9,6.9,2.3,9.3,2.3C127,76.2,127.5,73,128,71.6"/>
			<path class="st2" d="M135.5,60.1c-4.7-3.8-9-4.6-15.8-7.8c-1.6-0.7-4.2-2.5-4.3-2.6c-0.2-0.1-0.5-0.3-0.9-0.6c-0.4,1.3-1.2,3-2,4
				c1.1,1.4,8.7,10.2,18.5,12.9C132.1,64.2,133.8,62,135.5,60.1"/>
			<path class="st2" d="M233.6,66.9c-0.5-0.1-2.2-0.3-3.3-0.3c-1.5,0-11.2,0.1-13.8,0.5c-5.4,0.9-15.9,0.4-21.6,0.2
				c-4.3-0.2-9.2,1.5-10.7,2.3c0,0,1.7,4.2,1.8,7c1.8,0.3,3.6-2,8.8-1.9c5.4,0.1,18.8-0.6,25.5-3.3c5-2,9.3-3,12.7-3.7
				C234.1,67.5,235.9,67.3,233.6,66.9"/>
			<path class="st2" d="M104.5,30c-4,0.9-8.2,1.9-9.5,8.3"/>
			<path class="st2" d="M93.6,32.6c-0.5-0.3-0.8-0.5-0.9-0.6c-7.8-5.2-4.2,1.5-1.2,4.4C91.5,36.4,91.6,34.1,93.6,32.6"/>
			<path class="st2" d="M123,14.4c-1-1.3-2.4-2.9-4.4-4.7c-1.4-1.2-2.5-0.6-1.7,1.8c0.3,0.9,0.6,1.7,0.8,2.5
				C117.8,14,120.1,13.7,123,14.4"/>
			<path class="st2" d="M158.3,6.8c-0.3-2.3-0.6-4.3-0.9-5.4c-0.9-2.8-1.9-0.6-2.1,0.3c-0.2,1.2-0.5,2.8-0.8,4.7
				C154.6,6.4,157.1,7.8,158.3,6.8"/>
			<path class="st2" d="M191,16.4c0.2-0.5,0.4-1,0.6-1.4c1.7-3.5,0.8-4.4-1-2.8c-2,1.8-3.2,3-4.2,4c0,0,0.3,1.3,1.4,1.7
				c1,0.4,2.5,0,2.5,0S190.7,17.3,191,16.4"/>
			<path class="st2" d="M224.1,30.4c0.6-0.8,1.5-1.8,1.9-2.2c0.5-0.6,2.1-3.3-2.3-1.1c-0.2,0.1-0.9,0.5-1.5,0.8
				C222.3,28,223.9,29.1,224.1,30.4"/>
			<path class="st2" d="M112.6,39.7c0.4-0.4,1-0.3,1.6-0.1c4.6,1.5,11.1,0.5,14.2-4.4c0.4-0.7,1.3-0.9,2-0.6
				c3.2,1.3,9.6,1.9,17.5-6.2c0.6-0.6,1.6-0.5,2.2,0c6.9,5.6,14.2,5.9,21.5,1c0.5-0.3,1-0.7,1.5-0.5c0.5,0.2,0.9,0.7,1,1.2
				c2.3,10.9,13.6,9.9,17,9.4c0.4-0.1,0.9,0,1.2,0.3c0.4,0.3,0.6,0.7,0.7,1.1c0.4,2.5,3.2,7.5,8,10c4.2,2.1,8.7,2,13.5-0.5
				c0.5-0.2,1.1-0.2,1.5,0c6.1,3.3,11.7,3.5,15.1,0.5c2.5-2.1,3.5-5.5,2.5-8.4c-1.1-3.3-4.4-5.4-9-5.6c-0.8,0-1.4-0.6-1.5-1.4
				c-0.4-2.6-1.9-4.8-4.2-6.3c-3.6-2.2-8.9-2.5-14.2-0.7c-0.5,0.2-1,0.1-1.4-0.2c-0.4-0.3-0.7-0.7-0.8-1.2c-0.3-2-1.2-4.8-3.7-6.4
				c-2.7-1.6-6.7-1.6-11.7,0.1c-0.8,0.3-1.6-0.1-2-0.8c-3.2-6.2-7.7-10.2-13-11.6c-4.7-1.3-10-0.3-14.5,2.5
				c-0.6,0.4-1.3,0.4-1.9-0.1c-4.5-3.4-9.8-4.5-14.7-3c-4.7,1.5-8.4,5.2-10.2,10.5c-0.1,0.4-0.5,0.8-0.9,1c-0.4,0.2-0.9,0.2-1.3,0
				c-7.3-2.9-13.2-2.9-17.2,0.2c-3.4,2.6-4.5,6.8-4.3,8c0.1,0.8-0.4,1.6-1.2,1.8l-1.7,0.4c-4,0.9-8.2,1.9-9.5,8.3
				c-0.1,0.7-0.7,1.3-1.5,1.3C86.5,40.4,82,43,81,46.8c-0.7,2.7,0.6,5.8,3,7.5c2.5,1.7,5.5,1.5,8.2-0.5c0.5-0.3,1-0.4,1.6-0.2
				c4.1,1.6,10.8,1.3,14.8-2c2.9-2.4,4.1-5.9,3.4-10.4C112,40.7,112.2,40.1,112.6,39.7 M223.6,40.2c4.2-1,9.1,2.1,7.7,7.7
				c-0.2,1-2.6,1-2.5,0c0.4-4.7-2-5.1-5-5C222.6,42.9,222.7,40.4,223.6,40.2 M205.8,31.9c4-2.3,12.3-1.9,14.9,5.5
				c0.4,1.3-1.2,3.4-2.3,1.5c-3.1-5.7-8.1-5.7-12.3-4.1C205.1,35.1,204.3,32.7,205.8,31.9 M188.4,23.3c3.7-1.3,10.1-1.9,11.8,4.4
				c0.5,1.8-1.7,2.6-2.1,1.4c-1.7-4.6-5-4.4-8.9-3.1C187.4,26.5,187.8,23.5,188.4,23.3 M157.8,16.2c2.7-4.4,16.8-8.5,24.1,4
				c0.8,1.4-0.3,2.2-1.1,2.7c-0.6,0.4-0.9-0.5-1.3-1.1c-6.2-9.8-17.3-7.2-20.3-2.7C158.6,20,157,17.5,157.8,16.2 M135,16.9
				c2.5-4,11-10,18.5-3.3c0.8,0.7-0.2,3.5-1.1,2.9c-6.9-4.8-12.3-0.9-15.2,2.5C135.9,20.6,134.4,17.9,135,16.9 M94.3,44.6
				c-2.9,0-5.2,0.1-7.2,2.3c-2.2,2.4-1.6,3.7-2,4.1c-0.6,0.6-2.1-0.4-2.1-1.6c0.1-5.6,6.8-7.7,10.8-7.3
				C95.2,42.2,95.6,44.6,94.3,44.6 M106,35.2c-4.2,0.5-5.5,2.5-6.2,4.9c-0.3,0.9-2.7,0.3-2.3-1.5c1.1-5.2,6.8-6.5,8.8-6.1
				C107,32.7,106.8,35.2,106,35.2 M109.6,29.6c0.9-4.6,5.4-11.3,15.6-8.7c1.3,0.3,0.5,3.5-0.8,3c-7.5-3-11.3,2.8-12.5,7.3
				C111.8,31.7,109.3,31.5,109.6,29.6"/>
		</g>
		<path class="st2" d="M195.8,104.4c-2-2.4-3.3-5.6-5.6-7c-1.1-0.6-1.9-1.9-0.4-2.7c1.5-0.4,2.8,0.9,4.6,3.3c0.5,0.6,1,1.2,1.5,1.9
			c2.6,2.9,2.9,6,5.3,6c3.1,0.2,6.1-0.6,8.2-1.8c6.5,2.9,18.6,1.6,21.6-0.4c5.7-3.9,2.2-12.2-3.5-15.2c-11.7-5.6-22.1-1-25,0.3
			c-2.6-1.8-7-2.6-12.5-2.5c-6.1,0.4-8.9,1.3-12.9,3.3c-7.3-4.3-17.4-4.1-24.7,0c-2.9-2.3-8.5-3.2-14-3c-4.6,0.2-8.9,0.9-11.5,2.6
			c-3.2-2.3-13.9-6.4-26.5-1.2c-2.7-0.9-8.3-4-16-1.5c-9.3,3.1-8,11.6-5,15.6c4.2,5.5,12,4.6,14.5,1.8c-0.6-1.5-1.8-2.7-3-4.2
			c-1-1.3-2.1-2.4-2.7-2.6c-2.1,0-1.4-2.3-0.6-2.5c2.4-0.9,5.4,3.3,8.3,6.7c1.5,1.8,2.3,4.7,4.3,4.7c4.4-0.1,6.3-1.4,7.9-2.2
			c2.6,1.5,14.7,3.9,24,0.1c1.3,0.9,6.4,3.6,12.9,0.3c-2.5-2.7-3.8-5.5-6.2-7.3c-1.6-0.8-1.3-2.3-0.5-2.6c1.7-0.5,3.4,1.3,5,3.4
			c0.9,1.2,1.9,2.6,2.8,3.6c1.8,2.1,3.3,4.6,5,4.6c3.7,0.1,5.6-0.9,7.2-2.1c1.1,0.8,2.4,1.4,4.8,1.8c1.7,0.3,3.8,0.5,7.2,0.5
			c4.3-0.1,7.5-0.4,9.6-1c1.3-0.4,2.3-1.1,2.9-1.5C182.8,103.5,188.9,107.3,195.8,104.4z M110.4,101.5c-3.5-1.5-6.1-9.4-7.2-10.5
			c-0.4-0.4,5.9-2.7,12.6-2.2c11.4,0.8,11.6,8.1,14.3,11.5C131.1,101.5,120.9,104.4,110.4,101.5z M161.5,102
			c-3.5-1.5-6.1-9.5-7.1-10.5c-0.4-0.4,6.1-2.7,12.8-2.2c11.3,1,11.4,8,14.1,11.5C182.3,102.1,171.9,104.9,161.5,102z M231,99.7
			c-1,2.1-8,4.8-18.5,1.9c-3.5-1.5-6.1-9.5-7.2-10.5c-0.4-0.4,6-2.7,12.6-2.2C229.3,89.7,232.1,97.3,231,99.7z"/>
	</g>
</g>
</svg>
